CenturySchL-Roma.ufo
<glyph name="exclam" format="1">
  <advance width="296"/>
  <unicode hex="0021"/>
  <outline>
    <contour>
      <point x="169" y="191" type="line"/>
      <point x="170" y="367"/>
      <point x="174" y="417"/>
      <point x="193" y="511" type="curve" smooth="yes"/>
      <point x="207" y="581"/>
      <point x="211" y="612"/>
      <point x="211" y="641" type="curve" smooth="yes"/>
      <point x="211" y="705"/>
      <point x="191" y="736"/>
      <point x="150" y="736" type="curve" smooth="yes"/>
      <point x="109" y="736"/>
      <point x="88" y="704"/>
      <point x="88" y="642" type="curve" smooth="yes"/>
      <point x="88" y="612"/>
      <point x="92" y="581"/>
      <point x="106" y="511" type="curve" smooth="yes"/>
      <point x="125" y="417"/>
      <point x="128" y="370"/>
      <point x="130" y="191" type="curve"/>
    </contour>
    <contour>
      <point x="150" y="111" type="curve" smooth="yes"/>
      <point x="115" y="111"/>
      <point x="87" y="83"/>
      <point x="87" y="49" type="curve" smooth="yes"/>
      <point x="87" y="14"/>
      <point x="115" y="-14"/>
      <point x="149" y="-14" type="curve" smooth="yes"/>
      <point x="184" y="-14"/>
      <point x="212" y="14"/>
      <point x="212" y="49" type="curve" smooth="yes"/>
      <point x="212" y="83"/>
      <point x="184" y="111"/>
    </contour>
  </outline>
</glyph>
<glyph name="quotedbl" format="1">
  <advance width="389"/>
  <unicode hex="0022"/>
  <outline>
    <contour>
      <point x="93" y="498" type="line"/>
      <point x="115" y="498" type="line"/>
      <point x="146" y="677" type="line" smooth="yes"/>
      <point x="147" y="682"/>
      <point x="147" y="687"/>
      <point x="147" y="693" type="curve" smooth="yes"/>
      <point x="147" y="718"/>
      <point x="129" y="736"/>
      <point x="104" y="736" type="curve" smooth="yes"/>
      <point x="80" y="736"/>
      <point x="61" y="718"/>
      <point x="61" y="694" type="curve" smooth="yes"/>
      <point x="61" y="688"/>
      <point x="61" y="683"/>
      <point x="62" y="677" type="curve" smooth="yes"/>
    </contour>
    <contour>
      <point x="274" y="498" type="line"/>
      <point x="296" y="498" type="line"/>
      <point x="327" y="677" type="line" smooth="yes"/>
      <point x="328" y="682"/>
      <point x="328" y="688"/>
      <point x="328" y="693" type="curve" smooth="yes"/>
      <point x="328" y="718"/>
      <point x="310" y="736"/>
      <point x="285" y="736" type="curve" smooth="yes"/>
      <point x="261" y="736"/>
      <point x="242" y="718"/>
      <point x="242" y="693" type="curve" smooth="yes"/>
      <point x="242" y="687"/>
      <point x="242" y="683"/>
      <point x="243" y="677" type="curve" smooth="yes"/>
    </contour>
  </outline>
</glyph>
<glyph name="numbersign" format="1">
  <advance width="556"/>
  <unicode hex="0023"/>
  <outline>
    <contour>
      <point x="135" y="228" type="line"/>
      <point x="102" y="0" type="line"/>
      <point x="167" y="0" type="line"/>
      <point x="200" y="228" type="line"/>
      <point x="323" y="228" type="line"/>
      <point x="290" y="0" type="line"/>
      <point x="355" y="0" type="line"/>
      <point x="388" y="228" type="line"/>
      <point x="497" y="228" type="line"/>
      <point x="497" y="284" type="line"/>
      <point x="396" y="284" type="line"/>
      <point x="415" y="416" type="line"/>
      <point x="524" y="416" type="line"/>
      <point x="524" y="472" type="line"/>
      <point x="423" y="472" type="line"/>
      <point x="454" y="686" type="line"/>
      <point x="389" y="686" type="line"/>
      <point x="358" y="472" type="line"/>
      <point x="235" y="472" type="line"/>
      <point x="266" y="686" type="line"/>
      <point x="201" y="686" type="line"/>
      <point x="170" y="472" type="line"/>
      <point x="60" y="472" type="line"/>
      <point x="60" y="416" type="line"/>
      <point x="162" y="416" type="line"/>
      <point x="143" y="284" type="line"/>
      <point x="33" y="284" type="line"/>
      <point x="33" y="228" type="line"/>
    </contour>
    <contour>
      <point x="227" y="416" type="line"/>
      <point x="350" y="416" type="line"/>
      <point x="331" y="284" type="line"/>
      <point x="208" y="284" type="line"/>
    </contour>
  </outline>
</glyph>
<glyph name="dollar" format="1">
  <advance width="556"/>
  <unicode hex="0024"/>
  <outline>
    <contour>
      <point x="298" y="801" type="line"/>
      <point x="251" y="801" type="line"/>
      <point x="251" y="696" type="line"/>
      <point x="129" y="681"/>
      <point x="58" y="611"/>
      <point x="58" y="507" type="curve" smooth="yes"/>
      <point x="58" y="442"/>
      <point x="88" y="387"/>
      <point x="142" y="354" type="curve" smooth="yes"/>
      <point x="168" y="339"/>
      <point x="198" y="327"/>
      <point x="251" y="311" type="curve"/>
      <point x="251" y="32" type="line"/>
      <point x="179" y="37"/>
      <point x="123" y="65"/>
      <point x="123" y="96" type="curve" smooth="yes"/>
      <point x="123" y="101"/>
      <point x="125" y="104"/>
      <point x="131" y="107" type="curve"/>
      <point x="165" y="127"/>
      <point x="177" y="143"/>
      <point x="177" y="172" type="curve" smooth="yes"/>
      <point x="177" y="207"/>
      <point x="150" y="234"/>
      <point x="116" y="234" type="curve" smooth="yes"/>
      <point x="75" y="234"/>
      <point x="45" y="198"/>
      <point x="45" y="148" type="curve" smooth="yes"/>
      <point x="45" y="82"/>
      <point x="90" y="27"/>
      <point x="163" y="3" type="curve" smooth="yes"/>
      <point x="191" y="-6"/>
      <point x="210" y="-9"/>
      <point x="251" y="-11" type="curve"/>
      <point x="251" y="-130" type="line"/>
      <point x="298" y="-130" type="line"/>
      <point x="298" y="-10" type="line"/>
      <point x="430" y="-3"/>
      <point x="510" y="76"/>
      <point x="510" y="202" type="curve" smooth="yes"/>
      <point x="510" y="255"/>
      <point x="494" y="297"/>
      <point x="463" y="328" type="curve" smooth="yes"/>
      <point x="432" y="358"/>
      <point x="395" y="376"/>
      <point x="321" y="398" type="curve" smooth="yes"/>
      <point x="307" y="402"/>
      <point x="304" y="403"/>
      <point x="298" y="405" type="curve"/>
      <point x="298" y="652" type="line"/>
      <point x="352" y="647"/>
      <point x="400" y="624"/>
      <point x="400" y="603" type="curve" smooth="yes"/>
      <point x="400" y="600"/>
      <point x="397" y="596"/>
      <point x="394" y="593" type="curve"/>
      <point x="365" y="572"/>
      <point x="358" y="561"/>
      <point x="358" y="538" type="curve" smooth="yes"/>
      <point x="358" y="503"/>
      <point x="382" y="480"/>
      <point x="418" y="480" type="curve" smooth="yes"/>
      <point x="456" y="480"/>
      <point x="480" y="506"/>
      <point x="480" y="550" type="curve" smooth="yes"/>
      <point x="480" y="630"/>
      <point x="407" y="689"/>
      <point x="298" y="697" type="curve"/>
    </contour>
    <contour>
      <point x="251" y="420" type="line"/>
      <point x="163" y="449"/>
      <point x="130" y="481"/>
      <point x="130" y="539" type="curve" smooth="yes"/>
      <point x="130" y="598"/>
      <point x="180" y="644"/>
      <point x="251" y="650" type="curve"/>
    </contour>
    <contour>
      <point x="298" y="298" type="line"/>
      <point x="327" y="290"/>
      <point x="327" y="290"/>
      <point x="340" y="285" type="curve" smooth="yes"/>
      <point x="403" y="261"/>
      <point x="436" y="220"/>
      <point x="436" y="166" type="curve" smooth="yes"/>
      <point x="436" y="115"/>
      <point x="403" y="67"/>
      <point x="353" y="46" type="curve" smooth="yes"/>
      <point x="336" y="39"/>
      <point x="324" y="36"/>
      <point x="298" y="33" type="curve"/>
    </contour>
  </outline>
</glyph>
<glyph name="percent" format="1">
  <advance width="833"/>
  <unicode hex="0025"/>
  <outline>
    <contour>
      <point x="650" y="722" type="line"/>
      <point x="604" y="722" type="line"/>
      <point x="564" y="668"/>
      <point x="506" y="639"/>
      <point x="442" y="639" type="curve" smooth="yes"/>
      <point x="417" y="639"/>
      <point x="399" y="644"/>
      <point x="369" y="661" type="curve"/>
      <point x="343" y="695"/>
      <point x="318" y="708"/>
      <point x="278" y="708" type="curve" smooth="yes"/>
      <point x="235" y="708"/>
      <point x="190" y="689"/>
      <point x="151" y="656" type="curve" smooth="yes"/>
      <point x="92" y="605"/>
      <point x="45" y="512"/>
      <point x="45" y="445" type="curve" smooth="yes"/>
      <point x="45" y="373"/>
      <point x="99" y="321"/>
      <point x="173" y="321" type="curve" smooth="yes"/>
      <point x="229" y="321"/>
      <point x="275" y="345"/>
      <point x="319" y="397" type="curve" smooth="yes"/>
      <point x="362" y="448"/>
      <point x="390" y="521"/>
      <point x="390" y="582" type="curve" smooth="yes"/>
      <point x="390" y="591"/>
      <point x="389" y="599"/>
      <point x="387" y="614" type="curve"/>
      <point x="412" y="605"/>
      <point x="429" y="602"/>
      <point x="450" y="602" type="curve" smooth="yes"/>
      <point x="484" y="602"/>
      <point x="509" y="609"/>
      <point x="546" y="631" type="curve"/>
      <point x="186" y="0" type="line"/>
      <point x="236" y="0" type="line"/>
    </contour>
    <contour>
      <point x="286" y="669" type="curve"/>
      <point x="304" y="648"/>
      <point x="319" y="638"/>
      <point x="347" y="628" type="curve"/>
      <point x="352" y="612"/>
      <point x="353" y="602"/>
      <point x="353" y="587" type="curve" smooth="yes"/>
      <point x="353" y="477"/>
      <point x="268" y="359"/>
      <point x="188" y="359" type="curve" smooth="yes"/>
      <point x="155" y="359"/>
      <point x="132" y="383"/>
      <point x="132" y="418" type="curve" smooth="yes"/>
      <point x="132" y="455"/>
      <point x="147" y="494"/>
      <point x="194" y="576" type="curve" smooth="yes"/>
      <point x="232" y="643"/>
      <point x="245" y="655"/>
    </contour>
    <contour>
      <point x="675" y="401" type="curve" smooth="yes"/>
      <point x="616" y="401"/>
      <point x="560" y="370"/>
      <point x="514" y="314" type="curve" smooth="yes"/>
      <point x="472" y="261"/>
      <point x="445" y="192"/>
      <point x="445" y="136" type="curve" smooth="yes"/>
      <point x="445" y="66"/>
      <point x="500" y="15"/>
      <point x="575" y="15" type="curve" smooth="yes"/>
      <point x="627" y="15"/>
      <point x="679" y="42"/>
      <point x="716" y="89" type="curve" smooth="yes"/>
      <point x="762" y="146"/>
      <point x="792" y="223"/>
      <point x="792" y="282" type="curve" smooth="yes"/>
      <point x="792" y="351"/>
      <point x="743" y="401"/>
    </contour>
    <contour>
      <point x="692" y="361" type="curve" smooth="yes"/>
      <point x="726" y="361"/>
      <point x="754" y="325"/>
      <point x="754" y="280" type="curve" smooth="yes"/>
      <point x="754" y="171"/>
      <point x="666" y="54"/>
      <point x="586" y="54" type="curve" smooth="yes"/>
      <point x="555" y="54"/>
      <point x="530" y="79"/>
      <point x="530" y="111" type="curve" smooth="yes"/>
      <point x="530" y="151"/>
      <point x="551" y="202"/>
      <point x="604" y="288" type="curve" smooth="yes"/>
      <point x="635" y="339"/>
      <point x="661" y="361"/>
    </contour>
  </outline>
</glyph>
<glyph name="ampersand" format="1">
  <advance width="815"/>
  <unicode hex="0026"/>
  <outline>
    <contour>
      <point x="731" y="169" type="line"/>
      <point x="719" y="106"/>
      <point x="686" y="68"/>
      <point x="642" y="68" type="curve" smooth="yes"/>
      <point x="605" y="68"/>
      <point x="572" y="86"/>
      <point x="532" y="129" type="curve"/>
      <point x="574" y="181"/>
      <point x="576" y="185"/>
      <point x="598" y="225" type="curve" smooth="yes"/>
      <point x="647" y="316"/>
      <point x="647" y="316"/>
      <point x="664" y="334" type="curve"/>
      <point x="682" y="351"/>
      <point x="710" y="361"/>
      <point x="742" y="361" type="curve" smooth="yes"/>
      <point x="753" y="361" type="line"/>
      <point x="753" y="404" type="line"/>
      <point x="471" y="404" type="line"/>
      <point x="471" y="361" type="line"/>
      <point x="481" y="361" type="line" smooth="yes"/>
      <point x="540" y="361"/>
      <point x="571" y="345"/>
      <point x="571" y="314" type="curve" smooth="yes"/>
      <point x="571" y="271"/>
      <point x="544" y="213"/>
      <point x="501" y="163" type="curve"/>
      <point x="452" y="221"/>
      <point x="400" y="301"/>
      <point x="340" y="411" type="curve"/>
      <point x="394" y="435"/>
      <point x="411" y="444"/>
      <point x="437" y="462" type="curve" smooth="yes"/>
      <point x="483" y="494"/>
      <point x="513" y="549"/>
      <point x="513" y="602" type="curve" smooth="yes"/>
      <point x="513" y="682"/>
      <point x="450" y="737"/>
      <point x="357" y="737" type="curve" smooth="yes"/>
      <point x="252" y="737"/>
      <point x="182" y="666"/>
      <point x="182" y="560" type="curve" smooth="yes"/>
      <point x="182" y="516"/>
      <point x="193" y="477"/>
      <point x="224" y="411" type="curve"/>
      <point x="112" y="357"/>
      <point x="51" y="279"/>
      <point x="51" y="189" type="curve" smooth="yes"/>
      <point x="51" y="140"/>
      <point x="73" y="84"/>
      <point x="108" y="46" type="curve" smooth="yes"/>
      <point x="145" y="6"/>
      <point x="199" y="-15"/>
      <point x="266" y="-15" type="curve" smooth="yes"/>
      <point x="338" y="-15"/>
      <point x="393" y="6"/>
      <point x="458" y="56" type="curve"/>
      <point x="506" y="7"/>
      <point x="545" y="-11"/>
      <point x="600" y="-11" type="curve" smooth="yes"/>
      <point x="664" y="-11"/>
      <point x="706" y="12"/>
      <point x="741" y="65" type="curve" smooth="yes"/>
      <point x="761" y="95"/>
      <point x="770" y="124"/>
      <point x="775" y="163" type="curve"/>
    </contour>
    <contour>
      <point x="319" y="453" type="curve"/>
      <point x="290" y="513"/>
      <point x="276" y="558"/>
      <point x="276" y="595" type="curve" smooth="yes"/>
      <point x="276" y="653"/>
      <point x="309" y="694"/>
      <point x="354" y="694" type="curve" smooth="yes"/>
      <point x="400" y="694"/>
      <point x="433" y="655"/>
      <point x="433" y="600" type="curve" smooth="yes"/>
      <point x="433" y="543"/>
      <point x="405" y="499"/>
      <point x="348" y="468" type="curve"/>
      <point x="340" y="463"/>
      <point x="339" y="463"/>
    </contour>
    <contour>
      <point x="243" y="370" type="curve"/>
      <point x="309" y="240"/>
      <point x="342" y="189"/>
      <point x="427" y="90" type="curve"/>
      <point x="383" y="62"/>
      <point x="359" y="53"/>
      <point x="326" y="53" type="curve" smooth="yes"/>
      <point x="238" y="53"/>
      <point x="158" y="143"/>
      <point x="158" y="243" type="curve" smooth="yes"/>
      <point x="158" y="298"/>
      <point x="183" y="335"/>
    </contour>
  </outline>
</glyph>
<glyph name="quotesingle" format="1">
  <advance width="204"/>
  <unicode hex="0027"/>
  <outline>
    <contour>
      <point x="91" y="498" type="line"/>
      <point x="113" y="498" type="line"/>
      <point x="144" y="677" type="line" smooth="yes"/>
      <point x="145" y="682"/>
      <point x="145" y="687"/>
      <point x="145" y="693" type="curve" smooth="yes"/>
      <point x="145" y="718"/>
      <point x="127" y="736"/>
      <point x="102" y="736" type="curve" smooth="yes"/>
      <point x="78" y="736"/>
      <point x="59" y="718"/>
      <point x="59" y="694" type="curve" smooth="yes"/>
      <point x="59" y="688"/>
      <point x="59" y="683"/>
      <point x="60" y="677" type="curve" smooth="yes"/>
    </contour>
  </outline>
</glyph>
<glyph name="parenleft" format="1">
  <advance width="333"/>
  <unicode hex="0028"/>
  <outline>
    <contour>
      <point x="279" y="736" type="line"/>
      <point x="219" y="699"/>
      <point x="187" y="673"/>
      <point x="153" y="633" type="curve" smooth="yes"/>
      <point x="77" y="543"/>
      <point x="36" y="428"/>
      <point x="36" y="307" type="curve" smooth="yes"/>
      <point x="36" y="193"/>
      <point x="72" y="86"/>
      <point x="139" y="-3" type="curve" smooth="yes"/>
      <point x="177" y="-51"/>
      <point x="211" y="-81"/>
      <point x="279" y="-123" type="curve"/>
      <point x="279" y="-86" type="line"/>
      <point x="179" y="2"/>
      <point x="139" y="115"/>
      <point x="139" y="307" type="curve" smooth="yes"/>
      <point x="139" y="499"/>
      <point x="179" y="611"/>
      <point x="279" y="699" type="curve"/>
    </contour>
  </outline>
</glyph>
<glyph name="parenright" format="1">
  <advance width="333"/>
  <unicode hex="0029"/>
  <outline>
    <contour>
      <point x="54" y="-123" type="line"/>
      <point x="114" y="-86"/>
      <point x="146" y="-60"/>
      <point x="180" y="-19" type="curve" smooth="yes"/>
      <point x="256" y="70"/>
      <point x="297" y="186"/>
      <point x="297" y="307" type="curve" smooth="yes"/>
      <point x="297" y="421"/>
      <point x="261" y="528"/>
      <point x="194" y="616" type="curve" smooth="yes"/>
      <point x="156" y="665"/>
      <point x="122" y="695"/>
      <point x="54" y="736" type="curve"/>
      <point x="54" y="699" type="line"/>
      <point x="154" y="611"/>
      <point x="194" y="499"/>
      <point x="194" y="307" type="curve" smooth="yes"/>
      <point x="194" y="114"/>
      <point x="154" y="2"/>
      <point x="54" y="-86" type="curve"/>
    </contour>
  </outline>
</glyph>
<glyph name="asterisk" format="1">
  <advance width="500"/>
  <unicode hex="002A"/>
  <outline>
    <contour>
      <point x="239" y="537" type="line"/>
      <point x="208" y="555" type="line" smooth="yes"/>
      <point x="182" y="570"/>
      <point x="169" y="583"/>
      <point x="142" y="620" type="curve" smooth="yes"/>
      <point x="127" y="641"/>
      <point x="116" y="648"/>
      <point x="98" y="648" type="curve" smooth="yes"/>
      <point x="75" y="648"/>
      <point x="56" y="630"/>
      <point x="56" y="609" type="curve" smooth="yes"/>
      <point x="56" y="581"/>
      <point x="74" y="564"/>
      <point x="108" y="561" type="curve" smooth="yes"/>
      <point x="154" y="556"/>
      <point x="170" y="552"/>
      <point x="197" y="536" type="curve" smooth="yes"/>
      <point x="228" y="518" type="line"/>
      <point x="197" y="501" type="line" smooth="yes"/>
      <point x="169" y="485"/>
      <point x="155" y="481"/>
      <point x="108" y="476" type="curve" smooth="yes"/>
      <point x="74" y="472"/>
      <point x="56" y="456"/>
      <point x="56" y="428" type="curve" smooth="yes"/>
      <point x="56" y="406"/>
      <point x="75" y="389"/>
      <point x="98" y="389" type="curve" smooth="yes"/>
      <point x="116" y="389"/>
      <point x="127" y="396"/>
      <point x="142" y="416" type="curve" smooth="yes"/>
      <point x="169" y="454"/>
      <point x="180" y="465"/>
      <point x="208" y="482" type="curve" smooth="yes"/>
      <point x="239" y="500" type="line"/>
      <point x="239" y="464" type="line" smooth="yes"/>
      <point x="239" y="432"/>
      <point x="237" y="423"/>
      <point x="215" y="374" type="curve" smooth="yes"/>
      <point x="210" y="362"/>
      <point x="207" y="351"/>
      <point x="207" y="344" type="curve" smooth="yes"/>
      <point x="207" y="322"/>
      <point x="228" y="300"/>
      <point x="249" y="300" type="curve" smooth="yes"/>
      <point x="270" y="300"/>
      <point x="291" y="322"/>
      <point x="291" y="343" type="curve" smooth="yes"/>
      <point x="291" y="351"/>
      <point x="288" y="362"/>
      <point x="283" y="374" type="curve" smooth="yes"/>
      <point x="263" y="422"/>
      <point x="260" y="432"/>
      <point x="260" y="464" type="curve" smooth="yes"/>
      <point x="260" y="500" type="line"/>
      <point x="291" y="482" type="line" smooth="yes"/>
      <point x="318" y="466"/>
      <point x="330" y="454"/>
      <point x="357" y="417" type="curve" smooth="yes"/>
      <point x="372" y="396"/>
      <point x="383" y="389"/>
      <point x="401" y="389" type="curve" smooth="yes"/>
      <point x="424" y="389"/>
      <point x="443" y="406"/>
      <point x="443" y="428" type="curve" smooth="yes"/>
      <point x="443" y="456"/>
      <point x="425" y="472"/>
      <point x="391" y="476" type="curve" smooth="yes"/>
      <point x="343" y="481"/>
      <point x="330" y="485"/>
      <point x="302" y="500" type="curve" smooth="yes"/>
      <point x="271" y="518" type="line"/>
      <point x="302" y="536" type="line" smooth="yes"/>
      <point x="330" y="552"/>
      <point x="345" y="556"/>
      <point x="391" y="561" type="curve" smooth="yes"/>
      <point x="425" y="565"/>
      <point x="443" y="581"/>
      <point x="443" y="609" type="curve" smooth="yes"/>
      <point x="443" y="631"/>
      <point x="424" y="648"/>
      <point x="401" y="648" type="curve" smooth="yes"/>
      <point x="383" y="648"/>
      <point x="372" y="641"/>
      <point x="357" y="620" type="curve" smooth="yes"/>
      <point x="330" y="583"/>
      <point x="318" y="571"/>
      <point x="291" y="555" type="curve" smooth="yes"/>
      <point x="260" y="537" type="line"/>
      <point x="260" y="573" type="line" smooth="yes"/>
      <point x="260" y="597"/>
      <point x="264" y="618"/>
      <point x="274" y="640" type="curve" smooth="yes"/>
      <point x="290" y="678"/>
      <point x="291" y="682"/>
      <point x="291" y="692" type="curve" smooth="yes"/>
      <point x="291" y="715"/>
      <point x="270" y="736"/>
      <point x="249" y="736" type="curve" smooth="yes"/>
      <point x="228" y="736"/>
      <point x="208" y="714"/>
      <point x="208" y="692" type="curve" smooth="yes"/>
      <point x="208" y="685"/>
      <point x="211" y="674"/>
      <point x="216" y="662" type="curve" smooth="yes"/>
      <point x="237" y="613"/>
      <point x="239" y="605"/>
      <point x="239" y="573" type="curve" smooth="yes"/>
    </contour>
  </outline>
</glyph>
<glyph name="plus" format="1">
  <advance width="606"/>
  <unicode hex="002B"/>
  <outline>
    <contour>
      <point x="263" y="293" type="line"/>
      <point x="51" y="293" type="line"/>
      <point x="51" y="213" type="line"/>
      <point x="263" y="213" type="line"/>
      <point x="263" y="0" type="line"/>
      <point x="343" y="0" type="line"/>
      <point x="343" y="213" type="line"/>
      <point x="555" y="213" type="line"/>
      <point x="555" y="293" type="line"/>
      <point x="343" y="293" type="line"/>
      <point x="343" y="505" type="line"/>
      <point x="263" y="505" type="line"/>
    </contour>
  </outline>
</glyph>
<glyph name="comma" format="1">
  <advance width="278"/>
  <unicode hex="002C"/>
  <outline>
    <contour>
      <point x="87" y="-183" type="line"/>
      <point x="176" y="-122"/>
      <point x="218" y="-61"/>
      <point x="218" y="9" type="curve" smooth="yes"/>
      <point x="218" y="69"/>
      <point x="185" y="108"/>
      <point x="136" y="108" type="curve" smooth="yes"/>
      <point x="99" y="108"/>
      <point x="71" y="82"/>
      <point x="71" y="48" type="curve" smooth="yes"/>
      <point x="71" y="12"/>
      <point x="98" y="-11"/>
      <point x="139" y="-11" type="curve" smooth="yes"/>
      <point x="143" y="-11"/>
      <point x="153" y="-11"/>
      <point x="155" y="-10" type="curve"/>
      <point x="158" y="-10" type="line" smooth="yes"/>
      <point x="163" y="-10"/>
      <point x="165" y="-13"/>
      <point x="165" y="-19" type="curve" smooth="yes"/>
      <point x="165" y="-61"/>
      <point x="131" y="-108"/>
      <point x="64" y="-155" type="curve"/>
    </contour>
  </outline>
</glyph>
<glyph name="hyphen" format="1">
  <advance width="333"/>
  <unicode hex="002D"/>
  <outline>
    <contour>
      <point x="42" y="278" type="line"/>
      <point x="42" y="195" type="line"/>
      <point x="291" y="195" type="line"/>
      <point x="291" y="278" type="line"/>
    </contour>
  </outline>
</glyph>
<glyph name="period" format="1">
  <advance width="278"/>
  <unicode hex="002E"/>
  <outline>
    <contour>
      <point x="137" y="111" type="curve" smooth="yes"/>
      <point x="102" y="111"/>
      <point x="74" y="83"/>
      <point x="74" y="49" type="curve" smooth="yes"/>
      <point x="74" y="14"/>
      <point x="102" y="-14"/>
      <point x="136" y="-14" type="curve" smooth="yes"/>
      <point x="171" y="-14"/>
      <point x="199" y="14"/>
      <point x="199" y="49" type="curve" smooth="yes"/>
      <point x="199" y="83"/>
      <point x="171" y="111"/>
    </contour>
  </outline>
</glyph>
<glyph name="slash" format="1">
  <advance width="278"/>
  <unicode hex="002F"/>
  <outline>
    <contour>
      <point x="244" y="736" type="line"/>
      <point x="-23" y="-14" type="line"/>
      <point x="35" y="-14" type="line"/>
      <point x="302" y="736" type="line"/>
    </contour>
  </outline>
</glyph>
<glyph name="zero" format="1">
  <advance width="556"/>
  <unicode hex="0030"/>
  <outline>
    <contour>
      <point x="284" y="704" type="curve" smooth="yes"/>
      <point x="144" y="704"/>
      <point x="42" y="551"/>
      <point x="42" y="342" type="curve" smooth="yes"/>
      <point x="42" y="136"/>
      <point x="141" y="-15"/>
      <point x="276" y="-15" type="curve" smooth="yes"/>
      <point x="416" y="-15"/>
      <point x="514" y="131"/>
      <point x="514" y="339" type="curve" smooth="yes"/>
      <point x="514" y="445"/>
      <point x="492" y="533"/>
      <point x="450" y="602" type="curve" smooth="yes"/>
      <point x="411" y="665"/>
      <point x="347" y="704"/>
    </contour>
    <contour>
      <point x="277" y="661" type="curve" smooth="yes"/>
      <point x="310" y="661"/>
      <point x="342" y="639"/>
      <point x="366" y="599" type="curve" smooth="yes"/>
      <point x="393" y="553"/>
      <point x="402" y="494"/>
      <point x="402" y="357" type="curve" smooth="yes"/>
      <point x="402" y="217"/>
      <point x="395" y="151"/>
      <point x="375" y="107" type="curve" smooth="yes"/>
      <point x="352" y="58"/>
      <point x="316" y="28"/>
      <point x="278" y="28" type="curve" smooth="yes"/>
      <point x="245" y="28"/>
      <point x="213" y="50"/>
      <point x="189" y="90" type="curve" smooth="yes"/>
      <point x="161" y="137"/>
      <point x="153" y="200"/>
      <point x="153" y="363" type="curve" smooth="yes"/>
      <point x="153" y="479"/>
      <point x="160" y="538"/>
      <point x="180" y="581" type="curve" smooth="yes"/>
      <point x="203" y="632"/>
      <point x="239" y="661"/>
    </contour>
  </outline>
</glyph>
<glyph name="one" format="1">
  <advance width="556"/>
  <unicode hex="0031"/>
  <outline>
    <contour>
      <point x="322" y="704" type="line"/>
      <point x="288" y="663"/>
      <point x="196" y="632"/>
      <point x="104" y="630" type="curve"/>
      <point x="104" y="587" type="line"/>
      <point x="192" y="587" type="line" smooth="yes"/>
      <point x="250" y="587"/>
      <point x="254" y="583"/>
      <point x="254" y="524" type="curve" smooth="yes"/>
      <point x="254" y="123" type="line"/>
      <point x="254" y="94" type="line" smooth="yes"/>
      <point x="254" y="52"/>
      <point x="245" y="47"/>
      <point x="165" y="47" type="curve" smooth="yes"/>
      <point x="100" y="47" type="line"/>
      <point x="100" y="0" type="line"/>
      <point x="496" y="0" type="line"/>
      <point x="496" y="47" type="line"/>
      <point x="441" y="47" type="line" smooth="yes"/>
      <point x="388" y="47"/>
      <point x="366" y="51"/>
      <point x="358" y="61" type="curve"/>
      <point x="351" y="68"/>
      <point x="351" y="68"/>
      <point x="351" y="123" type="curve" smooth="yes"/>
      <point x="351" y="536" type="line" smooth="yes"/>
      <point x="351" y="585"/>
      <point x="353" y="633"/>
      <point x="358" y="704" type="curve"/>
    </contour>
  </outline>
</glyph>
<glyph name="two" format="1">
  <advance width="556"/>
  <unicode hex="0032"/>
  <outline>
    <contour>
      <point x="505" y="216" type="line"/>
      <point x="461" y="216" type="line"/>
      <point x="451" y="165" type="line" smooth="yes"/>
      <point x="438" y="101"/>
      <point x="430" y="94"/>
      <point x="368" y="94" type="curve" smooth="yes"/>
      <point x="144" y="94" type="line"/>
      <point x="213" y="166"/>
      <point x="236" y="187"/>
      <point x="300" y="237" type="curve" smooth="yes"/>
      <point x="391" y="307"/>
      <point x="430" y="342"/>
      <point x="453" y="372" type="curve" smooth="yes"/>
      <point x="485" y="416"/>
      <point x="501" y="461"/>
      <point x="501" y="509" type="curve" smooth="yes"/>
      <point x="501" y="622"/>
      <point x="406" y="704"/>
      <point x="276" y="704" type="curve" smooth="yes"/>
      <point x="149" y="704"/>
      <point x="51" y="622"/>
      <point x="51" y="516" type="curve" smooth="yes"/>
      <point x="51" y="453"/>
      <point x="83" y="410"/>
      <point x="131" y="410" type="curve" smooth="yes"/>
      <point x="168" y="410"/>
      <point x="193" y="435"/>
      <point x="193" y="471" type="curve" smooth="yes"/>
      <point x="193" y="496"/>
      <point x="179" y="519"/>
      <point x="157" y="528" type="curve" smooth="yes"/>
      <point x="120" y="544"/>
      <point x="118" y="545"/>
      <point x="118" y="558" type="curve" smooth="yes"/>
      <point x="118" y="573"/>
      <point x="128" y="596"/>
      <point x="142" y="613" type="curve" smooth="yes"/>
      <point x="167" y="643"/>
      <point x="209" y="661"/>
      <point x="256" y="661" type="curve" smooth="yes"/>
      <point x="338" y="661"/>
      <point x="388" y="610"/>
      <point x="388" y="526" type="curve" smooth="yes"/>
      <point x="388" y="452"/>
      <point x="353" y="385"/>
      <point x="270" y="297" type="curve" smooth="yes"/>
      <point x="211" y="235" type="line"/>
      <point x="133" y="151" type="line" smooth="yes"/>
      <point x="97" y="109"/>
      <point x="79" y="86"/>
      <point x="35" y="28" type="curve"/>
      <point x="35" y="0" type="line"/>
      <point x="486" y="0" type="line"/>
    </contour>
  </outline>
</glyph>
<glyph name="three" format="1">
  <advance width="556"/>
  <unicode hex="0033"/>
  <outline>
    <contour>
      <point x="346" y="368" type="curve"/>
      <point x="360" y="373"/>
      <point x="362" y="373"/>
      <point x="369" y="376" type="curve" smooth="yes"/>
      <point x="439" y="405"/>
      <point x="479" y="461"/>
      <point x="479" y="532" type="curve" smooth="yes"/>
      <point x="479" y="636"/>
      <point x="399" y="704"/>
      <point x="275" y="704" type="curve" smooth="yes"/>
      <point x="158" y="704"/>
      <point x="69" y="635"/>
      <point x="69" y="544" type="curve" smooth="yes"/>
      <point x="69" y="503"/>
      <point x="97" y="474"/>
      <point x="135" y="474" type="curve" smooth="yes"/>
      <point x="170" y="474"/>
      <point x="194" y="498"/>
      <point x="194" y="534" type="curve" smooth="yes"/>
      <point x="194" y="555"/>
      <point x="186" y="569"/>
      <point x="163" y="585" type="curve" smooth="yes"/>
      <point x="153" y="592"/>
      <point x="150" y="597"/>
      <point x="150" y="603" type="curve" smooth="yes"/>
      <point x="150" y="631"/>
      <point x="209" y="661"/>
      <point x="265" y="661" type="curve" smooth="yes"/>
      <point x="337" y="661"/>
      <point x="375" y="616"/>
      <point x="375" y="531" type="curve" smooth="yes"/>
      <point x="375" y="438"/>
      <point x="337" y="389"/>
      <point x="265" y="389" type="curve" smooth="yes"/>
      <point x="256" y="389"/>
      <point x="240" y="390"/>
      <point x="225" y="391" type="curve"/>
      <point x="217" y="392"/>
      <point x="209" y="392"/>
      <point x="203" y="392" type="curve" smooth="yes"/>
      <point x="182" y="392"/>
      <point x="171" y="383"/>
      <point x="171" y="365" type="curve" smooth="yes"/>
      <point x="171" y="348"/>
      <point x="182" y="340"/>
      <point x="202" y="340" type="curve" smooth="yes"/>
      <point x="205" y="340"/>
      <point x="213" y="340"/>
      <point x="226" y="341" type="curve"/>
      <point x="264" y="342"/>
      <point x="265" y="342"/>
      <point x="273" y="342" type="curve" smooth="yes"/>
      <point x="347" y="342"/>
      <point x="387" y="289"/>
      <point x="387" y="190" type="curve" smooth="yes"/>
      <point x="387" y="87"/>
      <point x="336" y="28"/>
      <point x="247" y="28" type="curve" smooth="yes"/>
      <point x="184" y="28"/>
      <point x="116" y="62"/>
      <point x="116" y="93" type="curve" smooth="yes"/>
      <point x="116" y="102"/>
      <point x="118" y="104"/>
      <point x="138" y="115" type="curve" smooth="yes"/>
      <point x="166" y="132"/>
      <point x="177" y="149"/>
      <point x="177" y="174" type="curve" smooth="yes"/>
      <point x="177" y="210"/>
      <point x="150" y="237"/>
      <point x="113" y="237" type="curve" smooth="yes"/>
      <point x="71" y="237"/>
      <point x="42" y="201"/>
      <point x="42" y="149" type="curve" smooth="yes"/>
      <point x="42" y="52"/>
      <point x="131" y="-15"/>
      <point x="259" y="-15" type="curve" smooth="yes"/>
      <point x="403" y="-15"/>
      <point x="498" y="65"/>
      <point x="498" y="188" type="curve" smooth="yes"/>
      <point x="498" y="282"/>
      <point x="449" y="339"/>
    </contour>
  </outline>
</glyph>
<glyph name="four" format="1">
  <advance width="556"/>
  <unicode hex="0034"/>
  <outline>
    <contour>
      <point x="368" y="704" type="line"/>
      <point x="28" y="231" type="line"/>
      <point x="28" y="175" type="line"/>
      <point x="309" y="175" type="line"/>
      <point x="309" y="123" type="line"/>
      <point x="309" y="94" type="line" smooth="yes"/>
      <point x="309" y="52"/>
      <point x="300" y="47"/>
      <point x="219" y="47" type="curve" smooth="yes"/>
      <point x="208" y="47" type="line"/>
      <point x="208" y="0" type="line"/>
      <point x="500" y="0" type="line"/>
      <point x="500" y="47" type="line"/>
      <point x="496" y="47" type="line" smooth="yes"/>
      <point x="415" y="47"/>
      <point x="406" y="52"/>
      <point x="406" y="94" type="curve" smooth="yes"/>
      <point x="406" y="123" type="line"/>
      <point x="406" y="175" type="line"/>
      <point x="527" y="175" type="line"/>
      <point x="527" y="231" type="line"/>
      <point x="406" y="231" type="line"/>
      <point x="406" y="504" type="line" smooth="yes"/>
      <point x="406" y="629"/>
      <point x="406" y="629"/>
      <point x="411" y="704" type="curve"/>
    </contour>
    <contour>
      <point x="309" y="231" type="line"/>
      <point x="89" y="231" type="line"/>
      <point x="309" y="534" type="line"/>
    </contour>
  </outline>
</glyph>
<glyph name="five" format="1">
  <advance width="556"/>
  <unicode hex="0035"/>
  <outline>
    <contour>
      <point x="164" y="591" type="line"/>
      <point x="218" y="578"/>
      <point x="246" y="574"/>
      <point x="285" y="574" type="curve" smooth="yes"/>
      <point x="370" y="574"/>
      <point x="432" y="604"/>
      <point x="465" y="659" type="curve" smooth="yes"/>
      <point x="476" y="678"/>
      <point x="480" y="687"/>
      <point x="480" y="695" type="curve" smooth="yes"/>
      <point x="480" y="701"/>
      <point x="477" y="704"/>
      <point x="472" y="704" type="curve" smooth="yes"/>
      <point x="469" y="704"/>
      <point x="464" y="703"/>
      <point x="459" y="700" type="curve"/>
      <point x="410" y="679"/>
      <point x="383" y="674"/>
      <point x="326" y="674" type="curve" smooth="yes"/>
      <point x="262" y="674"/>
      <point x="225" y="679"/>
      <point x="120" y="704" type="curve"/>
      <point x="116" y="620"/>
      <point x="107" y="513"/>
      <point x="93" y="389" type="curve"/>
      <point x="72" y="367"/>
      <point x="65" y="354"/>
      <point x="65" y="338" type="curve" smooth="yes"/>
      <point x="65" y="318"/>
      <point x="78" y="304"/>
      <point x="97" y="304" type="curve" smooth="yes"/>
      <point x="122" y="304"/>
      <point x="138" y="325"/>
      <point x="142" y="365" type="curve"/>
      <point x="177" y="390"/>
      <point x="210" y="401"/>
      <point x="250" y="401" type="curve" smooth="yes"/>
      <point x="339" y="401"/>
      <point x="393" y="332"/>
      <point x="393" y="218" type="curve" smooth="yes"/>
      <point x="393" y="151"/>
      <point x="376" y="94"/>
      <point x="346" y="63" type="curve" smooth="yes"/>
      <point x="326" y="42"/>
      <point x="285" y="28"/>
      <point x="244" y="28" type="curve" smooth="yes"/>
      <point x="184" y="28"/>
      <point x="122" y="59"/>
      <point x="122" y="90" type="curve" smooth="yes"/>
      <point x="122" y="97"/>
      <point x="128" y="105"/>
      <point x="140" y="112" type="curve" smooth="yes"/>
      <point x="171" y="131"/>
      <point x="180" y="144"/>
      <point x="180" y="171" type="curve" smooth="yes"/>
      <point x="180" y="206"/>
      <point x="153" y="233"/>
      <point x="117" y="233" type="curve" smooth="yes"/>
      <point x="77" y="233"/>
      <point x="45" y="196"/>
      <point x="45" y="149" type="curve" smooth="yes"/>
      <point x="45" y="99"/>
      <point x="74" y="49"/>
      <point x="119" y="18" type="curve" smooth="yes"/>
      <point x="153" y="-4"/>
      <point x="194" y="-15"/>
      <point x="246" y="-15" type="curve" smooth="yes"/>
      <point x="403" y="-15"/>
      <point x="502" y="77"/>
      <point x="502" y="224" type="curve" smooth="yes"/>
      <point x="502" y="360"/>
      <point x="411" y="451"/>
      <point x="276" y="451" type="curve" smooth="yes"/>
      <point x="234" y="451"/>
      <point x="202" y="444"/>
      <point x="147" y="421" type="curve"/>
    </contour>
  </outline>
</glyph>
<glyph name="six" format="1">
  <advance width="556"/>
  <unicode hex="0036"/>
  <outline>
    <contour>
      <point x="153" y="340" type="curve"/>
      <point x="163" y="465"/>
      <point x="168" y="498"/>
      <point x="190" y="549" type="curve" smooth="yes"/>
      <point x="219" y="620"/>
      <point x="272" y="661"/>
      <point x="335" y="661" type="curve" smooth="yes"/>
      <point x="370" y="661"/>
      <point x="391" y="650"/>
      <point x="391" y="632" type="curve" smooth="yes"/>
      <point x="391" y="628"/>
      <point x="390" y="625"/>
      <point x="386" y="618" type="curve" smooth="yes"/>
      <point x="376" y="599"/>
      <point x="371" y="585"/>
      <point x="371" y="571" type="curve" smooth="yes"/>
      <point x="371" y="537"/>
      <point x="397" y="512"/>
      <point x="432" y="512" type="curve" smooth="yes"/>
      <point x="470" y="512"/>
      <point x="498" y="542"/>
      <point x="498" y="584" type="curve" smooth="yes"/>
      <point x="498" y="653"/>
      <point x="428" y="704"/>
      <point x="334" y="704" type="curve" smooth="yes"/>
      <point x="252" y="704"/>
      <point x="175" y="665"/>
      <point x="127" y="598" type="curve" smooth="yes"/>
      <point x="73" y="521"/>
      <point x="42" y="417"/>
      <point x="42" y="308" type="curve" smooth="yes"/>
      <point x="42" y="113"/>
      <point x="138" y="-15"/>
      <point x="286" y="-15" type="curve" smooth="yes"/>
      <point x="351" y="-15"/>
      <point x="405" y="7"/>
      <point x="447" y="51" type="curve" smooth="yes"/>
      <point x="490" y="95"/>
      <point x="516" y="161"/>
      <point x="516" y="224" type="curve" smooth="yes"/>
      <point x="516" y="342"/>
      <point x="431" y="430"/>
      <point x="318" y="430" type="curve" smooth="yes"/>
      <point x="250" y="430"/>
      <point x="200" y="403"/>
    </contour>
    <contour>
      <point x="291" y="369" type="curve" smooth="yes"/>
      <point x="363" y="369"/>
      <point x="407" y="312"/>
      <point x="407" y="217" type="curve" smooth="yes"/>
      <point x="407" y="102"/>
      <point x="361" y="28"/>
      <point x="288" y="28" type="curve" smooth="yes"/>
      <point x="243" y="28"/>
      <point x="208" y="53"/>
      <point x="184" y="101" type="curve" smooth="yes"/>
      <point x="168" y="132"/>
      <point x="160" y="166"/>
      <point x="160" y="203" type="curve" smooth="yes"/>
      <point x="160" y="306"/>
      <point x="210" y="369"/>
    </contour>
  </outline>
</glyph>
<glyph name="seven" format="1">
  <advance width="556"/>
  <unicode hex="0037"/>
  <outline>
    <contour>
      <point x="59" y="462" type="line"/>
      <point x="103" y="455" type="line"/>
      <point x="121" y="534" type="line" smooth="yes"/>
      <point x="136" y="600"/>
      <point x="143" y="610"/>
      <point x="172" y="610" type="curve" smooth="yes"/>
      <point x="177" y="610"/>
      <point x="186" y="610"/>
      <point x="194" y="609" type="curve"/>
      <point x="252" y="606"/>
      <point x="324" y="603"/>
      <point x="365" y="603" type="curve" smooth="yes"/>
      <point x="379" y="603"/>
      <point x="400" y="603"/>
      <point x="427" y="604" type="curve"/>
      <point x="359" y="467" type="line" smooth="yes"/>
      <point x="284" y="318"/>
      <point x="276" y="301"/>
      <point x="251" y="240" type="curve" smooth="yes"/>
      <point x="221" y="165"/>
      <point x="204" y="102"/>
      <point x="204" y="60" type="curve" smooth="yes"/>
      <point x="204" y="15"/>
      <point x="228" y="-14"/>
      <point x="267" y="-14" type="curve" smooth="yes"/>
      <point x="315" y="-14"/>
      <point x="334" y="19"/>
      <point x="333" y="105" type="curve" smooth="yes"/>
      <point x="328" y="248"/>
      <point x="347" y="319"/>
      <point x="453" y="553" type="curve" smooth="yes"/>
      <point x="498" y="647" type="line" smooth="yes"/>
      <point x="499" y="649"/>
      <point x="502" y="658"/>
      <point x="508" y="671" type="curve"/>
      <point x="508" y="700" type="line"/>
      <point x="446" y="695"/>
      <point x="413" y="694"/>
      <point x="352" y="694" type="curve" smooth="yes"/>
      <point x="267" y="694"/>
      <point x="199" y="697"/>
      <point x="90" y="704" type="curve"/>
    </contour>
  </outline>
</glyph>
<glyph name="eight" format="1">
  <advance width="556"/>
  <unicode hex="0038"/>
  <outline>
    <contour>
      <point x="374" y="390" type="curve"/>
      <point x="449" y="431"/>
      <point x="484" y="480"/>
      <point x="484" y="545" type="curve" smooth="yes"/>
      <point x="484" y="637"/>
      <point x="400" y="704"/>
      <point x="285" y="704" type="curve" smooth="yes"/>
      <point x="163" y="704"/>
      <point x="74" y="623"/>
      <point x="74" y="513" type="curve" smooth="yes"/>
      <point x="74" y="470"/>
      <point x="90" y="425"/>
      <point x="118" y="394" type="curve" smooth="yes"/>
      <point x="135" y="374"/>
      <point x="151" y="363"/>
      <point x="187" y="344" type="curve"/>
      <point x="143" y="327"/>
      <point x="124" y="317"/>
      <point x="102" y="299" type="curve" smooth="yes"/>
      <point x="63" y="267"/>
      <point x="41" y="219"/>
      <point x="41" y="168" type="curve" smooth="yes"/>
      <point x="41" y="114"/>
      <point x="68" y="60"/>
      <point x="110" y="28" type="curve" smooth="yes"/>
      <point x="149" y="0"/>
      <point x="203" y="-15"/>
      <point x="267" y="-15" type="curve" smooth="yes"/>
      <point x="341" y="-15"/>
      <point x="403" y="5"/>
      <point x="444" y="42" type="curve" smooth="yes"/>
      <point x="487" y="79"/>
      <point x="513" y="140"/>
      <point x="513" y="201" type="curve" smooth="yes"/>
      <point x="513" y="258"/>
      <point x="491" y="309"/>
      <point x="450" y="345" type="curve" smooth="yes"/>
      <point x="430" y="362"/>
      <point x="412" y="373"/>
    </contour>
    <contour>
      <point x="267" y="429" type="line" smooth="yes"/>
      <point x="186" y="459"/>
      <point x="151" y="497"/>
      <point x="151" y="555" type="curve" smooth="yes"/>
      <point x="151" y="618"/>
      <point x="203" y="661"/>
      <point x="282" y="661" type="curve" smooth="yes"/>
      <point x="359" y="661"/>
      <point x="410" y="612"/>
      <point x="410" y="539" type="curve" smooth="yes"/>
      <point x="410" y="487"/>
      <point x="390" y="453"/>
      <point x="333" y="405" type="curve"/>
    </contour>
    <contour>
      <point x="325" y="291" type="line" smooth="yes"/>
      <point x="401" y="264"/>
      <point x="433" y="225"/>
      <point x="433" y="159" type="curve" smooth="yes"/>
      <point x="433" y="79"/>
      <point x="370" y="28"/>
      <point x="272" y="28" type="curve" smooth="yes"/>
      <point x="179" y="28"/>
      <point x="124" y="80"/>
      <point x="124" y="168" type="curve" smooth="yes"/>
      <point x="124" y="243"/>
      <point x="155" y="288"/>
      <point x="233" y="324" type="curve"/>
    </contour>
  </outline>
</glyph>
<glyph name="nine" format="1">
  <advance width="556"/>
  <unicode hex="0039"/>
  <outline>
    <contour>
      <point x="404" y="347" type="curve"/>
      <point x="391" y="226"/>
      <point x="386" y="196"/>
      <point x="368" y="145" type="curve" smooth="yes"/>
      <point x="342" y="71"/>
      <point x="287" y="28"/>
      <point x="220" y="28" type="curve" smooth="yes"/>
      <point x="187" y="28"/>
      <point x="164" y="38"/>
      <point x="164" y="53" type="curve" smooth="yes"/>
      <point x="164" y="57"/>
      <point x="166" y="62"/>
      <point x="170" y="70" type="curve" smooth="yes"/>
      <point x="182" y="94"/>
      <point x="184" y="100"/>
      <point x="184" y="114" type="curve" smooth="yes"/>
      <point x="184" y="147"/>
      <point x="158" y="173"/>
      <point x="125" y="173" type="curve" smooth="yes"/>
      <point x="87" y="173"/>
      <point x="57" y="141"/>
      <point x="57" y="101" type="curve" smooth="yes"/>
      <point x="57" y="35"/>
      <point x="127" y="-15"/>
      <point x="219" y="-15" type="curve" smooth="yes"/>
      <point x="310" y="-15"/>
      <point x="388" y="26"/>
      <point x="437" y="100" type="curve" smooth="yes"/>
      <point x="486" y="174"/>
      <point x="513" y="271"/>
      <point x="513" y="374" type="curve" smooth="yes"/>
      <point x="513" y="575"/>
      <point x="417" y="704"/>
      <point x="268" y="704" type="curve" smooth="yes"/>
      <point x="140" y="704"/>
      <point x="39" y="598"/>
      <point x="39" y="463" type="curve" smooth="yes"/>
      <point x="39" y="344"/>
      <point x="123" y="256"/>
      <point x="237" y="256" type="curve" smooth="yes"/>
      <point x="308" y="256"/>
      <point x="350" y="279"/>
    </contour>
    <contour>
      <point x="272" y="661" type="curve" smooth="yes"/>
      <point x="346" y="661"/>
      <point x="395" y="587"/>
      <point x="395" y="475" type="curve" smooth="yes"/>
      <point x="395" y="434"/>
      <point x="387" y="397"/>
      <point x="372" y="374" type="curve" smooth="yes"/>
      <point x="349" y="338"/>
      <point x="310" y="316"/>
      <point x="267" y="316" type="curve" smooth="yes"/>
      <point x="191" y="316"/>
      <point x="148" y="375"/>
      <point x="148" y="481" type="curve" smooth="yes"/>
      <point x="148" y="529"/>
      <point x="159" y="576"/>
      <point x="178" y="606" type="curve" smooth="yes"/>
      <point x="201" y="645"/>
      <point x="228" y="661"/>
    </contour>
  </outline>
</glyph>
<glyph name="colon" format="1">
  <advance width="278"/>
  <unicode hex="003A"/>
  <outline>
    <contour>
      <point x="149" y="111" type="curve" smooth="yes"/>
      <point x="114" y="111"/>
      <point x="86" y="83"/>
      <point x="86" y="49" type="curve" smooth="yes"/>
      <point x="86" y="14"/>
      <point x="114" y="-14"/>
      <point x="148" y="-14" type="curve" smooth="yes"/>
      <point x="183" y="-14"/>
      <point x="211" y="14"/>
      <point x="211" y="49" type="curve" smooth="yes"/>
      <point x="211" y="83"/>
      <point x="183" y="111"/>
    </contour>
    <contour>
      <point x="149" y="473" type="curve" smooth="yes"/>
      <point x="114" y="473"/>
      <point x="86" y="445"/>
      <point x="86" y="411" type="curve" smooth="yes"/>
      <point x="86" y="376"/>
      <point x="114" y="348"/>
      <point x="148" y="348" type="curve" smooth="yes"/>
      <point x="183" y="348"/>
      <point x="211" y="376"/>
      <point x="211" y="411" type="curve" smooth="yes"/>
      <point x="211" y="445"/>
      <point x="183" y="473"/>
    </contour>
  </outline>
</glyph>
<glyph name="semicolon" format="1">
  <advance width="278"/>
  <unicode hex="003B"/>
  <outline>
    <contour>
      <point x="95" y="-183" type="line"/>
      <point x="184" y="-122"/>
      <point x="226" y="-61"/>
      <point x="226" y="9" type="curve" smooth="yes"/>
      <point x="226" y="69"/>
      <point x="193" y="108"/>
      <point x="144" y="108" type="curve" smooth="yes"/>
      <point x="107" y="108"/>
      <point x="79" y="82"/>
      <point x="79" y="48" type="curve" smooth="yes"/>
      <point x="79" y="12"/>
      <point x="106" y="-11"/>
      <point x="147" y="-11" type="curve" smooth="yes"/>
      <point x="151" y="-11"/>
      <point x="161" y="-11"/>
      <point x="163" y="-10" type="curve"/>
      <point x="166" y="-10" type="line" smooth="yes"/>
      <point x="171" y="-10"/>
      <point x="173" y="-13"/>
      <point x="173" y="-19" type="curve" smooth="yes"/>
      <point x="173" y="-61"/>
      <point x="139" y="-108"/>
      <point x="72" y="-155" type="curve"/>
    </contour>
    <contour>
      <point x="150" y="472" type="curve" smooth="yes"/>
      <point x="115" y="472"/>
      <point x="87" y="444"/>
      <point x="87" y="410" type="curve" smooth="yes"/>
      <point x="87" y="375"/>
      <point x="115" y="347"/>
      <point x="149" y="347" type="curve" smooth="yes"/>
      <point x="184" y="347"/>
      <point x="212" y="375"/>
      <point x="212" y="410" type="curve" smooth="yes"/>
      <point x="212" y="444"/>
      <point x="184" y="472"/>
    </contour>
  </outline>
</glyph>
<glyph name="less" format="1">
  <advance width="606"/>
  <unicode hex="003C"/>
  <outline>
    <contour>
      <point x="558" y="438" type="line"/>
      <point x="558" y="523" type="line"/>
      <point x="49" y="291" type="line"/>
      <point x="49" y="215" type="line"/>
      <point x="558" y="-17" type="line"/>
      <point x="558" y="68" type="line"/>
      <point x="160" y="253" type="line"/>
    </contour>
  </outline>
</glyph>
<glyph name="equal" format="1">
  <advance width="606"/>
  <unicode hex="003D"/>
  <outline>
    <contour>
      <point x="51" y="112" type="line"/>
      <point x="555" y="112" type="line"/>
      <point x="555" y="192" type="line"/>
      <point x="51" y="192" type="line"/>
    </contour>
    <contour>
      <point x="51" y="314" type="line"/>
      <point x="555" y="314" type="line"/>
      <point x="555" y="394" type="line"/>
      <point x="51" y="394" type="line"/>
    </contour>
  </outline>
</glyph>
<glyph name="greater" format="1">
  <advance width="606"/>
  <unicode hex="003E"/>
  <outline>
    <contour>
      <point x="48" y="438" type="line"/>
      <point x="446" y="253" type="line"/>
      <point x="48" y="68" type="line"/>
      <point x="48" y="-17" type="line"/>
      <point x="557" y="215" type="line"/>
      <point x="557" y="291" type="line"/>
      <point x="48" y="523" type="line"/>
    </contour>
  </outline>
</glyph>
<glyph name="question" format="1">
  <advance width="444"/>
  <unicode hex="003F"/>
  <outline>
    <contour>
      <point x="217" y="191" type="line"/>
      <point x="216" y="289"/>
      <point x="227" y="316"/>
      <point x="291" y="371" type="curve" smooth="yes"/>
      <point x="389" y="458"/>
      <point x="411" y="492"/>
      <point x="411" y="562" type="curve" smooth="yes"/>
      <point x="411" y="666"/>
      <point x="334" y="736"/>
      <point x="220" y="736" type="curve" smooth="yes"/>
      <point x="107" y="736"/>
      <point x="25" y="674"/>
      <point x="25" y="588" type="curve" smooth="yes"/>
      <point x="25" y="544"/>
      <point x="53" y="511"/>
      <point x="90" y="511" type="curve" smooth="yes"/>
      <point x="122" y="511"/>
      <point x="147" y="535"/>
      <point x="147" y="566" type="curve" smooth="yes"/>
      <point x="147" y="586"/>
      <point x="137" y="603"/>
      <point x="118" y="619" type="curve" smooth="yes"/>
      <point x="103" y="631"/>
      <point x="102" y="633"/>
      <point x="102" y="641" type="curve" smooth="yes"/>
      <point x="102" y="667"/>
      <point x="146" y="691"/>
      <point x="194" y="691" type="curve" smooth="yes"/>
      <point x="265" y="691"/>
      <point x="306" y="645"/>
      <point x="306" y="568" type="curve" smooth="yes"/>
      <point x="306" y="527"/>
      <point x="294" y="489"/>
      <point x="274" y="460" type="curve" smooth="yes"/>
      <point x="200" y="359"/>
      <point x="200" y="359"/>
      <point x="187" y="324" type="curve" smooth="yes"/>
      <point x="177" y="296"/>
      <point x="173" y="270"/>
      <point x="173" y="223" type="curve" smooth="yes"/>
      <point x="173" y="191" type="line"/>
    </contour>
    <contour>
      <point x="193" y="110" type="curve" smooth="yes"/>
      <point x="158" y="110"/>
      <point x="130" y="82"/>
      <point x="130" y="48" type="curve" smooth="yes"/>
      <point x="130" y="13"/>
      <point x="158" y="-15"/>
      <point x="192" y="-15" type="curve" smooth="yes"/>
      <point x="227" y="-15"/>
      <point x="255" y="13"/>
      <point x="255" y="48" type="curve" smooth="yes"/>
      <point x="255" y="82"/>
      <point x="227" y="110"/>
    </contour>
  </outline>
</glyph>
<glyph name="at" format="1">
  <advance width="737"/>
  <unicode hex="0040"/>
  <outline>
    <contour>
      <point x="637" y="188" type="line"/>
      <point x="581" y="89"/>
      <point x="498" y="37"/>
      <point x="399" y="37" type="curve" smooth="yes"/>
      <point x="224" y="37"/>
      <point x="99" y="172"/>
      <point x="99" y="361" type="curve" smooth="yes"/>
      <point x="99" y="549"/>
      <point x="223" y="685"/>
      <point x="394" y="685" type="curve" smooth="yes"/>
      <point x="464" y="685"/>
      <point x="522" y="662"/>
      <point x="570" y="616" type="curve" smooth="yes"/>
      <point x="622" y="567"/>
      <point x="653" y="496"/>
      <point x="653" y="428" type="curve" smooth="yes"/>
      <point x="653" y="373"/>
      <point x="632" y="306"/>
      <point x="600" y="260" type="curve" smooth="yes"/>
      <point x="570" y="218"/>
      <point x="534" y="191"/>
      <point x="508" y="191" type="curve" smooth="yes"/>
      <point x="493" y="191"/>
      <point x="482" y="201"/>
      <point x="482" y="215" type="curve" smooth="yes"/>
      <point x="482" y="223"/>
      <point x="483" y="233"/>
      <point x="486" y="245" type="curve" smooth="yes"/>
      <point x="559" y="534" type="line"/>
      <point x="471" y="534" type="line"/>
      <point x="455" y="478" type="line"/>
      <point x="443" y="519"/>
      <point x="415" y="543"/>
      <point x="377" y="543" type="curve" smooth="yes"/>
      <point x="333" y="543"/>
      <point x="279" y="514"/>
      <point x="240" y="471" type="curve" smooth="yes"/>
      <point x="199" y="424"/>
      <point x="176" y="363"/>
      <point x="176" y="302" type="curve" smooth="yes"/>
      <point x="176" y="260"/>
      <point x="187" y="224"/>
      <point x="209" y="198" type="curve" smooth="yes"/>
      <point x="232" y="171"/>
      <point x="268" y="153"/>
      <point x="301" y="153" type="curve" smooth="yes"/>
      <point x="341" y="153"/>
      <point x="370" y="174"/>
      <point x="409" y="232" type="curve"/>
      <point x="408" y="224"/>
      <point x="408" y="219"/>
      <point x="408" y="212" type="curve" smooth="yes"/>
      <point x="408" y="173"/>
      <point x="436" y="147"/>
      <point x="477" y="147" type="curve" smooth="yes"/>
      <point x="514" y="147"/>
      <point x="557" y="165"/>
      <point x="596" y="198" type="curve" smooth="yes"/>
      <point x="664" y="254"/>
      <point x="705" y="344"/>
      <point x="705" y="435" type="curve" smooth="yes"/>
      <point x="705" y="601"/>
      <point x="563" y="736"/>
      <point x="389" y="736" type="curve" smooth="yes"/>
      <point x="300" y="736"/>
      <point x="209" y="697"/>
      <point x="146" y="632" type="curve" smooth="yes"/>
      <point x="80" y="563"/>
      <point x="43" y="464"/>
      <point x="43" y="356" type="curve" smooth="yes"/>
      <point x="43" y="146"/>
      <point x="194" y="-14"/>
      <point x="391" y="-14" type="curve" smooth="yes"/>
      <point x="471" y="-14"/>
      <point x="547" y="14"/>
      <point x="606" y="66" type="curve" smooth="yes"/>
      <point x="649" y="105"/>
      <point x="679" y="144"/>
      <point x="698" y="188" type="curve"/>
    </contour>
    <contour>
      <point x="391" y="502" type="curve" smooth="yes"/>
      <point x="419" y="502"/>
      <point x="436" y="474"/>
      <point x="436" y="430" type="curve" smooth="yes"/>
      <point x="436" y="391"/>
      <point x="421" y="327"/>
      <point x="400" y="280" type="curve" smooth="yes"/>
      <point x="376" y="225"/>
      <point x="345" y="193"/>
      <point x="314" y="193" type="curve" smooth="yes"/>
      <point x="284" y="193"/>
      <point x="266" y="222"/>
      <point x="266" y="271" type="curve" smooth="yes"/>
      <point x="266" y="327"/>
      <point x="291" y="403"/>
      <point x="328" y="460" type="curve" smooth="yes"/>
      <point x="345" y="487"/>
      <point x="368" y="502"/>
    </contour>
  </outline>
</glyph>
<glyph name="B" format="1">
  <advance width="722"/>
  <unicode hex="0042"/>
  <outline>
    <contour>
      <point x="30" y="722" type="line"/>
      <point x="30" y="675" type="line"/>
      <point x="48" y="675" type="line" smooth="yes"/>
      <point x="129" y="675"/>
      <point x="138" y="670"/>
      <point x="138" y="628" type="curve" smooth="yes"/>
      <point x="138" y="599" type="line"/>
      <point x="138" y="123" type="line"/>
      <point x="138" y="94" type="line" smooth="yes"/>
      <point x="138" y="52"/>
      <point x="129" y="47"/>
      <point x="48" y="47" type="curve" smooth="yes"/>
      <point x="30" y="47" type="line"/>
      <point x="30" y="0" type="line"/>
      <point x="393" y="0" type="line" smooth="yes"/>
      <point x="566" y="0"/>
      <point x="670" y="74"/>
      <point x="670" y="196" type="curve" smooth="yes"/>
      <point x="670" y="295"/>
      <point x="606" y="353"/>
      <point x="470" y="377" type="curve"/>
      <point x="518" y="387"/>
      <point x="540" y="396"/>
      <point x="565" y="415" type="curve" smooth="yes"/>
      <point x="607" y="446"/>
      <point x="632" y="495"/>
      <point x="632" y="546" type="curve" smooth="yes"/>
      <point x="632" y="610"/>
      <point x="592" y="673"/>
      <point x="534" y="698" type="curve" smooth="yes"/>
      <point x="498" y="714"/>
      <point x="448" y="722"/>
      <point x="389" y="722" type="curve" smooth="yes"/>
    </contour>
    <contour>
      <point x="250" y="397" type="line"/>
      <point x="250" y="625" type="line" smooth="yes"/>
      <point x="250" y="664"/>
      <point x="264" y="675"/>
      <point x="316" y="675" type="curve" smooth="yes"/>
      <point x="356" y="675" type="line" smooth="yes"/>
      <point x="402" y="675"/>
      <point x="440" y="668"/>
      <point x="461" y="654" type="curve" smooth="yes"/>
      <point x="497" y="632"/>
      <point x="516" y="589"/>
      <point x="516" y="533" type="curve" smooth="yes"/>
      <point x="516" y="435"/>
      <point x="467" y="397"/>
      <point x="339" y="397" type="curve" smooth="yes"/>
    </contour>
    <contour>
      <point x="250" y="350" type="line"/>
      <point x="338" y="350" type="line" smooth="yes"/>
      <point x="402" y="350"/>
      <point x="445" y="344"/>
      <point x="475" y="331" type="curve" smooth="yes"/>
      <point x="522" y="309"/>
      <point x="547" y="265"/>
      <point x="547" y="199" type="curve" smooth="yes"/>
      <point x="547" y="136"/>
      <point x="525" y="89"/>
      <point x="486" y="70" type="curve" smooth="yes"/>
      <point x="455" y="54"/>
      <point x="413" y="47"/>
      <point x="350" y="47" type="curve" smooth="yes"/>
      <point x="308" y="47" type="line" smooth="yes"/>
      <point x="257" y="47"/>
      <point x="250" y="55"/>
      <point x="250" y="110" type="curve" smooth="yes"/>
    </contour>
  </outline>
</glyph>
<glyph name="C" format="1">
  <advance width="722"/>
  <unicode hex="0043"/>
  <outline>
    <contour>
      <point x="639" y="729" type="line"/>
      <point x="601" y="729" type="line"/>
      <point x="561" y="670" type="line"/>
      <point x="490" y="722"/>
      <point x="451" y="737"/>
      <point x="384" y="737" type="curve" smooth="yes"/>
      <point x="287" y="737"/>
      <point x="207" y="698"/>
      <point x="139" y="617" type="curve" smooth="yes"/>
      <point x="75" y="541"/>
      <point x="45" y="457"/>
      <point x="45" y="354" type="curve" smooth="yes"/>
      <point x="45" y="139"/>
      <point x="186" y="-15"/>
      <point x="383" y="-15" type="curve" smooth="yes"/>
      <point x="543" y="-15"/>
      <point x="645" y="79"/>
      <point x="668" y="247" type="curve"/>
      <point x="621" y="255" type="line"/>
      <point x="611" y="202"/>
      <point x="599" y="166"/>
      <point x="581" y="136" type="curve" smooth="yes"/>
      <point x="540" y="67"/>
      <point x="476" y="32"/>
      <point x="395" y="32" type="curve" smooth="yes"/>
      <point x="247" y="32"/>
      <point x="177" y="135"/>
      <point x="177" y="350" type="curve" smooth="yes"/>
      <point x="177" y="463"/>
      <point x="192" y="539"/>
      <point x="226" y="599" type="curve" smooth="yes"/>
      <point x="257" y="655"/>
      <point x="319" y="690"/>
      <point x="383" y="690" type="curve" smooth="yes"/>
      <point x="453" y="690"/>
      <point x="515" y="653"/>
      <point x="553" y="589" type="curve" smooth="yes"/>
      <point x="572" y="556"/>
      <point x="587" y="517"/>
      <point x="610" y="440" type="curve"/>
      <point x="654" y="440" type="line"/>
    </contour>
  </outline>
</glyph>
<glyph name="D" format="1">
  <advance width="778"/>
  <unicode hex="0044"/>
  <outline>
    <contour>
      <point x="137" y="123" type="line"/>
      <point x="137" y="94" type="line" smooth="yes"/>
      <point x="137" y="52"/>
      <point x="128" y="47"/>
      <point x="48" y="47" type="curve" smooth="yes"/>
      <point x="29" y="47" type="line"/>
      <point x="29" y="0" type="line"/>
      <point x="365" y="0" type="line" smooth="yes"/>
      <point x="454" y="0"/>
      <point x="522" y="14"/>
      <point x="575" y="44" type="curve" smooth="yes"/>
      <point x="676" y="101"/>
      <point x="732" y="215"/>
      <point x="732" y="365" type="curve" smooth="yes"/>
      <point x="732" y="502"/>
      <point x="682" y="611"/>
      <point x="590" y="671" type="curve" smooth="yes"/>
      <point x="535" y="706"/>
      <point x="461" y="722"/>
      <point x="347" y="722" type="curve" smooth="yes"/>
      <point x="29" y="722" type="line"/>
      <point x="29" y="675" type="line"/>
      <point x="48" y="675" type="line" smooth="yes"/>
      <point x="128" y="675"/>
      <point x="137" y="670"/>
      <point x="137" y="628" type="curve" smooth="yes"/>
      <point x="137" y="599" type="line"/>
    </contour>
    <contour>
      <point x="306" y="47" type="line" smooth="yes"/>
      <point x="256" y="47"/>
      <point x="249" y="53"/>
      <point x="249" y="102" type="curve" smooth="yes"/>
      <point x="249" y="619" type="line" smooth="yes"/>
      <point x="249" y="668"/>
      <point x="256" y="675"/>
      <point x="306" y="675" type="curve" smooth="yes"/>
      <point x="358" y="675" type="line" smooth="yes"/>
      <point x="529" y="675"/>
      <point x="600" y="582"/>
      <point x="600" y="361" type="curve" smooth="yes"/>
      <point x="600" y="137"/>
      <point x="535" y="47"/>
      <point x="374" y="47" type="curve" smooth="yes"/>
    </contour>
  </outline>
</glyph>
<glyph name="F" format="1">
  <advance width="667"/>
  <unicode hex="0046"/>
  <outline>
    <contour>
      <point x="624" y="722" type="line"/>
      <point x="29" y="722" type="line"/>
      <point x="29" y="675" type="line"/>
      <point x="47" y="675" type="line" smooth="yes"/>
      <point x="128" y="675"/>
      <point x="137" y="670"/>
      <point x="137" y="628" type="curve" smooth="yes"/>
      <point x="137" y="599" type="line"/>
      <point x="137" y="123" type="line"/>
      <point x="137" y="94" type="line" smooth="yes"/>
      <point x="137" y="52"/>
      <point x="128" y="47"/>
      <point x="47" y="47" type="curve" smooth="yes"/>
      <point x="29" y="47" type="line"/>
      <point x="29" y="0" type="line"/>
      <point x="372" y="0" type="line"/>
      <point x="372" y="47" type="line"/>
      <point x="339" y="47" type="line" smooth="yes"/>
      <point x="258" y="47"/>
      <point x="249" y="52"/>
      <point x="249" y="94" type="curve" smooth="yes"/>
      <point x="249" y="123" type="line"/>
      <point x="249" y="350" type="line"/>
      <point x="269" y="350" type="line" smooth="yes"/>
      <point x="331" y="350"/>
      <point x="355" y="344"/>
      <point x="376" y="323" type="curve" smooth="yes"/>
      <point x="401" y="297"/>
      <point x="411" y="265"/>
      <point x="413" y="206" type="curve"/>
      <point x="460" y="206" type="line"/>
      <point x="460" y="534" type="line"/>
      <point x="413" y="534" type="line"/>
      <point x="408" y="436"/>
      <point x="368" y="397"/>
      <point x="273" y="397" type="curve" smooth="yes"/>
      <point x="249" y="397" type="line"/>
      <point x="249" y="625" type="line" smooth="yes"/>
      <point x="249" y="668"/>
      <point x="258" y="675"/>
      <point x="312" y="675" type="curve" smooth="yes"/>
      <point x="358" y="675" type="line" smooth="yes"/>
      <point x="523" y="675"/>
      <point x="566" y="637"/>
      <point x="594" y="466" type="curve"/>
      <point x="638" y="466" type="line"/>
    </contour>
  </outline>
</glyph>
<glyph name="J" format="1">
  <advance width="556"/>
  <unicode hex="004A"/>
  <outline>
    <contour>
      <point x="428" y="599" type="line"/>
      <point x="428" y="628" type="line" smooth="yes"/>
      <point x="428" y="670"/>
      <point x="437" y="675"/>
      <point x="518" y="675" type="curve" smooth="yes"/>
      <point x="537" y="675" type="line"/>
      <point x="537" y="722" type="line"/>
      <point x="209" y="722" type="line"/>
      <point x="209" y="675" type="line"/>
      <point x="228" y="675" type="line" smooth="yes"/>
      <point x="308" y="675"/>
      <point x="317" y="670"/>
      <point x="317" y="628" type="curve" smooth="yes"/>
      <point x="317" y="599" type="line"/>
      <point x="317" y="277" type="line" smooth="yes"/>
      <point x="317" y="189"/>
      <point x="314" y="149"/>
      <point x="304" y="119" type="curve" smooth="yes"/>
      <point x="285" y="62"/>
      <point x="244" y="32"/>
      <point x="186" y="32" type="curve" smooth="yes"/>
      <point x="144" y="32"/>
      <point x="105" y="49"/>
      <point x="84" y="76" type="curve" smooth="yes"/>
      <point x="73" y="90"/>
      <point x="65" y="110"/>
      <point x="65" y="122" type="curve" smooth="yes"/>
      <point x="65" y="131"/>
      <point x="70" y="138"/>
      <point x="77" y="138" type="curve" smooth="yes"/>
      <point x="80" y="138" type="line"/>
      <point x="97" y="134"/>
      <point x="106" y="133"/>
      <point x="117" y="133" type="curve" smooth="yes"/>
      <point x="153" y="133"/>
      <point x="180" y="164"/>
      <point x="180" y="205" type="curve" smooth="yes"/>
      <point x="180" y="247"/>
      <point x="149" y="277"/>
      <point x="105" y="277" type="curve" smooth="yes"/>
      <point x="47" y="277"/>
      <point x="5" y="226"/>
      <point x="5" y="155" type="curve" smooth="yes"/>
      <point x="5" y="107"/>
      <point x="27" y="58"/>
      <point x="63" y="28" type="curve" smooth="yes"/>
      <point x="96" y="-1"/>
      <point x="143" y="-15"/>
      <point x="204" y="-15" type="curve" smooth="yes"/>
      <point x="292" y="-15"/>
      <point x="356" y="14"/>
      <point x="391" y="70" type="curve" smooth="yes"/>
      <point x="417" y="110"/>
      <point x="428" y="171"/>
      <point x="428" y="268" type="curve" smooth="yes"/>
    </contour>
  </outline>
</glyph>
<glyph name="K" format="1">
  <advance width="778"/>
  <unicode hex="004B"/>
  <outline>
    <contour>
      <point x="250" y="327" type="line"/>
      <point x="250" y="599" type="line"/>
      <point x="250" y="628" type="line" smooth="yes"/>
      <point x="250" y="670"/>
      <point x="259" y="675"/>
      <point x="340" y="675" type="curve" smooth="yes"/>
      <point x="359" y="675" type="line"/>
      <point x="359" y="722" type="line"/>
      <point x="30" y="722" type="line"/>
      <point x="30" y="675" type="line"/>
      <point x="48" y="675" type="line" smooth="yes"/>
      <point x="129" y="675"/>
      <point x="138" y="670"/>
      <point x="138" y="628" type="curve" smooth="yes"/>
      <point x="138" y="599" type="line"/>
      <point x="138" y="123" type="line"/>
      <point x="138" y="94" type="line" smooth="yes"/>
      <point x="138" y="52"/>
      <point x="129" y="47"/>
      <point x="48" y="47" type="curve" smooth="yes"/>
      <point x="30" y="47" type="line"/>
      <point x="30" y="0" type="line"/>
      <point x="359" y="0" type="line"/>
      <point x="359" y="47" type="line"/>
      <point x="340" y="47" type="line" smooth="yes"/>
      <point x="259" y="47"/>
      <point x="250" y="52"/>
      <point x="250" y="94" type="curve" smooth="yes"/>
      <point x="250" y="123" type="line"/>
      <point x="250" y="250" type="line"/>
      <point x="366" y="367" type="line"/>
      <point x="540" y="112" type="line" smooth="yes"/>
      <point x="556" y="88"/>
      <point x="560" y="80"/>
      <point x="560" y="70" type="curve" smooth="yes"/>
      <point x="560" y="54"/>
      <point x="541" y="47"/>
      <point x="492" y="47" type="curve" smooth="yes"/>
      <point x="461" y="47" type="line"/>
      <point x="461" y="0" type="line"/>
      <point x="803" y="0" type="line"/>
      <point x="803" y="47" type="line"/>
      <point x="784" y="47" type="line" smooth="yes"/>
      <point x="729" y="47"/>
      <point x="715" y="54"/>
      <point x="686" y="97" type="curve" smooth="yes"/>
      <point x="444" y="446" type="line"/>
      <point x="593" y="595" type="line" smooth="yes"/>
      <point x="641" y="646"/>
      <point x="702" y="675"/>
      <point x="762" y="675" type="curve"/>
      <point x="762" y="722" type="line"/>
      <point x="454" y="722" type="line"/>
      <point x="454" y="675" type="line"/>
      <point x="479" y="675" type="line" smooth="yes"/>
      <point x="525" y="675"/>
      <point x="544" y="666"/>
      <point x="544" y="645" type="curve" smooth="yes"/>
      <point x="544" y="631"/>
      <point x="524" y="602"/>
      <point x="495" y="573" type="curve" smooth="yes"/>
    </contour>
  </outline>
</glyph>
<glyph name="L" format="1">
  <advance width="667"/>
  <unicode hex="004C"/>
  <outline>
    <contour>
      <point x="646" y="274" type="line"/>
      <point x="602" y="274" type="line"/>
      <point x="592" y="206"/>
      <point x="568" y="138"/>
      <point x="542" y="105" type="curve" smooth="yes"/>
      <point x="511" y="66"/>
      <point x="453" y="47"/>
      <point x="369" y="47" type="curve" smooth="yes"/>
      <point x="327" y="47" type="line" smooth="yes"/>
      <point x="297" y="47"/>
      <point x="272" y="53"/>
      <point x="263" y="62" type="curve"/>
      <point x="256" y="68"/>
      <point x="255" y="74"/>
      <point x="255" y="95" type="curve" smooth="yes"/>
      <point x="255" y="599" type="line"/>
      <point x="255" y="628" type="line" smooth="yes"/>
      <point x="255" y="670"/>
      <point x="264" y="675"/>
      <point x="345" y="675" type="curve" smooth="yes"/>
      <point x="363" y="675" type="line"/>
      <point x="363" y="722" type="line"/>
      <point x="35" y="722" type="line"/>
      <point x="35" y="675" type="line"/>
      <point x="53" y="675" type="line" smooth="yes"/>
      <point x="134" y="675"/>
      <point x="143" y="670"/>
      <point x="143" y="628" type="curve" smooth="yes"/>
      <point x="143" y="599" type="line"/>
      <point x="143" y="123" type="line"/>
      <point x="143" y="94" type="line" smooth="yes"/>
      <point x="143" y="52"/>
      <point x="134" y="47"/>
      <point x="53" y="47" type="curve" smooth="yes"/>
      <point x="35" y="47" type="line"/>
      <point x="35" y="0" type="line"/>
      <point x="625" y="0" type="line"/>
    </contour>
  </outline>
</glyph>
<glyph name="M" format="1">
  <advance width="944"/>
  <unicode hex="004D"/>
  <outline>
    <contour>
      <point x="287" y="722" type="line"/>
      <point x="29" y="722" type="line"/>
      <point x="29" y="675" type="line"/>
      <point x="48" y="675" type="line" smooth="yes"/>
      <point x="129" y="675"/>
      <point x="138" y="670"/>
      <point x="138" y="628" type="curve" smooth="yes"/>
      <point x="138" y="599" type="line"/>
      <point x="138" y="216" type="line" smooth="yes"/>
      <point x="138" y="80"/>
      <point x="118" y="51"/>
      <point x="22" y="47" type="curve"/>
      <point x="22" y="0" type="line"/>
      <point x="307" y="0" type="line"/>
      <point x="307" y="47" type="line"/>
      <point x="212" y="51"/>
      <point x="192" y="80"/>
      <point x="192" y="216" type="curve" smooth="yes"/>
      <point x="192" y="658" type="line"/>
      <point x="430" y="0" type="line"/>
      <point x="470" y="0" type="line"/>
      <point x="693" y="658" type="line"/>
      <point x="693" y="123" type="line"/>
      <point x="693" y="94" type="line" smooth="yes"/>
      <point x="693" y="51"/>
      <point x="684" y="47"/>
      <point x="603" y="47" type="curve" smooth="yes"/>
      <point x="585" y="47" type="line"/>
      <point x="585" y="0" type="line"/>
      <point x="913" y="0" type="line"/>
      <point x="913" y="47" type="line"/>
      <point x="895" y="47" type="line" smooth="yes"/>
      <point x="814" y="47"/>
      <point x="805" y="51"/>
      <point x="805" y="94" type="curve" smooth="yes"/>
      <point x="805" y="123" type="line"/>
      <point x="805" y="599" type="line"/>
      <point x="805" y="628" type="line" smooth="yes"/>
      <point x="805" y="670"/>
      <point x="814" y="675"/>
      <point x="895" y="675" type="curve" smooth="yes"/>
      <point x="913" y="675" type="line"/>
      <point x="913" y="722" type="line"/>
      <point x="662" y="722" type="line"/>
      <point x="479" y="189" type="line"/>
    </contour>
  </outline>
</glyph>
<glyph name="N" format="1">
  <advance width="815"/>
  <unicode hex="004E"/>
  <outline>
    <contour>
      <point x="225" y="722" type="line"/>
      <point x="19" y="722" type="line"/>
      <point x="19" y="675" type="line"/>
      <point x="44" y="675" type="line" smooth="yes"/>
      <point x="95" y="675"/>
      <point x="118" y="667"/>
      <point x="136" y="642" type="curve"/>
      <point x="136" y="217" type="line" smooth="yes"/>
      <point x="136" y="80"/>
      <point x="116" y="51"/>
      <point x="20" y="47" type="curve"/>
      <point x="20" y="0" type="line"/>
      <point x="305" y="0" type="line"/>
      <point x="305" y="47" type="line"/>
      <point x="210" y="51"/>
      <point x="190" y="80"/>
      <point x="190" y="217" type="curve" smooth="yes"/>
      <point x="190" y="588" type="line"/>
      <point x="636" y="-14" type="line"/>
      <point x="678" y="-14" type="line"/>
      <point x="678" y="505" type="line" smooth="yes"/>
      <point x="678" y="642"/>
      <point x="698" y="671"/>
      <point x="794" y="675" type="curve"/>
      <point x="794" y="722" type="line"/>
      <point x="509" y="722" type="line"/>
      <point x="509" y="675" type="line"/>
      <point x="604" y="671"/>
      <point x="624" y="642"/>
      <point x="624" y="505" type="curve" smooth="yes"/>
      <point x="624" y="191" type="line"/>
    </contour>
  </outline>
</glyph>
<glyph name="P" format="1">
  <advance width="667"/>
  <unicode hex="0050"/>
  <outline>
    <contour>
      <point x="248" y="321" type="line"/>
      <point x="361" y="321" type="line" smooth="yes"/>
      <point x="451" y="321"/>
      <point x="498" y="328"/>
      <point x="538" y="347" type="curve" smooth="yes"/>
      <point x="609" y="381"/>
      <point x="649" y="445"/>
      <point x="649" y="524" type="curve" smooth="yes"/>
      <point x="649" y="600"/>
      <point x="614" y="658"/>
      <point x="548" y="691" type="curve" smooth="yes"/>
      <point x="509" y="711"/>
      <point x="447" y="722"/>
      <point x="378" y="722" type="curve" smooth="yes"/>
      <point x="28" y="722" type="line"/>
      <point x="28" y="675" type="line"/>
      <point x="46" y="675" type="line" smooth="yes"/>
      <point x="127" y="675"/>
      <point x="136" y="670"/>
      <point x="136" y="628" type="curve" smooth="yes"/>
      <point x="136" y="599" type="line"/>
      <point x="136" y="123" type="line"/>
      <point x="136" y="94" type="line" smooth="yes"/>
      <point x="136" y="52"/>
      <point x="127" y="47"/>
      <point x="46" y="47" type="curve" smooth="yes"/>
      <point x="28" y="47" type="line"/>
      <point x="28" y="0" type="line"/>
      <point x="364" y="0" type="line"/>
      <point x="364" y="47" type="line"/>
      <point x="338" y="47" type="line" smooth="yes"/>
      <point x="257" y="47"/>
      <point x="248" y="52"/>
      <point x="248" y="94" type="curve" smooth="yes"/>
      <point x="248" y="123" type="line"/>
    </contour>
    <contour>
      <point x="248" y="368" type="line"/>
      <point x="248" y="624" type="line" smooth="yes"/>
      <point x="248" y="670"/>
      <point x="254" y="675"/>
      <point x="309" y="675" type="curve" smooth="yes"/>
      <point x="373" y="675" type="line" smooth="yes"/>
      <point x="477" y="675"/>
      <point x="526" y="626"/>
      <point x="526" y="520" type="curve" smooth="yes"/>
      <point x="526" y="417"/>
      <point x="475" y="368"/>
      <point x="369" y="368" type="curve" smooth="yes"/>
    </contour>
  </outline>
</glyph>
<glyph name="Q" format="1">
  <advance width="778"/>
  <unicode hex="0051"/>
  <outline>
    <contour>
      <point x="703" y="-20" type="line"/>
      <point x="698" y="-84"/>
      <point x="688" y="-108"/>
      <point x="663" y="-108" type="curve" smooth="yes"/>
      <point x="634" y="-108"/>
      <point x="610" y="-66"/>
      <point x="576" y="43" type="curve"/>
      <point x="680" y="129"/>
      <point x="734" y="241"/>
      <point x="734" y="369" type="curve" smooth="yes"/>
      <point x="734" y="574"/>
      <point x="581" y="737"/>
      <point x="388" y="737" type="curve" smooth="yes"/>
      <point x="306" y="737"/>
      <point x="236" y="711"/>
      <point x="175" y="656" type="curve" smooth="yes"/>
      <point x="93" y="583"/>
      <point x="45" y="474"/>
      <point x="45" y="360" type="curve" smooth="yes"/>
      <point x="45" y="151"/>
      <point x="200" y="-15"/>
      <point x="395" y="-15" type="curve" smooth="yes"/>
      <point x="429" y="-15"/>
      <point x="451" y="-11"/>
      <point x="484" y="0" type="curve"/>
      <point x="488" y="-120"/>
      <point x="538" y="-189"/>
      <point x="620" y="-189" type="curve" smooth="yes"/>
      <point x="700" y="-189"/>
      <point x="749" y="-125"/>
      <point x="748" y="-20" type="curve"/>
    </contour>
    <contour>
      <point x="550" y="119" type="curve"/>
      <point x="524" y="213"/>
      <point x="463" y="265"/>
      <point x="379" y="265" type="curve" smooth="yes"/>
      <point x="295" y="265"/>
      <point x="235" y="209"/>
      <point x="235" y="129" type="curve" smooth="yes"/>
      <point x="235" y="126"/>
      <point x="235" y="119"/>
      <point x="236" y="111" type="curve"/>
      <point x="196" y="164"/>
      <point x="177" y="244"/>
      <point x="177" y="360" type="curve" smooth="yes"/>
      <point x="177" y="458"/>
      <point x="194" y="541"/>
      <point x="228" y="602" type="curve" smooth="yes"/>
      <point x="259" y="658"/>
      <point x="317" y="690"/>
      <point x="390" y="690" type="curve" smooth="yes"/>
      <point x="466" y="690"/>
      <point x="530" y="653"/>
      <point x="561" y="591" type="curve" smooth="yes"/>
      <point x="590" y="535"/>
      <point x="602" y="465"/>
      <point x="602" y="363" type="curve" smooth="yes"/>
      <point x="602" y="246"/>
      <point x="588" y="181"/>
    </contour>
    <contour>
      <point x="480" y="54" type="line"/>
      <point x="449" y="38"/>
      <point x="425" y="32"/>
      <point x="386" y="32" type="curve" smooth="yes"/>
      <point x="320" y="32"/>
      <point x="281" y="64"/>
      <point x="281" y="119" type="curve" smooth="yes"/>
      <point x="281" y="178"/>
      <point x="319" y="218"/>
      <point x="374" y="218" type="curve" smooth="yes"/>
      <point x="442" y="218"/>
      <point x="480" y="162"/>
      <point x="480" y="64" type="curve" smooth="yes"/>
    </contour>
  </outline>
</glyph>
<glyph name="V" format="1">
  <advance width="722"/>
  <unicode hex="0056"/>
  <outline>
    <contour>
      <point x="393" y="155" type="line"/>
      <point x="210" y="620" type="line" smooth="yes"/>
      <point x="205" y="632"/>
      <point x="202" y="644"/>
      <point x="202" y="650" type="curve" smooth="yes"/>
      <point x="202" y="668"/>
      <point x="219" y="675"/>
      <point x="264" y="675" type="curve" smooth="yes"/>
      <point x="304" y="675" type="line"/>
      <point x="304" y="722" type="line"/>
      <point x="-8" y="722" type="line"/>
      <point x="-8" y="675" type="line"/>
      <point x="12" y="675" type="line" smooth="yes"/>
      <point x="57" y="675"/>
      <point x="70" y="665"/>
      <point x="89" y="619" type="curve" smooth="yes"/>
      <point x="342" y="-15" type="line"/>
      <point x="382" y="-15" type="line"/>
      <point x="612" y="577" type="line" smooth="yes"/>
      <point x="642" y="655"/>
      <point x="664" y="675"/>
      <point x="721" y="675" type="curve" smooth="yes"/>
      <point x="731" y="675" type="line"/>
      <point x="731" y="722" type="line"/>
      <point x="460" y="722" type="line"/>
      <point x="460" y="675" type="line"/>
      <point x="479" y="675" type="line" smooth="yes"/>
      <point x="530" y="675"/>
      <point x="560" y="655"/>
      <point x="560" y="623" type="curve" smooth="yes"/>
      <point x="560" y="609"/>
      <point x="555" y="586"/>
      <point x="548" y="567" type="curve" smooth="yes"/>
    </contour>
  </outline>
</glyph>
<glyph name="W" format="1">
  <advance width="981"/>
  <unicode hex="0057"/>
  <outline>
    <contour>
      <point x="349" y="182" type="line"/>
      <point x="205" y="630" type="line" smooth="yes"/>
      <point x="202" y="639"/>
      <point x="200" y="650"/>
      <point x="200" y="655" type="curve" smooth="yes"/>
      <point x="200" y="670"/>
      <point x="211" y="675"/>
      <point x="243" y="675" type="curve" smooth="yes"/>
      <point x="288" y="675" type="line"/>
      <point x="288" y="722" type="line"/>
      <point x="6" y="722" type="line"/>
      <point x="6" y="675" type="line"/>
      <point x="25" y="675" type="line" smooth="yes"/>
      <point x="67" y="675"/>
      <point x="73" y="671"/>
      <point x="85" y="636" type="curve" smooth="yes"/>
      <point x="301" y="-15" type="line"/>
      <point x="344" y="-15" type="line"/>
      <point x="492" y="482" type="line"/>
      <point x="654" y="-15" type="line"/>
      <point x="695" y="-15" type="line"/>
      <point x="871" y="572" type="line" smooth="yes"/>
      <point x="882" y="611"/>
      <point x="887" y="623"/>
      <point x="898" y="639" type="curve" smooth="yes"/>
      <point x="914" y="663"/>
      <point x="939" y="675"/>
      <point x="972" y="675" type="curve" smooth="yes"/>
      <point x="976" y="675" type="line"/>
      <point x="976" y="722" type="line"/>
      <point x="731" y="722" type="line"/>
      <point x="731" y="675" type="line"/>
      <point x="739" y="675" type="line" smooth="yes"/>
      <point x="797" y="675"/>
      <point x="825" y="658"/>
      <point x="825" y="623" type="curve" smooth="yes"/>
      <point x="825" y="613"/>
      <point x="823" y="599"/>
      <point x="819" y="588" type="curve"/>
      <point x="699" y="182" type="line"/>
      <point x="561" y="620" type="line" smooth="yes"/>
      <point x="555" y="639"/>
      <point x="554" y="641"/>
      <point x="554" y="648" type="curve" smooth="yes"/>
      <point x="554" y="657"/>
      <point x="560" y="666"/>
      <point x="569" y="670" type="curve"/>
      <point x="580" y="674"/>
      <point x="587" y="675"/>
      <point x="626" y="675" type="curve" smooth="yes"/>
      <point x="642" y="675" type="line"/>
      <point x="642" y="722" type="line"/>
      <point x="353" y="722" type="line"/>
      <point x="353" y="675" type="line"/>
      <point x="376" y="675" type="line" smooth="yes"/>
      <point x="417" y="675"/>
      <point x="431" y="668"/>
      <point x="439" y="644" type="curve" smooth="yes"/>
      <point x="465" y="566" type="line"/>
    </contour>
  </outline>
</glyph>
<glyph name="bracketleft" format="1">
  <advance width="333"/>
  <unicode hex="005B"/>
  <outline>
    <contour>
      <point x="156" y="-72" type="line"/>
      <point x="156" y="685" type="line"/>
      <point x="297" y="685" type="line"/>
      <point x="297" y="722" type="line"/>
      <point x="66" y="722" type="line"/>
      <point x="66" y="-108" type="line"/>
      <point x="297" y="-108" type="line"/>
      <point x="297" y="-72" type="line"/>
    </contour>
  </outline>
</glyph>
<glyph name="backslash" format="1">
  <advance width="606"/>
  <unicode hex="005C"/>
  <outline>
    <contour>
      <point x="132" y="737" type="line"/>
      <point x="74" y="737" type="line"/>
      <point x="474" y="0" type="line"/>
      <point x="532" y="0" type="line"/>
    </contour>
  </outline>
</glyph>
<glyph name="bracketright" format="1">
  <advance width="333"/>
  <unicode hex="005D"/>
  <outline>
    <contour>
      <point x="176" y="686" type="line"/>
      <point x="176" y="-71" type="line"/>
      <point x="36" y="-71" type="line"/>
      <point x="36" y="-108" type="line"/>
      <point x="266" y="-108" type="line"/>
      <point x="266" y="722" type="line"/>
      <point x="36" y="722" type="line"/>
      <point x="36" y="686" type="line"/>
    </contour>
  </outline>
</glyph>
<glyph name="asciicircum" format="1">
  <advance width="606"/>
  <unicode hex="005E"/>
  <outline>
    <contour>
      <point x="554" y="318" type="line"/>
      <point x="346" y="722" type="line"/>
      <point x="261" y="722" type="line"/>
      <point x="52" y="318" type="line"/>
      <point x="139" y="318" type="line"/>
      <point x="304" y="629" type="line"/>
      <point x="467" y="318" type="line"/>
    </contour>
  </outline>
</glyph>
<glyph name="underscore" format="1">
  <advance width="500"/>
  <unicode hex="005F"/>
  <outline>
    <contour>
      <point x="0" y="-73" type="line"/>
      <point x="0" y="-134" type="line"/>
      <point x="500" y="-134" type="line"/>
      <point x="500" y="-73" type="line"/>
    </contour>
  </outline>
</glyph>
<glyph name="grave" format="1">
  <advance width="333"/>
  <unicode hex="0060"/>
  <outline>
    <contour>
      <point x="242" y="535" type="line"/>
      <point x="102" y="675" type="line" smooth="yes"/>
      <point x="77" y="700"/>
      <point x="68" y="706"/>
      <point x="52" y="706" type="curve" smooth="yes"/>
      <point x="32" y="706"/>
      <point x="17" y="691"/>
      <point x="17" y="671" type="curve" smooth="yes"/>
      <point x="17" y="657"/>
      <point x="27" y="642"/>
      <point x="42" y="632" type="curve" smooth="yes"/>
      <point x="201" y="535" type="line"/>
    </contour>
  </outline>
</glyph>
<glyph name="b" format="1">
  <advance width="556"/>
  <unicode hex="0062"/>
  <outline>
    <contour>
      <point x="180" y="737" type="line"/>
      <point x="8" y="726" type="line"/>
      <point x="8" y="683" type="line"/>
      <point x="43" y="683" type="line" smooth="yes"/>
      <point x="80" y="683"/>
      <point x="86" y="676"/>
      <point x="86" y="633" type="curve" smooth="yes"/>
      <point x="86" y="244" type="line" smooth="yes"/>
      <point x="86" y="110"/>
      <point x="81" y="45"/>
      <point x="68" y="-14" type="curve"/>
      <point x="106" y="-14" type="line"/>
      <point x="155" y="64" type="line"/>
      <point x="196" y="10"/>
      <point x="243" y="-15"/>
      <point x="305" y="-15" type="curve" smooth="yes"/>
      <point x="428" y="-15"/>
      <point x="520" y="92"/>
      <point x="520" y="236" type="curve" smooth="yes"/>
      <point x="520" y="380"/>
      <point x="436" y="481"/>
      <point x="316" y="481" type="curve" smooth="yes"/>
      <point x="255" y="481"/>
      <point x="218" y="460"/>
      <point x="180" y="403" type="curve"/>
    </contour>
    <contour>
      <point x="298" y="430" type="curve" smooth="yes"/>
      <point x="373" y="430"/>
      <point x="415" y="357"/>
      <point x="415" y="226" type="curve" smooth="yes"/>
      <point x="415" y="100"/>
      <point x="374" y="28"/>
      <point x="301" y="28" type="curve" smooth="yes"/>
      <point x="222" y="28"/>
      <point x="175" y="101"/>
      <point x="175" y="224" type="curve" smooth="yes"/>
      <point x="175" y="357"/>
      <point x="218" y="430"/>
    </contour>
  </outline>
</glyph>
<glyph name="f" format="1">
  <advance width="333"/>
  <unicode hex="0066"/>
  <outline>
    <contour>
      <point x="201" y="466" type="line"/>
      <point x="201" y="523" type="line" smooth="yes"/>
      <point x="201" y="573"/>
      <point x="204" y="606"/>
      <point x="212" y="626" type="curve" smooth="yes"/>
      <point x="228" y="670"/>
      <point x="263" y="697"/>
      <point x="303" y="697" type="curve" smooth="yes"/>
      <point x="324" y="697"/>
      <point x="337" y="691"/>
      <point x="337" y="680" type="curve" smooth="yes"/>
      <point x="337" y="677"/>
      <point x="336" y="675"/>
      <point x="331" y="667" type="curve" smooth="yes"/>
      <point x="325" y="657"/>
      <point x="322" y="646"/>
      <point x="322" y="635" type="curve" smooth="yes"/>
      <point x="322" y="605"/>
      <point x="346" y="582"/>
      <point x="377" y="582" type="curve" smooth="yes"/>
      <point x="410" y="582"/>
      <point x="433" y="607"/>
      <point x="433" y="643" type="curve" smooth="yes"/>
      <point x="433" y="701"/>
      <point x="383" y="737"/>
      <point x="302" y="737" type="curve" smooth="yes"/>
      <point x="233" y="737"/>
      <point x="183" y="713"/>
      <point x="147" y="663" type="curve" smooth="yes"/>
      <point x="117" y="621"/>
      <point x="107" y="578"/>
      <point x="107" y="497" type="curve" smooth="yes"/>
      <point x="107" y="466" type="line"/>
      <point x="19" y="466" type="line"/>
      <point x="19" y="423" type="line"/>
      <point x="107" y="423" type="line"/>
      <point x="107" y="123" type="line"/>
      <point x="107" y="83" type="line" smooth="yes"/>
      <point x="107" y="43"/>
      <point x="96" y="36"/>
      <point x="32" y="36" type="curve" smooth="yes"/>
      <point x="28" y="36" type="line"/>
      <point x="28" y="0" type="line"/>
      <point x="295" y="0" type="line"/>
      <point x="295" y="36" type="line"/>
      <point x="277" y="36" type="line" smooth="yes"/>
      <point x="212" y="36"/>
      <point x="201" y="43"/>
      <point x="201" y="83" type="curve" smooth="yes"/>
      <point x="201" y="123" type="line"/>
      <point x="201" y="423" type="line"/>
      <point x="311" y="423" type="line"/>
      <point x="311" y="466" type="line"/>
    </contour>
  </outline>
</glyph>
<glyph name="g" format="1">
  <advance width="537"/>
  <unicode hex="0067"/>
  <outline>
    <contour>
      <point x="196" y="74" type="line" smooth="yes"/>
      <point x="141" y="75"/>
      <point x="138" y="76"/>
      <point x="126" y="83" type="curve" smooth="yes"/>
      <point x="119" y="87"/>
      <point x="114" y="98"/>
      <point x="114" y="109" type="curve" smooth="yes"/>
      <point x="114" y="139"/>
      <point x="141" y="152"/>
      <point x="208" y="154" type="curve" smooth="yes"/>
      <point x="303" y="156"/>
      <point x="318" y="158"/>
      <point x="351" y="173" type="curve" smooth="yes"/>
      <point x="411" y="200"/>
      <point x="445" y="252"/>
      <point x="445" y="318" type="curve" smooth="yes"/>
      <point x="445" y="358"/>
      <point x="436" y="383"/>
      <point x="408" y="416" type="curve"/>
      <point x="425" y="434"/>
      <point x="434" y="440"/>
      <point x="442" y="440" type="curve" smooth="yes"/>
      <point x="447" y="440"/>
      <point x="450" y="437"/>
      <point x="452" y="426" type="curve" smooth="yes"/>
      <point x="456" y="402"/>
      <point x="472" y="389"/>
      <point x="497" y="389" type="curve" smooth="yes"/>
      <point x="522" y="389"/>
      <point x="542" y="410"/>
      <point x="542" y="437" type="curve" smooth="yes"/>
      <point x="542" y="471"/>
      <point x="515" y="495"/>
      <point x="476" y="495" type="curve" smooth="yes"/>
      <point x="444" y="495"/>
      <point x="426" y="485"/>
      <point x="380" y="443" type="curve"/>
      <point x="338" y="471"/>
      <point x="306" y="481"/>
      <point x="256" y="481" type="curve" smooth="yes"/>
      <point x="137" y="481"/>
      <point x="59" y="415"/>
      <point x="59" y="315" type="curve" smooth="yes"/>
      <point x="59" y="256"/>
      <point x="91" y="205"/>
      <point x="143" y="181" type="curve"/>
      <point x="76" y="166"/>
      <point x="48" y="136"/>
      <point x="48" y="81" type="curve" smooth="yes"/>
      <point x="48" y="37"/>
      <point x="68" y="11"/>
      <point x="115" y="-5" type="curve"/>
      <point x="53" y="-27"/>
      <point x="23" y="-59"/>
      <point x="23" y="-100" type="curve" smooth="yes"/>
      <point x="23" y="-166"/>
      <point x="100" y="-203"/>
      <point x="234" y="-203" type="curve" smooth="yes"/>
      <point x="401" y="-203"/>
      <point x="485" y="-150"/>
      <point x="485" y="-45" type="curve" smooth="yes"/>
      <point x="485" y="5"/>
      <point x="462" y="45"/>
      <point x="425" y="60" type="curve" smooth="yes"/>
      <point x="399" y="70"/>
      <point x="367" y="74"/>
      <point x="298" y="74" type="curve" smooth="yes"/>
    </contour>
    <contour>
      <point x="255" y="438" type="curve" smooth="yes"/>
      <point x="318" y="438"/>
      <point x="353" y="394"/>
      <point x="353" y="317" type="curve" smooth="yes"/>
      <point x="353" y="239"/>
      <point x="315" y="192"/>
      <point x="251" y="192" type="curve" smooth="yes"/>
      <point x="189" y="192"/>
      <point x="150" y="239"/>
      <point x="150" y="314" type="curve" smooth="yes"/>
      <point x="150" y="393"/>
      <point x="188" y="438"/>
    </contour>
    <contour>
      <point x="246" y="-12" type="line" smooth="yes"/>
      <point x="329" y="-12"/>
      <point x="335" y="-12"/>
      <point x="350" y="-14" type="curve" smooth="yes"/>
      <point x="390" y="-18"/>
      <point x="415" y="-40"/>
      <point x="415" y="-72" type="curve" smooth="yes"/>
      <point x="415" y="-129"/>
      <point x="350" y="-162"/>
      <point x="238" y="-162" type="curve" smooth="yes"/>
      <point x="154" y="-162"/>
      <point x="106" y="-137"/>
      <point x="106" y="-92" type="curve" smooth="yes"/>
      <point x="106" y="-59"/>
      <point x="124" y="-37"/>
      <point x="172" y="-12" type="curve"/>
    </contour>
  </outline>
</glyph>
<glyph name="k" format="1">
  <advance width="593"/>
  <unicode hex="006B"/>
  <outline>
    <contour>
      <point x="199" y="242" type="line"/>
      <point x="199" y="737" type="line"/>
      <point x="14" y="726" type="line"/>
      <point x="14" y="683" type="line"/>
      <point x="62" y="683" type="line" smooth="yes"/>
      <point x="99" y="683"/>
      <point x="105" y="676"/>
      <point x="105" y="633" type="curve" smooth="yes"/>
      <point x="105" y="123" type="line"/>
      <point x="105" y="83" type="line" smooth="yes"/>
      <point x="105" y="43"/>
      <point x="94" y="36"/>
      <point x="30" y="36" type="curve" smooth="yes"/>
      <point x="26" y="36" type="line"/>
      <point x="26" y="0" type="line"/>
      <point x="279" y="0" type="line"/>
      <point x="279" y="36" type="line"/>
      <point x="275" y="36" type="line" smooth="yes"/>
      <point x="210" y="36"/>
      <point x="199" y="43"/>
      <point x="199" y="83" type="curve" smooth="yes"/>
      <point x="199" y="123" type="line"/>
      <point x="199" y="180" type="line"/>
      <point x="260" y="238" type="line"/>
      <point x="379" y="71" type="line"/>
      <point x="383" y="64"/>
      <point x="386" y="58"/>
      <point x="386" y="53" type="curve" smooth="yes"/>
      <point x="386" y="40"/>
      <point x="375" y="36"/>
      <point x="342" y="36" type="curve" smooth="yes"/>
      <point x="323" y="36" type="line"/>
      <point x="323" y="0" type="line"/>
      <point x="587" y="0" type="line"/>
      <point x="587" y="36" type="line"/>
      <point x="531" y="41"/>
      <point x="511" y="53"/>
      <point x="470" y="105" type="curve" smooth="yes"/>
      <point x="328" y="299" type="line"/>
      <point x="373" y="343" type="line" smooth="yes"/>
      <point x="431" y="400"/>
      <point x="474" y="422"/>
      <point x="542" y="430" type="curve"/>
      <point x="542" y="466" type="line"/>
      <point x="279" y="466" type="line"/>
      <point x="279" y="430" type="line"/>
      <point x="310" y="430" type="line" smooth="yes"/>
      <point x="342" y="430"/>
      <point x="357" y="424"/>
      <point x="357" y="411" type="curve" smooth="yes"/>
      <point x="357" y="400"/>
      <point x="350" y="388"/>
      <point x="334" y="372" type="curve" smooth="yes"/>
    </contour>
  </outline>
</glyph>
<glyph name="m" format="1">
  <advance width="889"/>
  <unicode hex="006D"/>
  <outline>
    <contour>
      <point x="201" y="466" type="line"/>
      <point x="23" y="455" type="line"/>
      <point x="23" y="412" type="line"/>
      <point x="64" y="412" type="line" smooth="yes"/>
      <point x="101" y="412"/>
      <point x="107" y="405"/>
      <point x="107" y="362" type="curve" smooth="yes"/>
      <point x="107" y="123" type="line"/>
      <point x="107" y="84" type="line" smooth="yes"/>
      <point x="107" y="43"/>
      <point x="96" y="36"/>
      <point x="32" y="36" type="curve" smooth="yes"/>
      <point x="28" y="36" type="line"/>
      <point x="28" y="0" type="line"/>
      <point x="280" y="0" type="line"/>
      <point x="280" y="36" type="line"/>
      <point x="276" y="36" type="line" smooth="yes"/>
      <point x="212" y="36"/>
      <point x="201" y="43"/>
      <point x="201" y="84" type="curve" smooth="yes"/>
      <point x="201" y="123" type="line"/>
      <point x="201" y="265" type="line" smooth="yes"/>
      <point x="201" y="354"/>
      <point x="250" y="420"/>
      <point x="315" y="420" type="curve" smooth="yes"/>
      <point x="341" y="420"/>
      <point x="369" y="406"/>
      <point x="381" y="387" type="curve"/>
      <point x="395" y="368"/>
      <point x="401" y="339"/>
      <point x="401" y="298" type="curve" smooth="yes"/>
      <point x="401" y="123" type="line"/>
      <point x="401" y="83" type="line" smooth="yes"/>
      <point x="401" y="43"/>
      <point x="390" y="36"/>
      <point x="325" y="36" type="curve" smooth="yes"/>
      <point x="321" y="36" type="line"/>
      <point x="321" y="0" type="line"/>
      <point x="574" y="0" type="line"/>
      <point x="574" y="36" type="line"/>
      <point x="570" y="36" type="line" smooth="yes"/>
      <point x="506" y="36"/>
      <point x="495" y="43"/>
      <point x="495" y="83" type="curve" smooth="yes"/>
      <point x="495" y="123" type="line"/>
      <point x="495" y="256" type="line" smooth="yes"/>
      <point x="495" y="356"/>
      <point x="540" y="420"/>
      <point x="610" y="420" type="curve" smooth="yes"/>
      <point x="643" y="420"/>
      <point x="670" y="401"/>
      <point x="683" y="370" type="curve" smooth="yes"/>
      <point x="692" y="348"/>
      <point x="695" y="326"/>
      <point x="695" y="287" type="curve" smooth="yes"/>
      <point x="695" y="123" type="line"/>
      <point x="695" y="83" type="line" smooth="yes"/>
      <point x="695" y="43"/>
      <point x="684" y="36"/>
      <point x="619" y="36" type="curve" smooth="yes"/>
      <point x="615" y="36" type="line"/>
      <point x="615" y="0" type="line"/>
      <point x="868" y="0" type="line"/>
      <point x="868" y="36" type="line"/>
      <point x="864" y="36" type="line" smooth="yes"/>
      <point x="800" y="36"/>
      <point x="789" y="43"/>
      <point x="789" y="84" type="curve" smooth="yes"/>
      <point x="789" y="123" type="line"/>
      <point x="789" y="307" type="line" smooth="yes"/>
      <point x="789" y="369"/>
      <point x="783" y="390"/>
      <point x="757" y="424" type="curve" smooth="yes"/>
      <point x="728" y="461"/>
      <point x="687" y="481"/>
      <point x="639" y="481" type="curve" smooth="yes"/>
      <point x="574" y="481"/>
      <point x="526" y="450"/>
      <point x="483" y="381" type="curve"/>
      <point x="466" y="441"/>
      <point x="412" y="481"/>
      <point x="345" y="481" type="curve" smooth="yes"/>
      <point x="285" y="481"/>
      <point x="240" y="452"/>
      <point x="201" y="389" type="curve"/>
    </contour>
  </outline>
</glyph>
<glyph name="o" format="1">
  <advance width="500"/>
  <unicode hex="006F"/>
  <outline>
    <contour>
      <point x="252" y="481" type="curve" smooth="yes"/>
      <point x="130" y="481"/>
      <point x="34" y="372"/>
      <point x="34" y="232" type="curve" smooth="yes"/>
      <point x="34" y="95"/>
      <point x="130" y="-15"/>
      <point x="250" y="-15" type="curve" smooth="yes"/>
      <point x="370" y="-15"/>
      <point x="466" y="95"/>
      <point x="466" y="233" type="curve" smooth="yes"/>
      <point x="466" y="370"/>
      <point x="370" y="481"/>
    </contour>
    <contour>
      <point x="252" y="438" type="curve" smooth="yes"/>
      <point x="322" y="438"/>
      <point x="361" y="365"/>
      <point x="361" y="233" type="curve" smooth="yes"/>
      <point x="361" y="100"/>
      <point x="322" y="28"/>
      <point x="250" y="28" type="curve" smooth="yes"/>
      <point x="178" y="28"/>
      <point x="139" y="100"/>
      <point x="139" y="232" type="curve" smooth="yes"/>
      <point x="139" y="368"/>
      <point x="177" y="438"/>
    </contour>
  </outline>
</glyph>
<glyph name="p" format="1">
  <advance width="574"/>
  <unicode hex="0070"/>
  <outline>
    <contour>
      <point x="201" y="466" type="line"/>
      <point x="28" y="455" type="line"/>
      <point x="28" y="412" type="line"/>
      <point x="64" y="412" type="line" smooth="yes"/>
      <point x="101" y="412"/>
      <point x="107" y="405"/>
      <point x="107" y="362" type="curve" smooth="yes"/>
      <point x="107" y="-79" type="line"/>
      <point x="107" y="-119" type="line" smooth="yes"/>
      <point x="107" y="-159"/>
      <point x="96" y="-166"/>
      <point x="32" y="-166" type="curve" smooth="yes"/>
      <point x="28" y="-166" type="line"/>
      <point x="28" y="-202" type="line"/>
      <point x="288" y="-202" type="line"/>
      <point x="288" y="-166" type="line"/>
      <point x="277" y="-166" type="line" smooth="yes"/>
      <point x="212" y="-166"/>
      <point x="201" y="-159"/>
      <point x="201" y="-119" type="curve" smooth="yes"/>
      <point x="201" y="-79" type="line"/>
      <point x="201" y="66" type="line"/>
      <point x="234" y="8"/>
      <point x="272" y="-15"/>
      <point x="333" y="-15" type="curve" smooth="yes"/>
      <point x="449" y="-15"/>
      <point x="535" y="92"/>
      <point x="535" y="235" type="curve" smooth="yes"/>
      <point x="535" y="373"/>
      <point x="449" y="481"/>
      <point x="339" y="481" type="curve" smooth="yes"/>
      <point x="277" y="481"/>
      <point x="236" y="455"/>
      <point x="201" y="395" type="curve"/>
    </contour>
    <contour>
      <point x="321" y="427" type="curve" smooth="yes"/>
      <point x="390" y="427"/>
      <point x="430" y="358"/>
      <point x="430" y="241" type="curve" smooth="yes"/>
      <point x="430" y="112"/>
      <point x="389" y="39"/>
      <point x="318" y="39" type="curve" smooth="yes"/>
      <point x="247" y="39"/>
      <point x="200" y="113"/>
      <point x="200" y="228" type="curve" smooth="yes"/>
      <point x="200" y="352"/>
      <point x="245" y="427"/>
    </contour>
  </outline>
</glyph>
<glyph name="q" format="1">
  <advance width="556"/>
  <unicode hex="0071"/>
  <outline>
    <contour>
      <point x="449" y="466" type="line"/>
      <point x="402" y="398" type="line"/>
      <point x="362" y="454"/>
      <point x="313" y="481"/>
      <point x="250" y="481" type="curve" smooth="yes"/>
      <point x="128" y="481"/>
      <point x="36" y="370"/>
      <point x="36" y="222" type="curve" smooth="yes"/>
      <point x="36" y="85"/>
      <point x="122" y="-15"/>
      <point x="239" y="-15" type="curve" smooth="yes"/>
      <point x="301" y="-15"/>
      <point x="335" y="3"/>
      <point x="375" y="58" type="curve"/>
      <point x="375" y="-79" type="line"/>
      <point x="375" y="-119" type="line" smooth="yes"/>
      <point x="375" y="-159"/>
      <point x="364" y="-166"/>
      <point x="299" y="-166" type="curve" smooth="yes"/>
      <point x="288" y="-166" type="line"/>
      <point x="288" y="-202" type="line"/>
      <point x="548" y="-202" type="line"/>
      <point x="548" y="-166" type="line"/>
      <point x="544" y="-166" type="line" smooth="yes"/>
      <point x="480" y="-166"/>
      <point x="469" y="-159"/>
      <point x="469" y="-119" type="curve" smooth="yes"/>
      <point x="469" y="-79" type="line"/>
      <point x="469" y="309" type="line" smooth="yes"/>
      <point x="470" y="366"/>
      <point x="470" y="370"/>
      <point x="470" y="381" type="curve"/>
      <point x="472" y="400"/>
      <point x="475" y="414"/>
      <point x="486" y="466" type="curve"/>
    </contour>
    <contour>
      <point x="259" y="438" type="curve" smooth="yes"/>
      <point x="299" y="438"/>
      <point x="335" y="412"/>
      <point x="354" y="370" type="curve" smooth="yes"/>
      <point x="369" y="337"/>
      <point x="375" y="301"/>
      <point x="375" y="244" type="curve" smooth="yes"/>
      <point x="375" y="107"/>
      <point x="336" y="39"/>
      <point x="258" y="39" type="curve" smooth="yes"/>
      <point x="184" y="39"/>
      <point x="141" y="108"/>
      <point x="141" y="228" type="curve" smooth="yes"/>
      <point x="141" y="368"/>
      <point x="180" y="438"/>
    </contour>
  </outline>
</glyph>
<glyph name="v" format="1">
  <advance width="537"/>
  <unicode hex="0076"/>
  <outline>
    <contour>
      <point x="295" y="121" type="line"/>
      <point x="181" y="386" type="line"/>
      <point x="178" y="392"/>
      <point x="176" y="401"/>
      <point x="176" y="407" type="curve" smooth="yes"/>
      <point x="176" y="424"/>
      <point x="189" y="430"/>
      <point x="230" y="430" type="curve" smooth="yes"/>
      <point x="244" y="430" type="line"/>
      <point x="244" y="466" type="line"/>
      <point x="8" y="466" type="line"/>
      <point x="8" y="430" type="line"/>
      <point x="16" y="430" type="line" smooth="yes"/>
      <point x="54" y="430"/>
      <point x="68" y="421"/>
      <point x="82" y="387" type="curve" smooth="yes"/>
      <point x="254" y="-15" type="line"/>
      <point x="289" y="-15" type="line"/>
      <point x="431" y="336" type="line" smooth="yes"/>
      <point x="458" y="402"/>
      <point x="486" y="430"/>
      <point x="524" y="430" type="curve" smooth="yes"/>
      <point x="528" y="430" type="line"/>
      <point x="528" y="466" type="line"/>
      <point x="328" y="466" type="line"/>
      <point x="328" y="430" type="line"/>
      <point x="342" y="430" type="line" smooth="yes"/>
      <point x="377" y="430"/>
      <point x="396" y="418"/>
      <point x="396" y="395" type="curve" smooth="yes"/>
      <point x="396" y="384"/>
      <point x="392" y="368"/>
      <point x="387" y="353" type="curve"/>
    </contour>
  </outline>
</glyph>
<glyph name="w" format="1">
  <advance width="778"/>
  <unicode hex="0077"/>
  <outline>
    <contour>
      <point x="547" y="129" type="line"/>
      <point x="449" y="386" type="line" smooth="yes"/>
      <point x="446" y="393"/>
      <point x="445" y="398"/>
      <point x="445" y="407" type="curve" smooth="yes"/>
      <point x="445" y="425"/>
      <point x="454" y="430"/>
      <point x="487" y="430" type="curve" smooth="yes"/>
      <point x="511" y="430" type="line"/>
      <point x="511" y="466" type="line"/>
      <point x="287" y="466" type="line"/>
      <point x="287" y="430" type="line"/>
      <point x="304" y="430" type="line" smooth="yes"/>
      <point x="335" y="430"/>
      <point x="347" y="422"/>
      <point x="356" y="393" type="curve" smooth="yes"/>
      <point x="365" y="367" type="line"/>
      <point x="277" y="134" type="line"/>
      <point x="180" y="385" type="line"/>
      <point x="178" y="392"/>
      <point x="176" y="401"/>
      <point x="176" y="407" type="curve" smooth="yes"/>
      <point x="176" y="424"/>
      <point x="187" y="430"/>
      <point x="217" y="430" type="curve" smooth="yes"/>
      <point x="235" y="430" type="line"/>
      <point x="235" y="466" type="line"/>
      <point x="15" y="466" type="line"/>
      <point x="15" y="430" type="line"/>
      <point x="33" y="430" type="line" smooth="yes"/>
      <point x="61" y="430"/>
      <point x="71" y="421"/>
      <point x="85" y="381" type="curve" smooth="yes"/>
      <point x="235" y="-15" type="line"/>
      <point x="270" y="-15" type="line"/>
      <point x="389" y="301" type="line"/>
      <point x="511" y="-15" type="line"/>
      <point x="542" y="-15" type="line"/>
      <point x="682" y="354" type="line" smooth="yes"/>
      <point x="704" y="413"/>
      <point x="721" y="430"/>
      <point x="756" y="430" type="curve" smooth="yes"/>
      <point x="763" y="430" type="line"/>
      <point x="763" y="466" type="line"/>
      <point x="574" y="466" type="line"/>
      <point x="574" y="430" type="line"/>
      <point x="591" y="430" type="line" smooth="yes"/>
      <point x="626" y="430"/>
      <point x="640" y="419"/>
      <point x="640" y="394" type="curve" smooth="yes"/>
      <point x="640" y="384"/>
      <point x="637" y="369"/>
      <point x="632" y="357" type="curve" smooth="yes"/>
    </contour>
  </outline>
</glyph>
<glyph name="z" format="1">
  <advance width="481"/>
  <unicode hex="007A"/>
  <outline>
    <contour>
      <point x="428" y="466" type="line"/>
      <point x="67" y="466" type="line"/>
      <point x="58" y="297" type="line"/>
      <point x="98" y="297" type="line"/>
      <point x="107" y="387"/>
      <point x="143" y="423"/>
      <point x="225" y="423" type="curve" smooth="yes"/>
      <point x="312" y="423" type="line"/>
      <point x="39" y="36" type="line"/>
      <point x="39" y="0" type="line"/>
      <point x="428" y="0" type="line"/>
      <point x="435" y="179" type="line"/>
      <point x="395" y="179" type="line"/>
      <point x="385" y="80"/>
      <point x="347" y="43"/>
      <point x="257" y="43" type="curve" smooth="yes"/>
      <point x="155" y="43" type="line"/>
      <point x="428" y="430" type="line"/>
    </contour>
  </outline>
</glyph>
<glyph name="braceleft" format="1">
  <advance width="333"/>
  <unicode hex="007B"/>
  <outline>
    <contour>
      <point x="66" y="291" type="line"/>
      <point x="104" y="278"/>
      <point x="116" y="271"/>
      <point x="128" y="254" type="curve"/>
      <point x="140" y="235"/>
      <point x="142" y="224"/>
      <point x="142" y="158" type="curve" smooth="yes"/>
      <point x="142" y="42" type="line" smooth="yes"/>
      <point x="142" y="-24"/>
      <point x="152" y="-59"/>
      <point x="177" y="-81" type="curve" smooth="yes"/>
      <point x="195" y="-97"/>
      <point x="234" y="-108"/>
      <point x="271" y="-108" type="curve" smooth="yes"/>
      <point x="297" y="-108" type="line"/>
      <point x="297" y="-74" type="line"/>
      <point x="232" y="-70"/>
      <point x="216" y="-44"/>
      <point x="216" y="52" type="curve" smooth="yes"/>
      <point x="216" y="182" type="line" smooth="yes"/>
      <point x="216" y="251"/>
      <point x="203" y="274"/>
      <point x="149" y="307" type="curve"/>
      <point x="203" y="340"/>
      <point x="216" y="363"/>
      <point x="216" y="432" type="curve" smooth="yes"/>
      <point x="216" y="562" type="line" smooth="yes"/>
      <point x="216" y="658"/>
      <point x="232" y="684"/>
      <point x="297" y="688" type="curve"/>
      <point x="297" y="722" type="line"/>
      <point x="271" y="722" type="line" smooth="yes"/>
      <point x="234" y="722"/>
      <point x="195" y="711"/>
      <point x="177" y="695" type="curve" smooth="yes"/>
      <point x="152" y="673"/>
      <point x="142" y="638"/>
      <point x="142" y="572" type="curve" smooth="yes"/>
      <point x="142" y="456" type="line" smooth="yes"/>
      <point x="142" y="395"/>
      <point x="141" y="386"/>
      <point x="132" y="368" type="curve" smooth="yes"/>
      <point x="122" y="346"/>
      <point x="108" y="337"/>
      <point x="66" y="323" type="curve"/>
    </contour>
  </outline>
</glyph>
<glyph name="braceright" format="1">
  <advance width="333"/>
  <unicode hex="007D"/>
  <outline>
    <contour>
      <point x="267" y="323" type="line"/>
      <point x="228" y="336"/>
      <point x="216" y="343"/>
      <point x="205" y="360" type="curve" smooth="yes"/>
      <point x="192" y="379"/>
      <point x="190" y="390"/>
      <point x="190" y="456" type="curve" smooth="yes"/>
      <point x="190" y="572" type="line" smooth="yes"/>
      <point x="190" y="638"/>
      <point x="180" y="674"/>
      <point x="155" y="695" type="curve" smooth="yes"/>
      <point x="137" y="711"/>
      <point x="98" y="722"/>
      <point x="61" y="722" type="curve" smooth="yes"/>
      <point x="36" y="722" type="line"/>
      <point x="36" y="688" type="line"/>
      <point x="100" y="684"/>
      <point x="116" y="658"/>
      <point x="116" y="562" type="curve" smooth="yes"/>
      <point x="116" y="432" type="line" smooth="yes"/>
      <point x="116" y="363"/>
      <point x="129" y="340"/>
      <point x="183" y="307" type="curve"/>
      <point x="129" y="274"/>
      <point x="116" y="251"/>
      <point x="116" y="182" type="curve" smooth="yes"/>
      <point x="116" y="52" type="line" smooth="yes"/>
      <point x="116" y="-44"/>
      <point x="100" y="-70"/>
      <point x="36" y="-74" type="curve"/>
      <point x="36" y="-108" type="line"/>
      <point x="61" y="-108" type="line" smooth="yes"/>
      <point x="98" y="-108"/>
      <point x="137" y="-97"/>
      <point x="155" y="-81" type="curve" smooth="yes"/>
      <point x="180" y="-60"/>
      <point x="190" y="-24"/>
      <point x="190" y="42" type="curve" smooth="yes"/>
      <point x="190" y="158" type="line" smooth="yes"/>
      <point x="190" y="219"/>
      <point x="191" y="228"/>
      <point x="200" y="246" type="curve" smooth="yes"/>
      <point x="211" y="268"/>
      <point x="224" y="277"/>
      <point x="267" y="291" type="curve"/>
    </contour>
  </outline>
</glyph>
<glyph name="asciitilde" format="1">
  <advance width="606"/>
  <unicode hex="007E"/>
  <outline>
    <contour>
      <point x="104" y="182" type="line"/>
      <point x="131" y="223"/>
      <point x="162" y="247"/>
      <point x="190" y="247" type="curve" smooth="yes"/>
      <point x="210" y="247"/>
      <point x="212" y="246"/>
      <point x="270" y="219" type="curve" smooth="yes"/>
      <point x="316" y="196" type="line" smooth="yes"/>
      <point x="366" y="173"/>
      <point x="390" y="165"/>
      <point x="415" y="165" type="curve" smooth="yes"/>
      <point x="463" y="165"/>
      <point x="518" y="207"/>
      <point x="555" y="272" type="curve"/>
      <point x="502" y="310" type="line"/>
      <point x="475" y="269"/>
      <point x="444" y="245"/>
      <point x="416" y="245" type="curve" smooth="yes"/>
      <point x="396" y="245"/>
      <point x="389" y="247"/>
      <point x="336" y="273" type="curve" smooth="yes"/>
      <point x="290" y="295" type="line" smooth="yes"/>
      <point x="238" y="320"/>
      <point x="216" y="327"/>
      <point x="191" y="327" type="curve" smooth="yes"/>
      <point x="143" y="327"/>
      <point x="88" y="285"/>
      <point x="51" y="220" type="curve"/>
    </contour>
  </outline>
</glyph>
<glyph name="exclamdown" format="1">
  <advance width="296"/>
  <unicode hex="00A1"/>
  <outline>
    <contour>
      <point x="129" y="343" type="line"/>
      <point x="128" y="166"/>
      <point x="124" y="117"/>
      <point x="105" y="23" type="curve" smooth="yes"/>
      <point x="91" y="-46"/>
      <point x="87" y="-78"/>
      <point x="87" y="-107" type="curve" smooth="yes"/>
      <point x="87" y="-170"/>
      <point x="108" y="-202"/>
      <point x="148" y="-202" type="curve" smooth="yes"/>
      <point x="189" y="-202"/>
      <point x="210" y="-170"/>
      <point x="210" y="-108" type="curve" smooth="yes"/>
      <point x="210" y="-78"/>
      <point x="206" y="-46"/>
      <point x="192" y="23" type="curve" smooth="yes"/>
      <point x="173" y="117"/>
      <point x="170" y="164"/>
      <point x="168" y="343" type="curve"/>
    </contour>
    <contour>
      <point x="149" y="549" type="curve" smooth="yes"/>
      <point x="114" y="549"/>
      <point x="86" y="521"/>
      <point x="86" y="486" type="curve" smooth="yes"/>
      <point x="86" y="452"/>
      <point x="114" y="424"/>
      <point x="148" y="424" type="curve" smooth="yes"/>
      <point x="183" y="424"/>
      <point x="211" y="452"/>
      <point x="211" y="486" type="curve" smooth="yes"/>
      <point x="211" y="521"/>
      <point x="183" y="549"/>
    </contour>
  </outline>
</glyph>
<glyph name="cent" format="1">
  <advance width="556"/>
  <unicode hex="00A2"/>
  <outline>
    <contour>
      <point x="241" y="-9" type="line"/>
      <point x="260" y="-13"/>
      <point x="275" y="-15"/>
      <point x="293" y="-15" type="curve" smooth="yes"/>
      <point x="383" y="-15"/>
      <point x="446" y="35"/>
      <point x="479" y="133" type="curve"/>
      <point x="440" y="147" type="line"/>
      <point x="413" y="79"/>
      <point x="373" y="48"/>
      <point x="312" y="48" type="curve" smooth="yes"/>
      <point x="296" y="48"/>
      <point x="286" y="50"/>
      <point x="267" y="56" type="curve"/>
      <point x="366" y="310" type="line"/>
      <point x="379" y="299"/>
      <point x="389" y="295"/>
      <point x="405" y="295" type="curve" smooth="yes"/>
      <point x="440" y="295"/>
      <point x="470" y="325"/>
      <point x="470" y="360" type="curve" smooth="yes"/>
      <point x="470" y="392"/>
      <point x="449" y="430"/>
      <point x="421" y="450" type="curve"/>
      <point x="474" y="585" type="line"/>
      <point x="431" y="585" type="line"/>
      <point x="385" y="468" type="line"/>
      <point x="360" y="477"/>
      <point x="337" y="481"/>
      <point x="307" y="481" type="curve" smooth="yes"/>
      <point x="168" y="481"/>
      <point x="71" y="375"/>
      <point x="71" y="224" type="curve" smooth="yes"/>
      <point x="71" y="121"/>
      <point x="120" y="40"/>
      <point x="203" y="4" type="curve"/>
      <point x="146" y="-141" type="line"/>
      <point x="189" y="-141" type="line"/>
    </contour>
    <contour>
      <point x="231" y="76" type="line"/>
      <point x="195" y="107"/>
      <point x="175" y="164"/>
      <point x="175" y="240" type="curve" smooth="yes"/>
      <point x="175" y="364"/>
      <point x="226" y="438"/>
      <point x="311" y="438" type="curve" smooth="yes"/>
      <point x="335" y="438"/>
      <point x="355" y="432"/>
      <point x="367" y="421" type="curve"/>
    </contour>
  </outline>
</glyph>
<glyph name="sterling" format="1">
  <advance width="556"/>
  <unicode hex="00A3"/>
  <outline>
    <contour>
      <point x="432" y="372" type="line"/>
      <point x="263" y="372" type="line"/>
      <point x="254" y="410"/>
      <point x="254" y="413"/>
      <point x="247" y="439" type="curve" smooth="yes"/>
      <point x="232" y="505"/>
      <point x="230" y="519"/>
      <point x="230" y="543" type="curve" smooth="yes"/>
      <point x="230" y="617"/>
      <point x="273" y="661"/>
      <point x="344" y="661" type="curve" smooth="yes"/>
      <point x="390" y="661"/>
      <point x="436" y="637"/>
      <point x="436" y="613" type="curve" smooth="yes"/>
      <point x="436" y="606"/>
      <point x="432" y="601"/>
      <point x="421" y="596" type="curve" smooth="yes"/>
      <point x="385" y="578"/>
      <point x="374" y="565"/>
      <point x="374" y="537" type="curve" smooth="yes"/>
      <point x="374" y="503"/>
      <point x="399" y="478"/>
      <point x="434" y="478" type="curve" smooth="yes"/>
      <point x="476" y="478"/>
      <point x="506" y="513"/>
      <point x="506" y="562" type="curve" smooth="yes"/>
      <point x="506" y="644"/>
      <point x="431" y="704"/>
      <point x="329" y="704" type="curve" smooth="yes"/>
      <point x="211" y="704"/>
      <point x="131" y="624"/>
      <point x="131" y="506" type="curve" smooth="yes"/>
      <point x="131" y="468"/>
      <point x="136" y="443"/>
      <point x="156" y="372" type="curve"/>
      <point x="36" y="372" type="line"/>
      <point x="36" y="325" type="line"/>
      <point x="170" y="325" type="line"/>
      <point x="195" y="254"/>
      <point x="203" y="215"/>
      <point x="203" y="172" type="curve" smooth="yes"/>
      <point x="203" y="159"/>
      <point x="201" y="148"/>
      <point x="196" y="128" type="curve"/>
      <point x="157" y="145"/>
      <point x="136" y="151"/>
      <point x="111" y="151" type="curve" smooth="yes"/>
      <point x="55" y="151"/>
      <point x="17" y="116"/>
      <point x="17" y="65" type="curve" smooth="yes"/>
      <point x="17" y="18"/>
      <point x="53" y="-15"/>
      <point x="104" y="-15" type="curve" smooth="yes"/>
      <point x="147" y="-15"/>
      <point x="179" y="2"/>
      <point x="218" y="44" type="curve"/>
      <point x="276" y="2"/>
      <point x="321" y="-15"/>
      <point x="371" y="-15" type="curve" smooth="yes"/>
      <point x="455" y="-15"/>
      <point x="514" y="42"/>
      <point x="537" y="147" type="curve"/>
      <point x="502" y="162" type="line"/>
      <point x="474" y="96"/>
      <point x="441" y="72"/>
      <point x="376" y="72" type="curve" smooth="yes"/>
      <point x="339" y="72"/>
      <point x="309" y="80"/>
      <point x="255" y="106" type="curve"/>
      <point x="273" y="142"/>
      <point x="282" y="188"/>
      <point x="282" y="238" type="curve" smooth="yes"/>
      <point x="282" y="269"/>
      <point x="279" y="291"/>
      <point x="272" y="325" type="curve"/>
      <point x="432" y="325" type="line"/>
    </contour>
    <contour>
      <point x="178" y="75" type="curve"/>
      <point x="157" y="39"/>
      <point x="136" y="25"/>
      <point x="107" y="25" type="curve" smooth="yes"/>
      <point x="80" y="25"/>
      <point x="58" y="44"/>
      <point x="58" y="68" type="curve" smooth="yes"/>
      <point x="58" y="91"/>
      <point x="78" y="110"/>
      <point x="101" y="110" type="curve" smooth="yes"/>
      <point x="125" y="110"/>
      <point x="146" y="100"/>
    </contour>
  </outline>
</glyph>
<glyph name="currency" format="1">
  <advance width="556"/>
  <unicode hex="00A4"/>
  <outline>
    <contour>
      <point x="426" y="544" type="line"/>
      <point x="380" y="578"/>
      <point x="329" y="596"/>
      <point x="275" y="596" type="curve" smooth="yes"/>
      <point x="222" y="596"/>
      <point x="172" y="579"/>
      <point x="128" y="546" type="curve"/>
      <point x="77" y="597" type="line"/>
      <point x="26" y="545" type="line"/>
      <point x="77" y="495" type="line"/>
      <point x="45" y="454"/>
      <point x="27" y="400"/>
      <point x="27" y="348" type="curve" smooth="yes"/>
      <point x="27" y="294"/>
      <point x="45" y="243"/>
      <point x="79" y="197" type="curve"/>
      <point x="26" y="144" type="line"/>
      <point x="77" y="93" type="line"/>
      <point x="130" y="146" type="line"/>
      <point x="173" y="113"/>
      <point x="228" y="94"/>
      <point x="281" y="94" type="curve" smooth="yes"/>
      <point x="333" y="94"/>
      <point x="385" y="111"/>
      <point x="428" y="144" type="curve"/>
      <point x="479" y="93" type="line"/>
      <point x="530" y="144" type="line"/>
      <point x="479" y="195" type="line"/>
      <point x="512" y="238"/>
      <point x="529" y="288"/>
      <point x="529" y="342" type="curve" smooth="yes"/>
      <point x="529" y="396"/>
      <point x="511" y="449"/>
      <point x="477" y="493" type="curve"/>
      <point x="530" y="545" type="line"/>
      <point x="479" y="597" type="line"/>
    </contour>
    <contour>
      <point x="278" y="514" type="curve" smooth="yes"/>
      <point x="371" y="514"/>
      <point x="447" y="438"/>
      <point x="447" y="345" type="curve" smooth="yes"/>
      <point x="447" y="251"/>
      <point x="372" y="176"/>
      <point x="276" y="176" type="curve" smooth="yes"/>
      <point x="185" y="176"/>
      <point x="109" y="253"/>
      <point x="109" y="345" type="curve" smooth="yes"/>
      <point x="109" y="438"/>
      <point x="185" y="514"/>
    </contour>
  </outline>
</glyph>
<glyph name="yen" format="1">
  <advance width="556"/>
  <unicode hex="00A5"/>
  <outline>
    <contour>
      <point x="356" y="332" type="line"/>
      <point x="453" y="568" type="line" smooth="yes"/>
      <point x="472" y="614"/>
      <point x="478" y="625"/>
      <point x="490" y="641" type="curve" smooth="yes"/>
      <point x="505" y="662"/>
      <point x="529" y="675"/>
      <point x="553" y="675" type="curve" smooth="yes"/>
      <point x="557" y="675" type="line"/>
      <point x="557" y="722" type="line"/>
      <point x="353" y="722" type="line"/>
      <point x="353" y="675" type="line"/>
      <point x="370" y="675" type="line" smooth="yes"/>
      <point x="402" y="675"/>
      <point x="416" y="662"/>
      <point x="416" y="631" type="curve" smooth="yes"/>
      <point x="416" y="615"/>
      <point x="412" y="595"/>
      <point x="404" y="578" type="curve" smooth="yes"/>
      <point x="313" y="357" type="line"/>
      <point x="188" y="628" type="line" smooth="yes"/>
      <point x="183" y="638"/>
      <point x="180" y="649"/>
      <point x="180" y="656" type="curve" smooth="yes"/>
      <point x="180" y="670"/>
      <point x="188" y="675"/>
      <point x="208" y="675" type="curve" smooth="yes"/>
      <point x="232" y="675" type="line"/>
      <point x="232" y="722" type="line"/>
      <point x="-1" y="722" type="line"/>
      <point x="-1" y="675" type="line"/>
      <point x="13" y="675" type="line" smooth="yes"/>
      <point x="44" y="675"/>
      <point x="54" y="667"/>
      <point x="72" y="629" type="curve" smooth="yes"/>
      <point x="209" y="332" type="line"/>
      <point x="114" y="332" type="line"/>
      <point x="114" y="285" type="line"/>
      <point x="230" y="285" type="line"/>
      <point x="230" y="199" type="line"/>
      <point x="114" y="199" type="line"/>
      <point x="114" y="152" type="line"/>
      <point x="230" y="152" type="line"/>
      <point x="230" y="123" type="line"/>
      <point x="230" y="95" type="line" smooth="yes"/>
      <point x="230" y="52"/>
      <point x="224" y="47"/>
      <point x="163" y="47" type="curve" smooth="yes"/>
      <point x="144" y="47" type="line"/>
      <point x="144" y="0" type="line"/>
      <point x="429" y="0" type="line"/>
      <point x="429" y="47" type="line"/>
      <point x="410" y="47" type="line" smooth="yes"/>
      <point x="370" y="47"/>
      <point x="353" y="51"/>
      <point x="347" y="61" type="curve" smooth="yes"/>
      <point x="342" y="69"/>
      <point x="342" y="69"/>
      <point x="342" y="123" type="curve" smooth="yes"/>
      <point x="342" y="152" type="line"/>
      <point x="457" y="152" type="line"/>
      <point x="457" y="199" type="line"/>
      <point x="342" y="199" type="line"/>
      <point x="342" y="285" type="line"/>
      <point x="457" y="285" type="line"/>
      <point x="457" y="332" type="line"/>
    </contour>
  </outline>
</glyph>
<glyph name="section" format="1">
  <advance width="500"/>
  <unicode hex="00A7"/>
  <outline>
    <contour>
      <point x="242" y="538" type="line" smooth="yes"/>
      <point x="193" y="579"/>
      <point x="174" y="605"/>
      <point x="174" y="633" type="curve" smooth="yes"/>
      <point x="174" y="673"/>
      <point x="209" y="703"/>
      <point x="256" y="703" type="curve" smooth="yes"/>
      <point x="288" y="703"/>
      <point x="319" y="690"/>
      <point x="319" y="676" type="curve" smooth="yes"/>
      <point x="319" y="672"/>
      <point x="317" y="670"/>
      <point x="310" y="665" type="curve" smooth="yes"/>
      <point x="293" y="653"/>
      <point x="284" y="638"/>
      <point x="284" y="620" type="curve" smooth="yes"/>
      <point x="284" y="592"/>
      <point x="307" y="571"/>
      <point x="339" y="571" type="curve" smooth="yes"/>
      <point x="370" y="571"/>
      <point x="394" y="595"/>
      <point x="394" y="626" type="curve" smooth="yes"/>
      <point x="394" y="685"/>
      <point x="329" y="736"/>
      <point x="252" y="736" type="curve" smooth="yes"/>
      <point x="166" y="736"/>
      <point x="105" y="681"/>
      <point x="105" y="604" type="curve" smooth="yes"/>
      <point x="105" y="567"/>
      <point x="119" y="531"/>
      <point x="146" y="501" type="curve"/>
      <point x="159" y="485"/>
      <point x="164" y="481"/>
      <point x="200" y="446" type="curve"/>
      <point x="183" y="446" type="line" smooth="yes"/>
      <point x="113" y="446"/>
      <point x="58" y="389"/>
      <point x="58" y="315" type="curve" smooth="yes"/>
      <point x="58" y="251"/>
      <point x="88" y="203"/>
      <point x="168" y="137" type="curve" smooth="yes"/>
      <point x="246" y="73" type="line" smooth="yes"/>
      <point x="320" y="12"/>
      <point x="337" y="-11"/>
      <point x="337" y="-46" type="curve" smooth="yes"/>
      <point x="337" y="-86"/>
      <point x="300" y="-115"/>
      <point x="250" y="-115" type="curve" smooth="yes"/>
      <point x="219" y="-115"/>
      <point x="187" y="-101"/>
      <point x="187" y="-88" type="curve" smooth="yes"/>
      <point x="187" y="-85"/>
      <point x="190" y="-81"/>
      <point x="195" y="-77" type="curve" smooth="yes"/>
      <point x="215" y="-62"/>
      <point x="222" y="-51"/>
      <point x="222" y="-32" type="curve" smooth="yes"/>
      <point x="222" y="-3"/>
      <point x="199" y="18"/>
      <point x="167" y="18" type="curve" smooth="yes"/>
      <point x="136" y="18"/>
      <point x="112" y="-6"/>
      <point x="112" y="-37" type="curve" smooth="yes"/>
      <point x="112" y="-97"/>
      <point x="178" y="-148"/>
      <point x="255" y="-148" type="curve" smooth="yes"/>
      <point x="342" y="-148"/>
      <point x="406" y="-91"/>
      <point x="406" y="-16" type="curve" smooth="yes"/>
      <point x="406" y="23"/>
      <point x="387" y="65"/>
      <point x="356" y="96" type="curve" smooth="yes"/>
      <point x="343" y="110"/>
      <point x="339" y="114"/>
      <point x="303" y="143" type="curve"/>
      <point x="311" y="142"/>
      <point x="317" y="142"/>
      <point x="321" y="142" type="curve" smooth="yes"/>
      <point x="392" y="142"/>
      <point x="448" y="203"/>
      <point x="448" y="282" type="curve" smooth="yes"/>
      <point x="448" y="314"/>
      <point x="440" y="340"/>
      <point x="419" y="370" type="curve" smooth="yes"/>
      <point x="401" y="397"/>
      <point x="376" y="425"/>
      <point x="352" y="446" type="curve" smooth="yes"/>
    </contour>
    <contour>
      <point x="196" y="419" type="curve" smooth="yes"/>
      <point x="221" y="419"/>
      <point x="253" y="404"/>
      <point x="289" y="375" type="curve" smooth="yes"/>
      <point x="354" y="321"/>
      <point x="382" y="280"/>
      <point x="382" y="240" type="curve" smooth="yes"/>
      <point x="382" y="202"/>
      <point x="350" y="168"/>
      <point x="314" y="168" type="curve" smooth="yes"/>
      <point x="281" y="168"/>
      <point x="246" y="188"/>
      <point x="195" y="235" type="curve" smooth="yes"/>
      <point x="139" y="286"/>
      <point x="124" y="309"/>
      <point x="124" y="346" type="curve" smooth="yes"/>
      <point x="124" y="388"/>
      <point x="155" y="419"/>
    </contour>
  </outline>
</glyph>
<glyph name="dieresis" format="1">
  <advance width="333"/>
  <unicode hex="00A8"/>
  <outline>
    <contour>
      <point x="67" y="644" type="curve" smooth="yes"/>
      <point x="40" y="644"/>
      <point x="17" y="621"/>
      <point x="17" y="594" type="curve" smooth="yes"/>
      <point x="17" y="567"/>
      <point x="40" y="544"/>
      <point x="66" y="544" type="curve" smooth="yes"/>
      <point x="94" y="544"/>
      <point x="117" y="566"/>
      <point x="117" y="594" type="curve" smooth="yes"/>
      <point x="117" y="621"/>
      <point x="94" y="644"/>
    </contour>
    <contour>
      <point x="266" y="644" type="curve" smooth="yes"/>
      <point x="239" y="644"/>
      <point x="216" y="621"/>
      <point x="216" y="594" type="curve" smooth="yes"/>
      <point x="216" y="567"/>
      <point x="239" y="544"/>
      <point x="265" y="544" type="curve" smooth="yes"/>
      <point x="293" y="544"/>
      <point x="316" y="566"/>
      <point x="316" y="594" type="curve" smooth="yes"/>
      <point x="316" y="621"/>
      <point x="293" y="644"/>
    </contour>
  </outline>
</glyph>
<glyph name="copyright" format="1">
  <advance width="737"/>
  <unicode hex="00A9"/>
  <outline>
    <contour>
      <point x="522" y="582" type="line"/>
      <point x="489" y="582" type="line"/>
      <point x="468" y="551" type="line"/>
      <point x="427" y="579"/>
      <point x="406" y="586"/>
      <point x="368" y="586" type="curve" smooth="yes"/>
      <point x="256" y="586"/>
      <point x="166" y="484"/>
      <point x="166" y="359" type="curve" smooth="yes"/>
      <point x="166" y="232"/>
      <point x="251" y="140"/>
      <point x="368" y="140" type="curve" smooth="yes"/>
      <point x="466" y="140"/>
      <point x="525" y="197"/>
      <point x="539" y="303" type="curve"/>
      <point x="499" y="310" type="line"/>
      <point x="484" y="222"/>
      <point x="444" y="181"/>
      <point x="374" y="181" type="curve" smooth="yes"/>
      <point x="294" y="181"/>
      <point x="256" y="238"/>
      <point x="256" y="356" type="curve" smooth="yes"/>
      <point x="256" y="480"/>
      <point x="294" y="545"/>
      <point x="368" y="545" type="curve" smooth="yes"/>
      <point x="429" y="545"/>
      <point x="468" y="501"/>
      <point x="493" y="401" type="curve"/>
      <point x="531" y="401" type="line"/>
    </contour>
    <contour>
      <point x="368" y="737" type="curve" smooth="yes"/>
      <point x="161" y="737"/>
      <point x="-8" y="568"/>
      <point x="-8" y="361" type="curve" smooth="yes"/>
      <point x="-8" y="156"/>
      <point x="161" y="-15"/>
      <point x="363" y="-15" type="curve" smooth="yes"/>
      <point x="576" y="-15"/>
      <point x="744" y="151"/>
      <point x="744" y="362" type="curve" smooth="yes"/>
      <point x="744" y="569"/>
      <point x="575" y="737"/>
    </contour>
    <contour>
      <point x="369" y="691" type="curve" smooth="yes"/>
      <point x="548" y="691"/>
      <point x="695" y="543"/>
      <point x="695" y="362" type="curve" smooth="yes"/>
      <point x="695" y="177"/>
      <point x="549" y="31"/>
      <point x="365" y="31" type="curve" smooth="yes"/>
      <point x="189" y="31"/>
      <point x="42" y="181"/>
      <point x="42" y="361" type="curve" smooth="yes"/>
      <point x="42" y="543"/>
      <point x="188" y="691"/>
    </contour>
  </outline>
</glyph>
<glyph name="ordfeminine" format="1">
  <advance width="334"/>
  <unicode hex="00AA"/>
  <outline>
    <contour>
      <point x="270" y="635" type="line" smooth="yes"/>
      <point x="270" y="673"/>
      <point x="263" y="692"/>
      <point x="244" y="706" type="curve" smooth="yes"/>
      <point x="222" y="722"/>
      <point x="190" y="730"/>
      <point x="149" y="730" type="curve" smooth="yes"/>
      <point x="76" y="730"/>
      <point x="22" y="698"/>
      <point x="22" y="655" type="curve" smooth="yes"/>
      <point x="22" y="633"/>
      <point x="37" y="618"/>
      <point x="60" y="618" type="curve" smooth="yes"/>
      <point x="80" y="618"/>
      <point x="95" y="631"/>
      <point x="95" y="649" type="curve" smooth="yes"/>
      <point x="95" y="657"/>
      <point x="92" y="664"/>
      <point x="85" y="673" type="curve"/>
      <point x="82" y="678"/>
      <point x="81" y="679"/>
      <point x="81" y="681" type="curve" smooth="yes"/>
      <point x="81" y="694"/>
      <point x="107" y="704"/>
      <point x="138" y="704" type="curve" smooth="yes"/>
      <point x="162" y="704"/>
      <point x="187" y="696"/>
      <point x="196" y="685" type="curve"/>
      <point x="205" y="676"/>
      <point x="209" y="662"/>
      <point x="209" y="639" type="curve" smooth="yes"/>
      <point x="209" y="615" type="line"/>
      <point x="139" y="604"/>
      <point x="120" y="599"/>
      <point x="88" y="588" type="curve" smooth="yes"/>
      <point x="32" y="569"/>
      <point x="5" y="541"/>
      <point x="5" y="503" type="curve" smooth="yes"/>
      <point x="5" y="460"/>
      <point x="42" y="433"/>
      <point x="99" y="433" type="curve" smooth="yes"/>
      <point x="144" y="433"/>
      <point x="184" y="450"/>
      <point x="213" y="480" type="curve"/>
      <point x="223" y="450"/>
      <point x="239" y="438"/>
      <point x="269" y="438" type="curve" smooth="yes"/>
      <point x="298" y="438"/>
      <point x="329" y="456"/>
      <point x="329" y="473" type="curve" smooth="yes"/>
      <point x="329" y="477"/>
      <point x="326" y="480"/>
      <point x="322" y="480" type="curve" smooth="yes"/>
      <point x="320" y="480"/>
      <point x="317" y="479"/>
      <point x="312" y="477" type="curve"/>
      <point x="300" y="473"/>
      <point x="300" y="473"/>
      <point x="294" y="473" type="curve" smooth="yes"/>
      <point x="277" y="473"/>
      <point x="270" y="485"/>
      <point x="270" y="514" type="curve" smooth="yes"/>
    </contour>
    <contour>
      <point x="209" y="562" type="line" smooth="yes"/>
      <point x="209" y="525"/>
      <point x="207" y="517"/>
      <point x="196" y="501" type="curve"/>
      <point x="179" y="479"/>
      <point x="150" y="464"/>
      <point x="122" y="464" type="curve" smooth="yes"/>
      <point x="93" y="464"/>
      <point x="71" y="484"/>
      <point x="71" y="511" type="curve" smooth="yes"/>
      <point x="71" y="555"/>
      <point x="103" y="573"/>
      <point x="209" y="590" type="curve"/>
    </contour>
    <contour>
      <point x="23" y="369" type="line"/>
      <point x="23" y="329" type="line"/>
      <point x="283" y="329" type="line"/>
      <point x="283" y="369" type="line"/>
    </contour>
  </outline>
</glyph>
<glyph name="guillemotleft" format="1">
  <advance width="426"/>
  <unicode hex="00AB"/>
  <outline>
    <contour>
      <point x="266" y="185" type="line"/>
      <point x="314" y="138" type="line"/>
      <point x="353" y="100" type="line"/>
      <point x="363" y="89"/>
      <point x="369" y="85"/>
      <point x="375" y="85" type="curve" smooth="yes"/>
      <point x="381" y="85"/>
      <point x="387" y="90"/>
      <point x="387" y="96" type="curve" smooth="yes"/>
      <point x="387" y="106"/>
      <point x="376" y="124"/>
      <point x="292" y="243" type="curve"/>
      <point x="304" y="263"/>
      <point x="307" y="268"/>
      <point x="344" y="318" type="curve" smooth="yes"/>
      <point x="373" y="356"/>
      <point x="388" y="381"/>
      <point x="388" y="390" type="curve" smooth="yes"/>
      <point x="388" y="396"/>
      <point x="383" y="402"/>
      <point x="377" y="402" type="curve" smooth="yes"/>
      <point x="369" y="402"/>
      <point x="365" y="398"/>
      <point x="315" y="349" type="curve" smooth="yes"/>
      <point x="205" y="243" type="line"/>
      <point x="212" y="237"/>
      <point x="218" y="231"/>
      <point x="225" y="224" type="curve" smooth="yes"/>
    </contour>
    <contour>
      <point x="99" y="185" type="line"/>
      <point x="147" y="138" type="line"/>
      <point x="186" y="100" type="line"/>
      <point x="196" y="89"/>
      <point x="202" y="85"/>
      <point x="208" y="85" type="curve" smooth="yes"/>
      <point x="214" y="85"/>
      <point x="220" y="90"/>
      <point x="220" y="96" type="curve" smooth="yes"/>
      <point x="220" y="106"/>
      <point x="209" y="124"/>
      <point x="125" y="243" type="curve"/>
      <point x="176" y="318" type="line" smooth="yes"/>
      <point x="209" y="364"/>
      <point x="220" y="382"/>
      <point x="220" y="390" type="curve" smooth="yes"/>
      <point x="220" y="396"/>
      <point x="215" y="402"/>
      <point x="209" y="402" type="curve" smooth="yes"/>
      <point x="203" y="402"/>
      <point x="196" y="398"/>
      <point x="186" y="387" type="curve"/>
      <point x="38" y="243" type="line"/>
      <point x="45" y="237"/>
      <point x="51" y="231"/>
      <point x="58" y="224" type="curve" smooth="yes"/>
    </contour>
  </outline>
</glyph>
<glyph name="registered" format="1">
  <advance width="737"/>
  <unicode hex="00AE"/>
  <outline>
    <contour>
      <point x="313" y="365" type="line"/>
      <point x="339" y="365" type="line" smooth="yes"/>
      <point x="391" y="365"/>
      <point x="413" y="342"/>
      <point x="419" y="283" type="curve" smooth="yes"/>
      <point x="423" y="253" type="line" smooth="yes"/>
      <point x="430" y="183"/>
      <point x="453" y="155"/>
      <point x="503" y="155" type="curve" smooth="yes"/>
      <point x="552" y="155"/>
      <point x="581" y="192"/>
      <point x="581" y="257" type="curve" smooth="yes"/>
      <point x="581" y="270" type="line"/>
      <point x="543" y="270" type="line"/>
      <point x="543" y="233"/>
      <point x="537" y="213"/>
      <point x="526" y="213" type="curve" smooth="yes"/>
      <point x="516" y="213"/>
      <point x="514" y="217"/>
      <point x="504" y="257" type="curve" smooth="yes"/>
      <point x="495" y="294" type="line" smooth="yes"/>
      <point x="482" y="341"/>
      <point x="468" y="361"/>
      <point x="435" y="378" type="curve"/>
      <point x="507" y="397"/>
      <point x="537" y="428"/>
      <point x="537" y="483" type="curve" smooth="yes"/>
      <point x="537" y="553"/>
      <point x="480" y="593"/>
      <point x="378" y="593" type="curve" smooth="yes"/>
      <point x="171" y="593" type="line"/>
      <point x="171" y="552" type="line"/>
      <point x="189" y="552" type="line" smooth="yes"/>
      <point x="216" y="552"/>
      <point x="229" y="551"/>
      <point x="232" y="547" type="curve"/>
      <point x="234" y="544"/>
      <point x="234" y="544"/>
      <point x="234" y="515" type="curve" smooth="yes"/>
      <point x="234" y="241" type="line" smooth="yes"/>
      <point x="234" y="213"/>
      <point x="234" y="212"/>
      <point x="232" y="210" type="curve"/>
      <point x="229" y="206"/>
      <point x="214" y="204"/>
      <point x="189" y="204" type="curve" smooth="yes"/>
      <point x="171" y="204" type="line"/>
      <point x="171" y="163" type="line"/>
      <point x="374" y="163" type="line"/>
      <point x="374" y="204" type="line"/>
      <point x="357" y="204" type="line" smooth="yes"/>
      <point x="333" y="204"/>
      <point x="318" y="206"/>
      <point x="315" y="210" type="curve"/>
      <point x="313" y="212"/>
      <point x="313" y="216"/>
      <point x="313" y="241" type="curve" smooth="yes"/>
    </contour>
    <contour>
      <point x="313" y="406" type="line"/>
      <point x="313" y="526" type="line" smooth="yes"/>
      <point x="313" y="552"/>
      <point x="313" y="552"/>
      <point x="345" y="552" type="curve" smooth="yes"/>
      <point x="376" y="552" type="line" smooth="yes"/>
      <point x="431" y="552"/>
      <point x="452" y="533"/>
      <point x="452" y="482" type="curve" smooth="yes"/>
      <point x="452" y="430"/>
      <point x="426" y="406"/>
      <point x="368" y="406" type="curve" smooth="yes"/>
    </contour>
    <contour>
      <point x="368" y="737" type="curve" smooth="yes"/>
      <point x="161" y="737"/>
      <point x="-8" y="568"/>
      <point x="-8" y="361" type="curve" smooth="yes"/>
      <point x="-8" y="156"/>
      <point x="161" y="-15"/>
      <point x="363" y="-15" type="curve" smooth="yes"/>
      <point x="576" y="-15"/>
      <point x="744" y="151"/>
      <point x="744" y="362" type="curve" smooth="yes"/>
      <point x="744" y="569"/>
      <point x="575" y="737"/>
    </contour>
    <contour>
      <point x="369" y="691" type="curve" smooth="yes"/>
      <point x="548" y="691"/>
      <point x="695" y="543"/>
      <point x="695" y="362" type="curve" smooth="yes"/>
      <point x="695" y="177"/>
      <point x="549" y="31"/>
      <point x="365" y="31" type="curve" smooth="yes"/>
      <point x="188" y="31"/>
      <point x="41" y="181"/>
      <point x="41" y="361" type="curve" smooth="yes"/>
      <point x="41" y="543"/>
      <point x="188" y="691"/>
    </contour>
  </outline>
</glyph>
<glyph name="macron" format="1">
  <advance width="333"/>
  <unicode hex="00AF"/>
  <outline>
    <contour>
      <point x="10" y="622" type="line"/>
      <point x="10" y="568" type="line"/>
      <point x="323" y="568" type="line"/>
      <point x="323" y="622" type="line"/>
    </contour>
  </outline>
</glyph>
<glyph name="plusminus" format="1">
  <advance width="606"/>
  <unicode hex="00B1"/>
  <outline>
    <contour>
      <point x="263" y="288" type="line"/>
      <point x="263" y="113" type="line"/>
      <point x="343" y="113" type="line"/>
      <point x="343" y="288" type="line"/>
      <point x="555" y="288" type="line"/>
      <point x="555" y="368" type="line"/>
      <point x="343" y="368" type="line"/>
      <point x="343" y="581" type="line"/>
      <point x="263" y="581" type="line"/>
      <point x="263" y="368" type="line"/>
      <point x="51" y="368" type="line"/>
      <point x="51" y="288" type="line"/>
    </contour>
    <contour>
      <point x="51" y="0" type="line"/>
      <point x="555" y="0" type="line"/>
      <point x="555" y="80" type="line"/>
      <point x="51" y="80" type="line"/>
    </contour>
  </outline>
</glyph>
<glyph name="acute" format="1">
  <advance width="333"/>
  <unicode hex="00B4"/>
  <outline>
    <contour>
      <point x="91" y="535" type="line"/>
      <point x="132" y="535" type="line"/>
      <point x="291" y="632" type="line" smooth="yes"/>
      <point x="306" y="642"/>
      <point x="316" y="657"/>
      <point x="316" y="671" type="curve" smooth="yes"/>
      <point x="316" y="690"/>
      <point x="300" y="706"/>
      <point x="281" y="706" type="curve" smooth="yes"/>
      <point x="266" y="706"/>
      <point x="256" y="700"/>
      <point x="231" y="675" type="curve" smooth="yes"/>
    </contour>
  </outline>
</glyph>
<glyph name="paragraph" format="1">
  <advance width="606"/>
  <unicode hex="00B6"/>
  <outline>
    <contour>
      <point x="277" y="324" type="line"/>
      <point x="277" y="-21" type="line" smooth="yes"/>
      <point x="277" y="-86"/>
      <point x="277" y="-86"/>
      <point x="271" y="-94" type="curve"/>
      <point x="263" y="-103"/>
      <point x="240" y="-108"/>
      <point x="202" y="-108" type="curve" smooth="yes"/>
      <point x="198" y="-108" type="line"/>
      <point x="198" y="-144" type="line"/>
      <point x="557" y="-144" type="line"/>
      <point x="557" y="-108" type="line"/>
      <point x="514" y="-105"/>
      <point x="506" y="-103"/>
      <point x="499" y="-94" type="curve"/>
      <point x="492" y="-86"/>
      <point x="492" y="-86"/>
      <point x="492" y="-21" type="curve" smooth="yes"/>
      <point x="492" y="599" type="line"/>
      <point x="492" y="639" type="line" smooth="yes"/>
      <point x="492" y="678"/>
      <point x="498" y="683"/>
      <point x="557" y="686" type="curve"/>
      <point x="557" y="722" type="line"/>
      <point x="282" y="722" type="line"/>
      <point x="222" y="722" type="line"/>
      <point x="189" y="720"/>
      <point x="157" y="712"/>
      <point x="135" y="700" type="curve" smooth="yes"/>
      <point x="79" y="671"/>
      <point x="49" y="608"/>
      <point x="49" y="523" type="curve" smooth="yes"/>
      <point x="49" y="393"/>
      <point x="118" y="324"/>
      <point x="247" y="324" type="curve" smooth="yes"/>
    </contour>
    <contour>
      <point x="277" y="357" type="line"/>
      <point x="265" y="357" type="line" smooth="yes"/>
      <point x="238" y="357"/>
      <point x="222" y="364"/>
      <point x="209" y="381" type="curve" smooth="yes"/>
      <point x="195" y="400"/>
      <point x="185" y="440"/>
      <point x="185" y="481" type="curve" smooth="yes"/>
      <point x="185" y="563" type="line" smooth="yes"/>
      <point x="185" y="655"/>
      <point x="208" y="686"/>
      <point x="277" y="686" type="curve"/>
    </contour>
    <contour>
      <point x="427" y="686" type="line"/>
      <point x="427" y="-107" type="line"/>
      <point x="342" y="-107" type="line"/>
      <point x="342" y="686" type="line"/>
    </contour>
  </outline>
</glyph>
<glyph name="periodcentered" format="1">
  <advance width="278"/>
  <unicode hex="00B7"/>
  <outline>
    <contour>
      <point x="139" y="309" type="curve" smooth="yes"/>
      <point x="104" y="309"/>
      <point x="76" y="281"/>
      <point x="76" y="247" type="curve" smooth="yes"/>
      <point x="76" y="212"/>
      <point x="104" y="184"/>
      <point x="138" y="184" type="curve" smooth="yes"/>
      <point x="173" y="184"/>
      <point x="201" y="212"/>
      <point x="201" y="247" type="curve" smooth="yes"/>
      <point x="201" y="281"/>
      <point x="173" y="309"/>
    </contour>
  </outline>
</glyph>
<glyph name="cedilla" format="1">
  <advance width="333"/>
  <unicode hex="00B8"/>
  <outline>
    <contour>
      <point x="150" y="0" type="line"/>
      <point x="115" y="0" type="line"/>
      <point x="71" y="-98" type="line"/>
      <point x="80" y="-103" type="line"/>
      <point x="92" y="-100"/>
      <point x="105" y="-98"/>
      <point x="114" y="-98" type="curve" smooth="yes"/>
      <point x="142" y="-98"/>
      <point x="161" y="-114"/>
      <point x="161" y="-137" type="curve" smooth="yes"/>
      <point x="161" y="-161"/>
      <point x="139" y="-177"/>
      <point x="104" y="-177" type="curve" smooth="yes"/>
      <point x="85" y="-177"/>
      <point x="67" y="-173"/>
      <point x="43" y="-165" type="curve"/>
      <point x="29" y="-198" type="line"/>
      <point x="57" y="-209"/>
      <point x="85" y="-215"/>
      <point x="117" y="-215" type="curve" smooth="yes"/>
      <point x="188" y="-215"/>
      <point x="237" y="-179"/>
      <point x="237" y="-128" type="curve" smooth="yes"/>
      <point x="237" y="-88"/>
      <point x="204" y="-60"/>
      <point x="155" y="-60" type="curve" smooth="yes"/>
      <point x="147" y="-60"/>
      <point x="140" y="-61"/>
      <point x="126" y="-63" type="curve"/>
    </contour>
  </outline>
</glyph>
<glyph name="ordmasculine" format="1">
  <advance width="300"/>
  <unicode hex="00BA"/>
  <outline>
    <contour>
      <point x="152" y="730" type="curve" smooth="yes"/>
      <point x="71" y="730"/>
      <point x="10" y="665"/>
      <point x="10" y="581" type="curve" smooth="yes"/>
      <point x="10" y="494"/>
      <point x="67" y="433"/>
      <point x="148" y="433" type="curve" smooth="yes"/>
      <point x="233" y="433"/>
      <point x="291" y="492"/>
      <point x="291" y="578" type="curve" smooth="yes"/>
      <point x="291" y="664"/>
      <point x="230" y="730"/>
    </contour>
    <contour>
      <point x="152" y="704" type="curve" smooth="yes"/>
      <point x="198" y="704"/>
      <point x="223" y="662"/>
      <point x="223" y="587" type="curve" smooth="yes"/>
      <point x="223" y="501"/>
      <point x="199" y="459"/>
      <point x="150" y="459" type="curve" smooth="yes"/>
      <point x="103" y="459"/>
      <point x="78" y="501"/>
      <point x="78" y="579" type="curve" smooth="yes"/>
      <point x="78" y="664"/>
      <point x="102" y="704"/>
    </contour>
    <contour>
      <point x="21" y="369" type="line"/>
      <point x="21" y="329" type="line"/>
      <point x="281" y="329" type="line"/>
      <point x="281" y="369" type="line"/>
    </contour>
  </outline>
</glyph>
<glyph name="guillemotright" format="1">
  <advance width="426"/>
  <unicode hex="00BB"/>
  <outline>
    <contour>
      <point x="160" y="185" type="line"/>
      <point x="221" y="243" type="line"/>
      <point x="131" y="330" type="line"/>
      <point x="73" y="387" type="line"/>
      <point x="63" y="398"/>
      <point x="57" y="402"/>
      <point x="51" y="402" type="curve" smooth="yes"/>
      <point x="45" y="402"/>
      <point x="39" y="396"/>
      <point x="39" y="390" type="curve" smooth="yes"/>
      <point x="39" y="381"/>
      <point x="52" y="361"/>
      <point x="134" y="243" type="curve"/>
      <point x="51" y="125"/>
      <point x="39" y="106"/>
      <point x="39" y="96" type="curve" smooth="yes"/>
      <point x="39" y="90"/>
      <point x="44" y="85"/>
      <point x="50" y="85" type="curve" smooth="yes"/>
      <point x="57" y="85"/>
      <point x="63" y="89"/>
      <point x="73" y="100" type="curve"/>
      <point x="112" y="138" type="line"/>
    </contour>
    <contour>
      <point x="327" y="185" type="line"/>
      <point x="388" y="243" type="line"/>
      <point x="298" y="330" type="line"/>
      <point x="240" y="387" type="line"/>
      <point x="230" y="398"/>
      <point x="224" y="402"/>
      <point x="218" y="402" type="curve" smooth="yes"/>
      <point x="212" y="402"/>
      <point x="206" y="396"/>
      <point x="206" y="390" type="curve" smooth="yes"/>
      <point x="206" y="381"/>
      <point x="219" y="361"/>
      <point x="301" y="243" type="curve"/>
      <point x="218" y="125"/>
      <point x="206" y="106"/>
      <point x="206" y="96" type="curve" smooth="yes"/>
      <point x="206" y="90"/>
      <point x="211" y="85"/>
      <point x="217" y="85" type="curve" smooth="yes"/>
      <point x="224" y="85"/>
      <point x="230" y="89"/>
      <point x="240" y="100" type="curve"/>
      <point x="279" y="138" type="line"/>
    </contour>
  </outline>
</glyph>
<glyph name="onequarter" format="1">
  <advance width="834"/>
  <unicode hex="00BC"/>
  <outline>
    <contour>
      <point x="657" y="708" type="line"/>
      <point x="155" y="0" type="line"/>
      <point x="209" y="0" type="line"/>
      <point x="711" y="708" type="line"/>
    </contour>
    <contour>
      <point x="689" y="423" type="line"/>
      <point x="473" y="140" type="line"/>
      <point x="473" y="103" type="line"/>
      <point x="650" y="103" type="line"/>
      <point x="650" y="76" type="line"/>
      <point x="650" y="59" type="line" smooth="yes"/>
      <point x="650" y="37"/>
      <point x="646" y="35"/>
      <point x="597" y="35" type="curve" smooth="yes"/>
      <point x="586" y="35" type="line"/>
      <point x="586" y="0" type="line"/>
      <point x="777" y="0" type="line"/>
      <point x="777" y="35" type="line"/>
      <point x="719" y="36"/>
      <point x="718" y="36"/>
      <point x="718" y="59" type="curve" smooth="yes"/>
      <point x="718" y="76" type="line"/>
      <point x="718" y="103" type="line"/>
      <point x="795" y="103" type="line"/>
      <point x="795" y="143" type="line"/>
      <point x="718" y="143" type="line"/>
      <point x="718" y="301" type="line" smooth="yes"/>
      <point x="718" y="373"/>
      <point x="718" y="373"/>
      <point x="721" y="423" type="curve"/>
    </contour>
    <contour>
      <point x="650" y="143" type="line"/>
      <point x="523" y="143" type="line"/>
      <point x="650" y="308" type="line"/>
    </contour>
    <contour>
      <point x="181" y="712" type="line"/>
      <point x="159" y="687"/>
      <point x="100" y="669"/>
      <point x="40" y="669" type="curve"/>
      <point x="40" y="636" type="line"/>
      <point x="99" y="636" type="line" smooth="yes"/>
      <point x="134" y="636"/>
      <point x="135" y="635"/>
      <point x="135" y="602" type="curve" smooth="yes"/>
      <point x="135" y="365" type="line" smooth="yes"/>
      <point x="135" y="336"/>
      <point x="135" y="334"/>
      <point x="132" y="331" type="curve" smooth="yes"/>
      <point x="127" y="326"/>
      <point x="113" y="324"/>
      <point x="82" y="324" type="curve" smooth="yes"/>
      <point x="39" y="324" type="line"/>
      <point x="39" y="289" type="line"/>
      <point x="294" y="289" type="line"/>
      <point x="294" y="324" type="line"/>
      <point x="256" y="324" type="line" smooth="yes"/>
      <point x="226" y="324"/>
      <point x="212" y="326"/>
      <point x="207" y="331" type="curve"/>
      <point x="204" y="335"/>
      <point x="204" y="336"/>
      <point x="204" y="365" type="curve" smooth="yes"/>
      <point x="204" y="610" type="line" smooth="yes"/>
      <point x="204" y="639"/>
      <point x="205" y="666"/>
      <point x="209" y="712" type="curve"/>
    </contour>
  </outline>
</glyph>
<glyph name="onehalf" format="1">
  <advance width="834"/>
  <unicode hex="00BD"/>
  <outline>
    <contour>
      <point x="651" y="708" type="line"/>
      <point x="149" y="0" type="line"/>
      <point x="203" y="0" type="line"/>
      <point x="705" y="708" type="line"/>
    </contour>
    <contour>
      <point x="181" y="712" type="line"/>
      <point x="159" y="687"/>
      <point x="100" y="669"/>
      <point x="40" y="669" type="curve"/>
      <point x="40" y="636" type="line"/>
      <point x="99" y="636" type="line" smooth="yes"/>
      <point x="134" y="636"/>
      <point x="135" y="635"/>
      <point x="135" y="602" type="curve" smooth="yes"/>
      <point x="135" y="365" type="line" smooth="yes"/>
      <point x="135" y="336"/>
      <point x="135" y="334"/>
      <point x="132" y="331" type="curve" smooth="yes"/>
      <point x="127" y="326"/>
      <point x="113" y="324"/>
      <point x="82" y="324" type="curve" smooth="yes"/>
      <point x="39" y="324" type="line"/>
      <point x="39" y="289" type="line"/>
      <point x="294" y="289" type="line"/>
      <point x="294" y="324" type="line"/>
      <point x="256" y="324" type="line" smooth="yes"/>
      <point x="226" y="324"/>
      <point x="212" y="326"/>
      <point x="207" y="331" type="curve"/>
      <point x="204" y="335"/>
      <point x="204" y="336"/>
      <point x="204" y="365" type="curve" smooth="yes"/>
      <point x="204" y="610" type="line" smooth="yes"/>
      <point x="204" y="639"/>
      <point x="205" y="666"/>
      <point x="209" y="712" type="curve"/>
    </contour>
    <contour>
      <point x="515" y="0" type="line"/>
      <point x="809" y="0" type="line"/>
      <point x="821" y="135" type="line"/>
      <point x="787" y="135" type="line"/>
      <point x="780" y="102" type="line" smooth="yes"/>
      <point x="773" y="67"/>
      <point x="768" y="63"/>
      <point x="732" y="63" type="curve" smooth="yes"/>
      <point x="596" y="63" type="line"/>
      <point x="636" y="101"/>
      <point x="649" y="112"/>
      <point x="689" y="141" type="curve" smooth="yes"/>
      <point x="791" y="215"/>
      <point x="816" y="247"/>
      <point x="816" y="304" type="curve" smooth="yes"/>
      <point x="816" y="373"/>
      <point x="755" y="423"/>
      <point x="671" y="423" type="curve" smooth="yes"/>
      <point x="588" y="423"/>
      <point x="525" y="373"/>
      <point x="525" y="308" type="curve" smooth="yes"/>
      <point x="525" y="269"/>
      <point x="547" y="242"/>
      <point x="579" y="242" type="curve" smooth="yes"/>
      <point x="604" y="242"/>
      <point x="622" y="258"/>
      <point x="622" y="281" type="curve" smooth="yes"/>
      <point x="622" y="298"/>
      <point x="612" y="312"/>
      <point x="597" y="318" type="curve" smooth="yes"/>
      <point x="574" y="327"/>
      <point x="574" y="327"/>
      <point x="574" y="333" type="curve" smooth="yes"/>
      <point x="574" y="362"/>
      <point x="614" y="390"/>
      <point x="658" y="390" type="curve" smooth="yes"/>
      <point x="708" y="390"/>
      <point x="738" y="362"/>
      <point x="738" y="314" type="curve" smooth="yes"/>
      <point x="738" y="272"/>
      <point x="716" y="232"/>
      <point x="664" y="182" type="curve"/>
      <point x="652" y="169"/>
      <point x="640" y="157"/>
      <point x="627" y="145" type="curve" smooth="yes"/>
      <point x="615" y="134"/>
      <point x="602" y="121"/>
      <point x="590" y="108" type="curve" smooth="yes"/>
      <point x="582" y="100"/>
      <point x="586" y="104"/>
      <point x="578" y="95" type="curve" smooth="yes"/>
      <point x="555" y="70"/>
      <point x="543" y="57"/>
      <point x="515" y="22" type="curve"/>
    </contour>
  </outline>
</glyph>
<glyph name="threequarters" format="1">
  <advance width="834"/>
  <unicode hex="00BE"/>
  <outline>
    <contour>
      <point x="667" y="708" type="line"/>
      <point x="165" y="0" type="line"/>
      <point x="219" y="0" type="line"/>
      <point x="721" y="708" type="line"/>
    </contour>
    <contour>
      <point x="689" y="423" type="line"/>
      <point x="473" y="140" type="line"/>
      <point x="473" y="103" type="line"/>
      <point x="650" y="103" type="line"/>
      <point x="650" y="76" type="line"/>
      <point x="650" y="59" type="line" smooth="yes"/>
      <point x="650" y="37"/>
      <point x="646" y="35"/>
      <point x="597" y="35" type="curve" smooth="yes"/>
      <point x="586" y="35" type="line"/>
      <point x="586" y="0" type="line"/>
      <point x="777" y="0" type="line"/>
      <point x="777" y="35" type="line"/>
      <point x="719" y="36"/>
      <point x="718" y="36"/>
      <point x="718" y="59" type="curve" smooth="yes"/>
      <point x="718" y="76" type="line"/>
      <point x="718" y="103" type="line"/>
      <point x="795" y="103" type="line"/>
      <point x="795" y="143" type="line"/>
      <point x="718" y="143" type="line"/>
      <point x="718" y="301" type="line" smooth="yes"/>
      <point x="718" y="373"/>
      <point x="718" y="373"/>
      <point x="721" y="423" type="curve"/>
    </contour>
    <contour>
      <point x="650" y="143" type="line"/>
      <point x="523" y="143" type="line"/>
      <point x="650" y="308" type="line"/>
    </contour>
    <contour>
      <point x="148" y="527" type="line"/>
      <point x="143" y="528"/>
      <point x="137" y="528"/>
      <point x="134" y="528" type="curve" smooth="yes"/>
      <point x="119" y="528"/>
      <point x="110" y="521"/>
      <point x="110" y="509" type="curve" smooth="yes"/>
      <point x="110" y="497"/>
      <point x="118" y="490"/>
      <point x="132" y="490" type="curve" smooth="yes"/>
      <point x="158" y="491"/>
      <point x="174" y="491"/>
      <point x="177" y="491" type="curve" smooth="yes"/>
      <point x="222" y="491"/>
      <point x="246" y="462"/>
      <point x="246" y="405" type="curve" smooth="yes"/>
      <point x="246" y="346"/>
      <point x="216" y="313"/>
      <point x="161" y="313" type="curve" smooth="yes"/>
      <point x="125" y="313"/>
      <point x="82" y="332"/>
      <point x="82" y="348" type="curve" smooth="yes"/>
      <point x="82" y="350"/>
      <point x="83" y="352"/>
      <point x="87" y="354" type="curve"/>
      <point x="113" y="369"/>
      <point x="120" y="377"/>
      <point x="120" y="396" type="curve" smooth="yes"/>
      <point x="120" y="419"/>
      <point x="101" y="437"/>
      <point x="77" y="437" type="curve" smooth="yes"/>
      <point x="48" y="437"/>
      <point x="28" y="414"/>
      <point x="28" y="381" type="curve" smooth="yes"/>
      <point x="28" y="322"/>
      <point x="86" y="280"/>
      <point x="168" y="280" type="curve" smooth="yes"/>
      <point x="261" y="280"/>
      <point x="324" y="329"/>
      <point x="324" y="403" type="curve" smooth="yes"/>
      <point x="324" y="456"/>
      <point x="292" y="495"/>
      <point x="236" y="510" type="curve"/>
      <point x="238" y="511"/>
      <point x="239" y="512"/>
      <point x="239" y="512" type="curve"/>
      <point x="285" y="528"/>
      <point x="312" y="564"/>
      <point x="312" y="607" type="curve" smooth="yes"/>
      <point x="312" y="671"/>
      <point x="260" y="712"/>
      <point x="179" y="712" type="curve" smooth="yes"/>
      <point x="103" y="712"/>
      <point x="45" y="670"/>
      <point x="45" y="614" type="curve" smooth="yes"/>
      <point x="45" y="588"/>
      <point x="64" y="569"/>
      <point x="90" y="569" type="curve" smooth="yes"/>
      <point x="114" y="569"/>
      <point x="131" y="585"/>
      <point x="131" y="608" type="curve" smooth="yes"/>
      <point x="131" y="622"/>
      <point x="125" y="631"/>
      <point x="110" y="641" type="curve"/>
      <point x="106" y="644"/>
      <point x="104" y="646"/>
      <point x="104" y="649" type="curve" smooth="yes"/>
      <point x="104" y="663"/>
      <point x="141" y="679"/>
      <point x="173" y="679" type="curve" smooth="yes"/>
      <point x="216" y="679"/>
      <point x="239" y="654"/>
      <point x="239" y="606" type="curve" smooth="yes"/>
      <point x="239" y="552"/>
      <point x="217" y="526"/>
      <point x="172" y="526" type="curve" smooth="yes"/>
    </contour>
  </outline>
</glyph>
<glyph name="questiondown" format="1">
  <advance width="444"/>
  <unicode hex="00BF"/>
  <outline>
    <contour>
      <point x="224" y="343" type="line"/>
      <point x="225" y="245"/>
      <point x="214" y="218"/>
      <point x="150" y="163" type="curve" smooth="yes"/>
      <point x="52" y="76"/>
      <point x="30" y="42"/>
      <point x="30" y="-28" type="curve" smooth="yes"/>
      <point x="30" y="-132"/>
      <point x="107" y="-202"/>
      <point x="221" y="-202" type="curve" smooth="yes"/>
      <point x="334" y="-202"/>
      <point x="416" y="-140"/>
      <point x="416" y="-54" type="curve" smooth="yes"/>
      <point x="416" y="-10"/>
      <point x="388" y="23"/>
      <point x="351" y="23" type="curve" smooth="yes"/>
      <point x="319" y="23"/>
      <point x="294" y="-1"/>
      <point x="294" y="-32" type="curve" smooth="yes"/>
      <point x="294" y="-52"/>
      <point x="304" y="-69"/>
      <point x="323" y="-85" type="curve" smooth="yes"/>
      <point x="338" y="-97"/>
      <point x="339" y="-99"/>
      <point x="339" y="-107" type="curve" smooth="yes"/>
      <point x="339" y="-133"/>
      <point x="295" y="-157"/>
      <point x="247" y="-157" type="curve" smooth="yes"/>
      <point x="176" y="-157"/>
      <point x="135" y="-112"/>
      <point x="135" y="-34" type="curve" smooth="yes"/>
      <point x="135" y="7"/>
      <point x="146" y="45"/>
      <point x="167" y="74" type="curve" smooth="yes"/>
      <point x="241" y="175"/>
      <point x="241" y="175"/>
      <point x="254" y="210" type="curve" smooth="yes"/>
      <point x="264" y="238"/>
      <point x="268" y="264"/>
      <point x="268" y="311" type="curve" smooth="yes"/>
      <point x="268" y="343" type="line"/>
    </contour>
    <contour>
      <point x="249" y="549" type="curve" smooth="yes"/>
      <point x="214" y="549"/>
      <point x="186" y="521"/>
      <point x="186" y="486" type="curve" smooth="yes"/>
      <point x="186" y="452"/>
      <point x="214" y="424"/>
      <point x="248" y="424" type="curve" smooth="yes"/>
      <point x="283" y="424"/>
      <point x="311" y="452"/>
      <point x="311" y="486" type="curve" smooth="yes"/>
      <point x="311" y="521"/>
      <point x="283" y="549"/>
    </contour>
  </outline>
</glyph>
<glyph name="Acircumflex" format="1">
  <advance width="722"/>
  <unicode hex="00C2"/>
  <outline>
    <contour>
      <point x="378" y="736" type="line"/>
      <point x="336" y="736" type="line"/>
      <point x="106" y="153" type="line" smooth="yes"/>
      <point x="86" y="101"/>
      <point x="82" y="94"/>
      <point x="67" y="78" type="curve"/>
      <point x="51" y="59"/>
      <point x="23" y="47"/>
      <point x="-4" y="47" type="curve" smooth="yes"/>
      <point x="-8" y="47" type="line"/>
      <point x="-8" y="0" type="line"/>
      <point x="257" y="0" type="line"/>
      <point x="257" y="47" type="line"/>
      <point x="237" y="47" type="line" smooth="yes"/>
      <point x="183" y="47"/>
      <point x="156" y="66"/>
      <point x="156" y="104" type="curve" smooth="yes"/>
      <point x="156" y="116"/>
      <point x="159" y="130"/>
      <point x="165" y="146" type="curve" smooth="yes"/>
      <point x="198" y="234" type="line"/>
      <point x="463" y="234" type="line"/>
      <point x="517" y="100" type="line" smooth="yes"/>
      <point x="523" y="85"/>
      <point x="525" y="78"/>
      <point x="525" y="73" type="curve" smooth="yes"/>
      <point x="525" y="57"/>
      <point x="500" y="47"/>
      <point x="463" y="47" type="curve" smooth="yes"/>
      <point x="421" y="47" type="line"/>
      <point x="421" y="0" type="line"/>
      <point x="731" y="0" type="line"/>
      <point x="731" y="47" type="line"/>
      <point x="717" y="47" type="line" smooth="yes"/>
      <point x="667" y="47"/>
      <point x="656" y="55"/>
      <point x="633" y="111" type="curve" smooth="yes"/>
    </contour>
    <contour>
      <point x="329" y="572" type="line"/>
      <point x="442" y="288" type="line"/>
      <point x="218" y="288" type="line"/>
    </contour>
    <contour>
      <point x="390" y="953" type="line"/>
      <point x="327" y="953" type="line"/>
      <point x="202" y="787" type="line"/>
      <point x="238" y="787" type="line"/>
      <point x="359" y="888" type="line"/>
      <point x="479" y="787" type="line"/>
      <point x="515" y="787" type="line"/>
    </contour>
  </outline>
</glyph>
<glyph name="Atilde" format="1">
  <advance width="722"/>
  <unicode hex="00C3"/>
  <outline>
    <contour>
      <point x="378" y="736" type="line"/>
      <point x="336" y="736" type="line"/>
      <point x="106" y="153" type="line" smooth="yes"/>
      <point x="86" y="101"/>
      <point x="82" y="94"/>
      <point x="67" y="78" type="curve"/>
      <point x="51" y="59"/>
      <point x="23" y="47"/>
      <point x="-4" y="47" type="curve" smooth="yes"/>
      <point x="-8" y="47" type="line"/>
      <point x="-8" y="0" type="line"/>
      <point x="257" y="0" type="line"/>
      <point x="257" y="47" type="line"/>
      <point x="237" y="47" type="line" smooth="yes"/>
      <point x="183" y="47"/>
      <point x="156" y="66"/>
      <point x="156" y="104" type="curve" smooth="yes"/>
      <point x="156" y="116"/>
      <point x="159" y="130"/>
      <point x="165" y="146" type="curve" smooth="yes"/>
      <point x="198" y="234" type="line"/>
      <point x="463" y="234" type="line"/>
      <point x="517" y="100" type="line" smooth="yes"/>
      <point x="523" y="85"/>
      <point x="525" y="78"/>
      <point x="525" y="73" type="curve" smooth="yes"/>
      <point x="525" y="57"/>
      <point x="500" y="47"/>
      <point x="463" y="47" type="curve" smooth="yes"/>
      <point x="421" y="47" type="line"/>
      <point x="421" y="0" type="line"/>
      <point x="731" y="0" type="line"/>
      <point x="731" y="47" type="line"/>
      <point x="717" y="47" type="line" smooth="yes"/>
      <point x="667" y="47"/>
      <point x="656" y="55"/>
      <point x="633" y="111" type="curve" smooth="yes"/>
    </contour>
    <contour>
      <point x="329" y="572" type="line"/>
      <point x="442" y="288" type="line"/>
      <point x="218" y="288" type="line"/>
    </contour>
    <contour>
      <point x="490" y="915" type="line"/>
      <point x="484" y="886"/>
      <point x="462" y="864"/>
      <point x="439" y="864" type="curve" smooth="yes"/>
      <point x="425" y="864"/>
      <point x="414" y="868"/>
      <point x="380" y="883" type="curve" smooth="yes"/>
      <point x="325" y="908"/>
      <point x="317" y="910"/>
      <point x="294" y="910" type="curve" smooth="yes"/>
      <point x="245" y="910"/>
      <point x="207" y="871"/>
      <point x="194" y="809" type="curve"/>
      <point x="229" y="809" type="line"/>
      <point x="236" y="836"/>
      <point x="253" y="851"/>
      <point x="276" y="851" type="curve" smooth="yes"/>
      <point x="290" y="851"/>
      <point x="309" y="846"/>
      <point x="328" y="837" type="curve" smooth="yes"/>
      <point x="379" y="813"/>
      <point x="391" y="809"/>
      <point x="417" y="809" type="curve" smooth="yes"/>
      <point x="474" y="809"/>
      <point x="518" y="852"/>
      <point x="525" y="915" type="curve"/>
    </contour>
  </outline>
</glyph>
<glyph name="Aring" format="1">
  <advance width="722"/>
  <unicode hex="00C5"/>
  <outline>
    <contour>
      <point x="378" y="736" type="line"/>
      <point x="336" y="736" type="line"/>
      <point x="106" y="153" type="line" smooth="yes"/>
      <point x="86" y="101"/>
      <point x="82" y="94"/>
      <point x="67" y="78" type="curve"/>
      <point x="51" y="59"/>
      <point x="23" y="47"/>
      <point x="-4" y="47" type="curve" smooth="yes"/>
      <point x="-8" y="47" type="line"/>
      <point x="-8" y="0" type="line"/>
      <point x="257" y="0" type="line"/>
      <point x="257" y="47" type="line"/>
      <point x="237" y="47" type="line" smooth="yes"/>
      <point x="183" y="47"/>
      <point x="156" y="66"/>
      <point x="156" y="104" type="curve" smooth="yes"/>
      <point x="156" y="116"/>
      <point x="159" y="130"/>
      <point x="165" y="146" type="curve" smooth="yes"/>
      <point x="198" y="234" type="line"/>
      <point x="463" y="234" type="line"/>
      <point x="517" y="100" type="line" smooth="yes"/>
      <point x="523" y="85"/>
      <point x="525" y="78"/>
      <point x="525" y="73" type="curve" smooth="yes"/>
      <point x="525" y="57"/>
      <point x="500" y="47"/>
      <point x="463" y="47" type="curve" smooth="yes"/>
      <point x="421" y="47" type="line"/>
      <point x="421" y="0" type="line"/>
      <point x="731" y="0" type="line"/>
      <point x="731" y="47" type="line"/>
      <point x="717" y="47" type="line" smooth="yes"/>
      <point x="667" y="47"/>
      <point x="656" y="55"/>
      <point x="633" y="111" type="curve" smooth="yes"/>
    </contour>
    <contour>
      <point x="329" y="572" type="line"/>
      <point x="442" y="288" type="line"/>
      <point x="218" y="288" type="line"/>
    </contour>
    <contour>
      <point x="358" y="979" type="curve" smooth="yes"/>
      <point x="304" y="979"/>
      <point x="259" y="934"/>
      <point x="259" y="880" type="curve" smooth="yes"/>
      <point x="259" y="825"/>
      <point x="304" y="780"/>
      <point x="357" y="780" type="curve" smooth="yes"/>
      <point x="413" y="780"/>
      <point x="458" y="824"/>
      <point x="458" y="880" type="curve" smooth="yes"/>
      <point x="458" y="934"/>
      <point x="413" y="979"/>
    </contour>
    <contour>
      <point x="359" y="943" type="curve" smooth="yes"/>
      <point x="393" y="943"/>
      <point x="422" y="914"/>
      <point x="422" y="880" type="curve" smooth="yes"/>
      <point x="422" y="844"/>
      <point x="394" y="816"/>
      <point x="358" y="816" type="curve" smooth="yes"/>
      <point x="324" y="816"/>
      <point x="295" y="845"/>
      <point x="295" y="880" type="curve" smooth="yes"/>
      <point x="295" y="914"/>
      <point x="324" y="943"/>
    </contour>
  </outline>
</glyph>
<glyph name="AE" format="1">
  <advance width="1000"/>
  <unicode hex="00C6"/>
  <outline>
    <contour>
      <point x="933" y="722" type="line"/>
      <point x="240" y="722" type="line"/>
      <point x="240" y="675" type="line"/>
      <point x="251" y="675" type="line" smooth="yes"/>
      <point x="286" y="675"/>
      <point x="297" y="674"/>
      <point x="314" y="668" type="curve" smooth="yes"/>
      <point x="335" y="661"/>
      <point x="349" y="643"/>
      <point x="349" y="621" type="curve" smooth="yes"/>
      <point x="349" y="607"/>
      <point x="344" y="591"/>
      <point x="336" y="576" type="curve" smooth="yes"/>
      <point x="89" y="132" type="line" smooth="yes"/>
      <point x="55" y="73"/>
      <point x="35" y="54"/>
      <point x="0" y="47" type="curve"/>
      <point x="0" y="0" type="line"/>
      <point x="233" y="0" type="line"/>
      <point x="233" y="47" type="line"/>
      <point x="222" y="47" type="line" smooth="yes"/>
      <point x="170" y="47"/>
      <point x="144" y="62"/>
      <point x="144" y="93" type="curve" smooth="yes"/>
      <point x="144" y="105"/>
      <point x="149" y="121"/>
      <point x="158" y="139" type="curve" smooth="yes"/>
      <point x="229" y="269" type="line"/>
      <point x="468" y="269" type="line"/>
      <point x="468" y="123" type="line"/>
      <point x="468" y="94" type="line" smooth="yes"/>
      <point x="468" y="52"/>
      <point x="459" y="47"/>
      <point x="378" y="47" type="curve" smooth="yes"/>
      <point x="359" y="47" type="line"/>
      <point x="359" y="0" type="line"/>
      <point x="943" y="0" type="line"/>
      <point x="963" y="267" type="line"/>
      <point x="920" y="267" type="line"/>
      <point x="906" y="197"/>
      <point x="883" y="136"/>
      <point x="859" y="106" type="curve" smooth="yes"/>
      <point x="828" y="66"/>
      <point x="771" y="47"/>
      <point x="687" y="47" type="curve" smooth="yes"/>
      <point x="652" y="47" type="line" smooth="yes"/>
      <point x="622" y="47"/>
      <point x="597" y="53"/>
      <point x="588" y="62" type="curve"/>
      <point x="581" y="68"/>
      <point x="580" y="74"/>
      <point x="580" y="95" type="curve" smooth="yes"/>
      <point x="580" y="350" type="line"/>
      <point x="589" y="350" type="line" smooth="yes"/>
      <point x="650" y="350"/>
      <point x="675" y="344"/>
      <point x="695" y="323" type="curve" smooth="yes"/>
      <point x="721" y="297"/>
      <point x="731" y="265"/>
      <point x="733" y="206" type="curve"/>
      <point x="780" y="206" type="line"/>
      <point x="780" y="534" type="line"/>
      <point x="733" y="534" type="line"/>
      <point x="728" y="436"/>
      <point x="688" y="397"/>
      <point x="593" y="397" type="curve" smooth="yes"/>
      <point x="580" y="397" type="line"/>
      <point x="580" y="625" type="line" smooth="yes"/>
      <point x="580" y="668"/>
      <point x="589" y="675"/>
      <point x="643" y="675" type="curve" smooth="yes"/>
      <point x="667" y="675" type="line" smooth="yes"/>
      <point x="744" y="675"/>
      <point x="803" y="662"/>
      <point x="833" y="639" type="curve" smooth="yes"/>
      <point x="865" y="613"/>
      <point x="889" y="555"/>
      <point x="904" y="466" type="curve"/>
      <point x="947" y="466" type="line"/>
    </contour>
    <contour>
      <point x="468" y="323" type="line"/>
      <point x="258" y="323" type="line"/>
      <point x="441" y="653" type="line" smooth="yes"/>
      <point x="448" y="667"/>
      <point x="452" y="671"/>
      <point x="458" y="671" type="curve" smooth="yes"/>
      <point x="466" y="671"/>
      <point x="468" y="668"/>
      <point x="468" y="648" type="curve" smooth="yes"/>
    </contour>
  </outline>
</glyph>
<glyph name="Ccedilla" format="1">
  <advance width="722"/>
  <unicode hex="00C7"/>
  <outline>
    <contour>
      <point x="346" y="-13" type="line"/>
      <point x="366" y="-15"/>
      <point x="376" y="-15"/>
      <point x="387" y="-15" type="curve" smooth="yes"/>
      <point x="543" y="-15"/>
      <point x="645" y="80"/>
      <point x="668" y="247" type="curve"/>
      <point x="621" y="255" type="line"/>
      <point x="611" y="202"/>
      <point x="599" y="166"/>
      <point x="581" y="136" type="curve" smooth="yes"/>
      <point x="540" y="67"/>
      <point x="476" y="32"/>
      <point x="395" y="32" type="curve" smooth="yes"/>
      <point x="247" y="32"/>
      <point x="177" y="135"/>
      <point x="177" y="350" type="curve" smooth="yes"/>
      <point x="177" y="463"/>
      <point x="192" y="539"/>
      <point x="226" y="599" type="curve" smooth="yes"/>
      <point x="257" y="655"/>
      <point x="319" y="690"/>
      <point x="383" y="690" type="curve" smooth="yes"/>
      <point x="453" y="690"/>
      <point x="515" y="653"/>
      <point x="553" y="589" type="curve" smooth="yes"/>
      <point x="572" y="556"/>
      <point x="587" y="517"/>
      <point x="610" y="440" type="curve"/>
      <point x="654" y="440" type="line"/>
      <point x="639" y="729" type="line"/>
      <point x="601" y="729" type="line"/>
      <point x="561" y="670" type="line"/>
      <point x="490" y="722"/>
      <point x="451" y="737"/>
      <point x="384" y="737" type="curve" smooth="yes"/>
      <point x="287" y="737"/>
      <point x="207" y="698"/>
      <point x="139" y="617" type="curve" smooth="yes"/>
      <point x="75" y="541"/>
      <point x="45" y="457"/>
      <point x="45" y="354" type="curve" smooth="yes"/>
      <point x="45" y="226"/>
      <point x="93" y="120"/>
      <point x="183" y="51" type="curve" smooth="yes"/>
      <point x="224" y="18"/>
      <point x="264" y="0"/>
      <point x="312" y="-8" type="curve"/>
      <point x="273" y="-100" type="line"/>
      <point x="281" y="-105" type="line"/>
      <point x="294" y="-101"/>
      <point x="306" y="-99"/>
      <point x="315" y="-99" type="curve" smooth="yes"/>
      <point x="343" y="-99"/>
      <point x="362" y="-115"/>
      <point x="362" y="-138" type="curve" smooth="yes"/>
      <point x="362" y="-162"/>
      <point x="340" y="-178"/>
      <point x="306" y="-178" type="curve" smooth="yes"/>
      <point x="287" y="-178"/>
      <point x="268" y="-174"/>
      <point x="244" y="-166" type="curve"/>
      <point x="230" y="-199" type="line"/>
      <point x="258" y="-211"/>
      <point x="287" y="-216"/>
      <point x="317" y="-216" type="curve" smooth="yes"/>
      <point x="389" y="-216"/>
      <point x="438" y="-180"/>
      <point x="438" y="-129" type="curve" smooth="yes"/>
      <point x="438" y="-89"/>
      <point x="405" y="-61"/>
      <point x="357" y="-61" type="curve" smooth="yes"/>
      <point x="348" y="-61"/>
      <point x="342" y="-62"/>
      <point x="327" y="-64" type="curve"/>
    </contour>
  </outline>
</glyph>
<glyph name="Igrave" format="1">
  <advance width="407"/>
  <unicode hex="00CC"/>
  <outline>
    <contour>
      <point x="260" y="599" type="line"/>
      <point x="260" y="628" type="line" smooth="yes"/>
      <point x="260" y="670"/>
      <point x="269" y="675"/>
      <point x="349" y="675" type="curve" smooth="yes"/>
      <point x="369" y="675" type="line"/>
      <point x="369" y="722" type="line"/>
      <point x="38" y="722" type="line"/>
      <point x="38" y="675" type="line"/>
      <point x="58" y="675" type="line" smooth="yes"/>
      <point x="139" y="675"/>
      <point x="148" y="670"/>
      <point x="148" y="628" type="curve" smooth="yes"/>
      <point x="148" y="599" type="line"/>
      <point x="148" y="123" type="line"/>
      <point x="148" y="94" type="line" smooth="yes"/>
      <point x="148" y="52"/>
      <point x="139" y="47"/>
      <point x="58" y="47" type="curve" smooth="yes"/>
      <point x="38" y="47" type="line"/>
      <point x="38" y="0" type="line"/>
      <point x="369" y="0" type="line"/>
      <point x="369" y="47" type="line"/>
      <point x="349" y="47" type="line" smooth="yes"/>
      <point x="269" y="47"/>
      <point x="260" y="52"/>
      <point x="260" y="94" type="curve" smooth="yes"/>
      <point x="260" y="123" type="line"/>
    </contour>
    <contour>
      <point x="269" y="787" type="line"/>
      <point x="129" y="928" type="line" smooth="yes"/>
      <point x="104" y="952"/>
      <point x="94" y="958"/>
      <point x="79" y="958" type="curve" smooth="yes"/>
      <point x="59" y="958"/>
      <point x="44" y="943"/>
      <point x="44" y="923" type="curve" smooth="yes"/>
      <point x="44" y="909"/>
      <point x="54" y="894"/>
      <point x="69" y="885" type="curve" smooth="yes"/>
      <point x="228" y="787" type="line"/>
    </contour>
  </outline>
</glyph>
<glyph name="Iacute" format="1">
  <advance width="407"/>
  <unicode hex="00CD"/>
  <outline>
    <contour>
      <point x="260" y="599" type="line"/>
      <point x="260" y="628" type="line" smooth="yes"/>
      <point x="260" y="670"/>
      <point x="269" y="675"/>
      <point x="349" y="675" type="curve" smooth="yes"/>
      <point x="369" y="675" type="line"/>
      <point x="369" y="722" type="line"/>
      <point x="38" y="722" type="line"/>
      <point x="38" y="675" type="line"/>
      <point x="58" y="675" type="line" smooth="yes"/>
      <point x="139" y="675"/>
      <point x="148" y="670"/>
      <point x="148" y="628" type="curve" smooth="yes"/>
      <point x="148" y="599" type="line"/>
      <point x="148" y="123" type="line"/>
      <point x="148" y="94" type="line" smooth="yes"/>
      <point x="148" y="52"/>
      <point x="139" y="47"/>
      <point x="58" y="47" type="curve" smooth="yes"/>
      <point x="38" y="47" type="line"/>
      <point x="38" y="0" type="line"/>
      <point x="369" y="0" type="line"/>
      <point x="369" y="47" type="line"/>
      <point x="349" y="47" type="line" smooth="yes"/>
      <point x="269" y="47"/>
      <point x="260" y="52"/>
      <point x="260" y="94" type="curve" smooth="yes"/>
      <point x="260" y="123" type="line"/>
    </contour>
    <contour>
      <point x="128" y="787" type="line"/>
      <point x="169" y="787" type="line"/>
      <point x="328" y="885" type="line" smooth="yes"/>
      <point x="343" y="894"/>
      <point x="353" y="909"/>
      <point x="353" y="923" type="curve" smooth="yes"/>
      <point x="353" y="942"/>
      <point x="337" y="958"/>
      <point x="318" y="958" type="curve" smooth="yes"/>
      <point x="303" y="958"/>
      <point x="292" y="952"/>
      <point x="268" y="928" type="curve" smooth="yes"/>
    </contour>
  </outline>
</glyph>
<glyph name="Icircumflex" format="1">
  <advance width="407"/>
  <unicode hex="00CE"/>
  <outline>
    <contour>
      <point x="260" y="599" type="line"/>
      <point x="260" y="628" type="line" smooth="yes"/>
      <point x="260" y="670"/>
      <point x="269" y="675"/>
      <point x="349" y="675" type="curve" smooth="yes"/>
      <point x="369" y="675" type="line"/>
      <point x="369" y="722" type="line"/>
      <point x="38" y="722" type="line"/>
      <point x="38" y="675" type="line"/>
      <point x="58" y="675" type="line" smooth="yes"/>
      <point x="139" y="675"/>
      <point x="148" y="670"/>
      <point x="148" y="628" type="curve" smooth="yes"/>
      <point x="148" y="599" type="line"/>
      <point x="148" y="123" type="line"/>
      <point x="148" y="94" type="line" smooth="yes"/>
      <point x="148" y="52"/>
      <point x="139" y="47"/>
      <point x="58" y="47" type="curve" smooth="yes"/>
      <point x="38" y="47" type="line"/>
      <point x="38" y="0" type="line"/>
      <point x="369" y="0" type="line"/>
      <point x="369" y="47" type="line"/>
      <point x="349" y="47" type="line" smooth="yes"/>
      <point x="269" y="47"/>
      <point x="260" y="52"/>
      <point x="260" y="94" type="curve" smooth="yes"/>
      <point x="260" y="123" type="line"/>
    </contour>
    <contour>
      <point x="235" y="953" type="line"/>
      <point x="172" y="953" type="line"/>
      <point x="47" y="787" type="line"/>
      <point x="83" y="787" type="line"/>
      <point x="204" y="888" type="line"/>
      <point x="324" y="787" type="line"/>
      <point x="360" y="787" type="line"/>
    </contour>
  </outline>
</glyph>
<glyph name="Ntilde" format="1">
  <advance width="815"/>
  <unicode hex="00D1"/>
  <outline>
    <contour>
      <point x="225" y="722" type="line"/>
      <point x="19" y="722" type="line"/>
      <point x="19" y="675" type="line"/>
      <point x="44" y="675" type="line" smooth="yes"/>
      <point x="95" y="675"/>
      <point x="118" y="667"/>
      <point x="136" y="642" type="curve"/>
      <point x="136" y="217" type="line" smooth="yes"/>
      <point x="136" y="80"/>
      <point x="116" y="51"/>
      <point x="20" y="47" type="curve"/>
      <point x="20" y="0" type="line"/>
      <point x="305" y="0" type="line"/>
      <point x="305" y="47" type="line"/>
      <point x="210" y="51"/>
      <point x="190" y="80"/>
      <point x="190" y="217" type="curve" smooth="yes"/>
      <point x="190" y="588" type="line"/>
      <point x="636" y="-14" type="line"/>
      <point x="678" y="-14" type="line"/>
      <point x="678" y="505" type="line" smooth="yes"/>
      <point x="678" y="642"/>
      <point x="698" y="671"/>
      <point x="794" y="675" type="curve"/>
      <point x="794" y="722" type="line"/>
      <point x="509" y="722" type="line"/>
      <point x="509" y="675" type="line"/>
      <point x="604" y="671"/>
      <point x="624" y="642"/>
      <point x="624" y="505" type="curve" smooth="yes"/>
      <point x="624" y="191" type="line"/>
    </contour>
    <contour>
      <point x="537" y="915" type="line"/>
      <point x="531" y="886"/>
      <point x="509" y="864"/>
      <point x="486" y="864" type="curve" smooth="yes"/>
      <point x="472" y="864"/>
      <point x="461" y="868"/>
      <point x="427" y="883" type="curve" smooth="yes"/>
      <point x="372" y="908"/>
      <point x="364" y="910"/>
      <point x="341" y="910" type="curve" smooth="yes"/>
      <point x="292" y="910"/>
      <point x="254" y="871"/>
      <point x="241" y="809" type="curve"/>
      <point x="276" y="809" type="line"/>
      <point x="283" y="836"/>
      <point x="300" y="851"/>
      <point x="323" y="851" type="curve" smooth="yes"/>
      <point x="337" y="851"/>
      <point x="356" y="846"/>
      <point x="375" y="837" type="curve" smooth="yes"/>
      <point x="426" y="813"/>
      <point x="438" y="809"/>
      <point x="464" y="809" type="curve" smooth="yes"/>
      <point x="521" y="809"/>
      <point x="565" y="852"/>
      <point x="572" y="915" type="curve"/>
    </contour>
  </outline>
</glyph>
<glyph name="Ograve" format="1">
  <advance width="778"/>
  <unicode hex="00D2"/>
  <outline>
    <contour>
      <point x="393" y="737" type="curve" smooth="yes"/>
      <point x="304" y="737"/>
      <point x="228" y="709"/>
      <point x="167" y="653" type="curve" smooth="yes"/>
      <point x="90" y="582"/>
      <point x="45" y="474"/>
      <point x="45" y="360" type="curve" smooth="yes"/>
      <point x="45" y="147"/>
      <point x="194" y="-15"/>
      <point x="389" y="-15" type="curve" smooth="yes"/>
      <point x="585" y="-15"/>
      <point x="733" y="147"/>
      <point x="733" y="361" type="curve" smooth="yes"/>
      <point x="733" y="573"/>
      <point x="585" y="737"/>
    </contour>
    <contour>
      <point x="392" y="690" type="curve" smooth="yes"/>
      <point x="459" y="690"/>
      <point x="515" y="659"/>
      <point x="551" y="604" type="curve" smooth="yes"/>
      <point x="588" y="545"/>
      <point x="601" y="483"/>
      <point x="601" y="361" type="curve" smooth="yes"/>
      <point x="601" y="239"/>
      <point x="588" y="178"/>
      <point x="551" y="118" type="curve" smooth="yes"/>
      <point x="515" y="62"/>
      <point x="460" y="32"/>
      <point x="389" y="32" type="curve" smooth="yes"/>
      <point x="318" y="32"/>
      <point x="263" y="62"/>
      <point x="227" y="118" type="curve" smooth="yes"/>
      <point x="189" y="179"/>
      <point x="177" y="239"/>
      <point x="177" y="363" type="curve" smooth="yes"/>
      <point x="177" y="483"/>
      <point x="190" y="544"/>
      <point x="227" y="604" type="curve" smooth="yes"/>
      <point x="264" y="662"/>
      <point x="317" y="690"/>
    </contour>
    <contour>
      <point x="469" y="787" type="line"/>
      <point x="329" y="928" type="line" smooth="yes"/>
      <point x="304" y="952"/>
      <point x="294" y="958"/>
      <point x="279" y="958" type="curve" smooth="yes"/>
      <point x="259" y="958"/>
      <point x="244" y="943"/>
      <point x="244" y="923" type="curve" smooth="yes"/>
      <point x="244" y="909"/>
      <point x="254" y="894"/>
      <point x="269" y="885" type="curve" smooth="yes"/>
      <point x="428" y="787" type="line"/>
    </contour>
  </outline>
</glyph>
<glyph name="Otilde" format="1">
  <advance width="778"/>
  <unicode hex="00D5"/>
  <outline>
    <contour>
      <point x="393" y="737" type="curve" smooth="yes"/>
      <point x="304" y="737"/>
      <point x="228" y="709"/>
      <point x="167" y="653" type="curve" smooth="yes"/>
      <point x="90" y="582"/>
      <point x="45" y="474"/>
      <point x="45" y="360" type="curve" smooth="yes"/>
      <point x="45" y="147"/>
      <point x="194" y="-15"/>
      <point x="389" y="-15" type="curve" smooth="yes"/>
      <point x="585" y="-15"/>
      <point x="733" y="147"/>
      <point x="733" y="361" type="curve" smooth="yes"/>
      <point x="733" y="573"/>
      <point x="585" y="737"/>
    </contour>
    <contour>
      <point x="392" y="690" type="curve" smooth="yes"/>
      <point x="459" y="690"/>
      <point x="515" y="659"/>
      <point x="551" y="604" type="curve" smooth="yes"/>
      <point x="588" y="545"/>
      <point x="601" y="483"/>
      <point x="601" y="361" type="curve" smooth="yes"/>
      <point x="601" y="239"/>
      <point x="588" y="178"/>
      <point x="551" y="118" type="curve" smooth="yes"/>
      <point x="515" y="62"/>
      <point x="460" y="32"/>
      <point x="389" y="32" type="curve" smooth="yes"/>
      <point x="318" y="32"/>
      <point x="263" y="62"/>
      <point x="227" y="118" type="curve" smooth="yes"/>
      <point x="189" y="179"/>
      <point x="177" y="239"/>
      <point x="177" y="363" type="curve" smooth="yes"/>
      <point x="177" y="483"/>
      <point x="190" y="544"/>
      <point x="227" y="604" type="curve" smooth="yes"/>
      <point x="264" y="662"/>
      <point x="317" y="690"/>
    </contour>
    <contour>
      <point x="526" y="915" type="line"/>
      <point x="520" y="886"/>
      <point x="498" y="864"/>
      <point x="475" y="864" type="curve" smooth="yes"/>
      <point x="461" y="864"/>
      <point x="450" y="868"/>
      <point x="416" y="883" type="curve" smooth="yes"/>
      <point x="361" y="908"/>
      <point x="353" y="910"/>
      <point x="330" y="910" type="curve" smooth="yes"/>
      <point x="281" y="910"/>
      <point x="243" y="871"/>
      <point x="230" y="809" type="curve"/>
      <point x="265" y="809" type="line"/>
      <point x="272" y="836"/>
      <point x="289" y="851"/>
      <point x="312" y="851" type="curve" smooth="yes"/>
      <point x="326" y="851"/>
      <point x="345" y="846"/>
      <point x="364" y="837" type="curve" smooth="yes"/>
      <point x="415" y="813"/>
      <point x="427" y="809"/>
      <point x="453" y="809" type="curve" smooth="yes"/>
      <point x="510" y="809"/>
      <point x="554" y="852"/>
      <point x="561" y="915" type="curve"/>
    </contour>
  </outline>
</glyph>
<glyph name="multiply" format="1">
  <advance width="606"/>
  <unicode hex="00D7"/>
  <outline>
    <contour>
      <point x="303" y="196" type="line"/>
      <point x="499" y="1" type="line"/>
      <point x="555" y="57" type="line"/>
      <point x="359" y="253" type="line"/>
      <point x="555" y="448" type="line"/>
      <point x="499" y="505" type="line"/>
      <point x="303" y="309" type="line"/>
      <point x="107" y="505" type="line"/>
      <point x="51" y="448" type="line"/>
      <point x="247" y="253" type="line"/>
      <point x="51" y="57" type="line"/>
      <point x="107" y="1" type="line"/>
    </contour>
  </outline>
</glyph>
